<svg width="38" height="38" viewBox="0 0 38 38" fill="none" xmlns="http://www.w3.org/2000/svg">
<path d="M0 19C0 8.50659 8.50659 0 19 0C29.4934 0 38 8.50659 38 19C38 29.4934 29.4934 38 19 38C8.50659 38 0 29.4934 0 19Z" fill="url(#paint0_linear_582_3143)"/>
<g clip-path="url(#clip0_582_3143)">
<path d="M19.9175 13.9583C20.6907 14.1092 21.4014 14.4873 21.9584 15.0444C22.5155 15.6015 22.8937 16.3121 23.0446 17.0854M19.9175 10.7916C21.524 10.9701 23.0221 11.6895 24.1658 12.8318C25.3094 13.974 26.0307 15.4712 26.2112 17.0775M25.4196 23.395V25.77C25.4205 25.9904 25.3753 26.2087 25.287 26.4107C25.1986 26.6127 25.0691 26.7941 24.9066 26.9431C24.7442 27.0922 24.5524 27.2056 24.3435 27.2763C24.1346 27.3469 23.9133 27.3731 23.6937 27.3533C21.2576 27.0886 18.9176 26.2562 16.8616 24.9229C14.9488 23.7074 13.3271 22.0857 12.1116 20.1729C10.7737 18.1076 9.94109 15.7562 9.68123 13.3091C9.66145 13.0902 9.68746 12.8696 9.75763 12.6612C9.82779 12.4529 9.94056 12.2615 10.0888 12.0992C10.2369 11.9368 10.4173 11.8071 10.6184 11.7183C10.8195 11.6295 11.0368 11.5835 11.2566 11.5833H13.6316C14.0158 11.5795 14.3883 11.7156 14.6796 11.9661C14.9709 12.2166 15.1612 12.5645 15.215 12.945C15.3152 13.705 15.5011 14.4513 15.7691 15.1695C15.8757 15.4529 15.8987 15.7609 15.8356 16.0569C15.7724 16.353 15.6257 16.6247 15.4129 16.84L14.4075 17.8454C15.5345 19.8273 17.1755 21.4684 19.1575 22.5954L20.1629 21.59C20.3781 21.3771 20.6499 21.2304 20.946 21.1673C21.242 21.1041 21.55 21.1272 21.8333 21.2337C22.5516 21.5017 23.2978 21.6876 24.0579 21.7879C24.4425 21.8421 24.7937 22.0358 25.0447 22.3321C25.2958 22.6285 25.4292 23.0067 25.4196 23.395Z" stroke="url(#paint1_linear_582_3143)" stroke-width="1.5" stroke-linecap="round" stroke-linejoin="round"/>
</g>
<defs>
<linearGradient id="paint0_linear_582_3143" x1="19" y1="0" x2="19" y2="38" gradientUnits="userSpaceOnUse">
<stop stop-color="#5323EC"/>
<stop offset="1" stop-color="#620099"/>
</linearGradient>
<linearGradient id="paint1_linear_582_3143" x1="17.943" y1="10.7916" x2="17.943" y2="27.3597" gradientUnits="userSpaceOnUse">
<stop stop-color="white"/>
<stop offset="1" stop-color="#9D6FDE"/>
</linearGradient>
<clipPath id="clip0_582_3143">
<rect width="19" height="19" fill="white" transform="translate(8.00293 10)"/>
</clipPath>
</defs>
</svg>
