<svg width="38" height="38" viewBox="0 0 38 38" fill="none" xmlns="http://www.w3.org/2000/svg">
<path d="M0 19C0 8.50659 8.50659 0 19 0C29.4934 0 38 8.50659 38 19C38 29.4934 29.4934 38 19 38C8.50659 38 0 29.4934 0 19Z" fill="url(#paint0_linear_582_3148)"/>
<path d="M22.3337 15C23.8587 15 25.3212 15.5531 26.3995 16.5377C27.4779 17.5223 28.0837 18.8576 28.0837 20.25V26.375H24.2503V20.25C24.2503 19.7859 24.0484 19.3408 23.6889 19.0126C23.3295 18.6844 22.842 18.5 22.3337 18.5C21.8253 18.5 21.3378 18.6844 20.9784 19.0126C20.6189 19.3408 20.417 19.7859 20.417 20.25V26.375H16.5837V20.25C16.5837 18.8576 17.1895 17.5223 18.2678 16.5377C19.3461 15.5531 20.8087 15 22.3337 15Z" stroke="url(#paint1_linear_582_3148)" stroke-opacity="0.79" stroke-width="2" stroke-linecap="round" stroke-linejoin="round"/>
<path d="M12.7503 15.875H8.91699V26.375H12.7503V15.875Z" stroke="url(#paint2_linear_582_3148)" stroke-opacity="0.79" stroke-width="2" stroke-linecap="round" stroke-linejoin="round"/>
<path d="M10.8337 13.25C11.8922 13.25 12.7503 12.4665 12.7503 11.5C12.7503 10.5335 11.8922 9.75 10.8337 9.75C9.77511 9.75 8.91699 10.5335 8.91699 11.5C8.91699 12.4665 9.77511 13.25 10.8337 13.25Z" stroke="url(#paint3_linear_582_3148)" stroke-opacity="0.79" stroke-width="2" stroke-linecap="round" stroke-linejoin="round"/>
<defs>
<linearGradient id="paint0_linear_582_3148" x1="19" y1="0" x2="19" y2="38" gradientUnits="userSpaceOnUse">
<stop stop-color="#5323EC"/>
<stop offset="1" stop-color="#620099"/>
</linearGradient>
<linearGradient id="paint1_linear_582_3148" x1="18.5003" y1="9.75" x2="18.5003" y2="26.375" gradientUnits="userSpaceOnUse">
<stop offset="0.41" stop-color="white"/>
<stop offset="1" stop-color="#9E6CD6"/>
</linearGradient>
<linearGradient id="paint2_linear_582_3148" x1="18.5003" y1="9.75" x2="18.5003" y2="26.375" gradientUnits="userSpaceOnUse">
<stop offset="0.41" stop-color="white"/>
<stop offset="1" stop-color="#9E6CD6"/>
</linearGradient>
<linearGradient id="paint3_linear_582_3148" x1="18.5003" y1="9.75" x2="18.5003" y2="26.375" gradientUnits="userSpaceOnUse">
<stop offset="0.41" stop-color="white"/>
<stop offset="1" stop-color="#9E6CD6"/>
</linearGradient>
</defs>
</svg>
