<svg width="320" height="337" viewBox="0 0 320 337" fill="none" xmlns="http://www.w3.org/2000/svg">
<path opacity="0.0144928" d="M309.941 195.752C322.87 214.479 352.12 207 354.472 184.366L371.516 20.3693C373.279 3.40538 357.601 -10.1247 341.078 -5.89962L230.362 22.4103C213.838 26.6353 206.58 46.0301 216.269 60.0656L309.941 195.752Z" stroke="url(#paint0_linear_2154_4915)" stroke-opacity="0.52"/>
<path opacity="0.0289855" d="M297.685 195.278C309.623 214.62 339.179 208.691 342.733 186.241L368.188 25.4425C370.856 8.58584 355.904 -5.76633 339.17 -2.4096L228.212 19.8488C211.479 23.2056 203.219 42.2144 212.182 56.7376L297.685 195.278Z" stroke="url(#paint1_linear_2154_4915)" stroke-opacity="0.52"/>
<path opacity="0.0434783" d="M285.564 194.492C296.482 214.398 326.261 210.03 331.004 187.828L364.582 30.6506C368.149 13.9494 353.965 -1.1865 337.067 1.29154L226.196 17.5512C209.299 20.0292 200.057 38.6007 208.27 53.5742L285.564 194.492Z" stroke="url(#paint2_linear_2154_4915)" stroke-opacity="0.52"/>
<path opacity="0.057971" d="M273.594 193.406C283.467 213.82 313.386 211.022 319.302 189.132L360.692 35.9764C365.15 19.4786 351.774 3.59965 334.759 5.19105L224.296 15.5222C207.281 17.1136 197.081 35.1975 204.522 50.5825L273.594 193.406Z" stroke="url(#paint3_linear_2154_4915)" stroke-opacity="0.52"/>
<path opacity="0.0724638" d="M261.79 192.032C270.594 212.9 300.57 211.673 307.64 190.156L356.514 41.4026C361.852 25.1554 349.324 8.5764 332.236 9.27558L222.498 13.7659C205.411 14.465 194.279 32.0122 200.926 47.7689L261.79 192.032Z" stroke="url(#paint4_linear_2154_4915)" stroke-opacity="0.52"/>
<path opacity="0.0869565" d="M250.168 190.382C257.883 211.646 287.833 211.99 296.033 190.908L352.044 46.9117C358.248 30.9621 346.604 13.7278 329.492 13.5316L220.785 12.2852C203.672 12.089 191.636 29.0519 197.473 45.1395L250.168 190.382Z" stroke="url(#paint5_linear_2154_4915)" stroke-opacity="0.52"/>
<path opacity="0.101449" d="M238.741 188.47C245.35 210.073 275.19 211.98 284.495 191.394L347.281 52.4861C354.335 36.8802 343.609 19.0373 326.518 17.945L219.141 11.0824C202.05 9.99011 189.14 26.3224 194.15 42.6993L238.741 188.47Z" stroke="url(#paint6_linear_2154_4915)" stroke-opacity="0.52"/>
<path opacity="0.115942" d="M227.522 186.309C233.011 208.194 262.659 211.654 273.04 191.621L342.222 58.1082C350.107 42.8912 340.332 24.4884 323.309 22.5017L217.55 10.1586C200.527 8.17183 186.777 23.829 190.946 40.4528L227.522 186.309Z" stroke="url(#paint7_linear_2154_4915)" stroke-opacity="0.52"/>
<path opacity="0.130435" d="M216.524 183.914C220.88 206.022 250.256 211.02 261.68 191.597L336.867 63.7606C345.562 48.9768 336.767 30.0642 319.858 27.1871L215.996 9.51404C199.088 6.63695 184.533 21.5762 187.849 38.4039L216.524 183.914Z" stroke="url(#paint8_linear_2154_4915)" stroke-opacity="0.52"/>
<path opacity="0.144928" d="M205.756 181.3C208.973 203.572 237.995 210.089 250.427 191.332L331.217 69.4257C340.699 55.1182 332.91 35.7476 316.163 31.9867L214.464 9.14826C197.717 5.38736 182.393 19.5677 184.847 36.5556L205.756 181.3Z" stroke="url(#paint9_linear_2154_4915)" stroke-opacity="0.52"/>
<path opacity="0.15942" d="M195.229 178.483C197.302 200.86 225.892 208.873 239.292 190.833L325.273 75.0862C335.516 61.2969 328.758 41.5214 312.218 36.8856L212.937 9.05971C196.397 4.42391 180.345 17.8062 181.93 34.9105L195.229 178.483Z" stroke="url(#paint10_linear_2154_4915)" stroke-opacity="0.52"/>
<path opacity="0.173913" d="M184.953 175.479C185.88 197.902 213.959 207.382 228.288 190.111L319.039 80.725C330.015 67.4945 324.308 47.3685 308.021 41.8691L211.401 9.24597C195.113 3.74656 178.374 16.2939 179.084 33.4703L184.953 175.479Z" stroke="url(#paint11_linear_2154_4915)" stroke-opacity="0.52"/>
<path opacity="0.188406" d="M174.935 172.305C174.717 194.714 202.21 205.631 217.423 189.176L312.517 86.3254C324.197 73.6927 319.56 53.2717 303.57 46.9223L209.839 9.70397C193.849 3.35458 176.466 15.032 176.298 32.236L174.935 172.305Z" stroke="url(#paint12_linear_2154_4915)" stroke-opacity="0.52"/>
<path opacity="0.202899" d="M165.182 168.977C163.823 191.314 190.656 203.631 206.707 188.039L305.713 91.8707C318.064 79.8734 314.513 59.2138 298.864 52.0304L208.238 10.4297C192.589 3.24628 174.607 14.0213 173.562 31.2083L165.182 168.977Z" stroke="url(#paint13_linear_2154_4915)" stroke-opacity="0.52"/>
<path opacity="0.217391" d="M155.7 165.513C153.208 187.718 179.308 201.396 196.149 186.71L298.632 97.3449C311.621 86.0188 309.166 65.1778 293.902 57.1786L206.582 11.4182C191.318 3.41902 172.784 13.2613 170.862 30.3869L155.7 165.513Z" stroke="url(#paint14_linear_2154_4915)" stroke-opacity="0.52"/>
<path opacity="0.231884" d="M146.494 161.929C142.88 183.945 168.178 198.94 185.757 185.202L291.28 102.732C304.87 92.1114 303.523 71.1469 288.686 62.3524L204.858 12.664C190.021 3.86946 170.983 12.7512 168.189 29.7711L146.494 161.929Z" stroke="url(#paint15_linear_2154_4915)" stroke-opacity="0.52"/>
<path opacity="0.246377" d="M137.568 158.243C132.845 180.013 157.274 196.279 175.538 183.524L283.665 108.018C297.819 98.1341 297.586 77.1045 283.217 67.5373L203.051 14.1607C188.682 4.59345 169.19 12.4891 165.53 29.3592L137.568 158.243Z" stroke="url(#paint16_linear_2154_4915)" stroke-opacity="0.52"/>
<path opacity="0.26087" d="M128.925 154.472C123.109 175.94 146.604 193.426 165.499 181.69L275.796 113.186C290.473 104.07 291.357 83.0342 277.496 72.719L201.149 15.9011C187.289 5.58596 167.392 12.4728 162.875 29.1494L128.925 154.472Z" stroke="url(#paint17_linear_2154_4915)" stroke-opacity="0.52"/>
<path opacity="0.275362" d="M120.565 150.633C113.676 171.745 136.176 190.396 155.644 179.712L267.68 118.224C282.84 109.903 284.841 88.9199 271.527 77.8836L199.139 17.8776C185.825 6.84129 165.577 12.6991 160.212 29.1391L120.565 150.633Z" stroke="url(#paint18_linear_2154_4915)" stroke-opacity="0.52"/>
<path opacity="0.289855" d="M112.491 146.745C104.55 167.445 125.998 187.206 145.98 177.601L259.327 123.117C274.928 115.618 278.044 94.7461 265.315 83.0175L197.009 20.0817C184.279 8.35301 163.732 13.1642 157.532 29.325L112.491 146.745Z" stroke="url(#paint19_linear_2154_4915)" stroke-opacity="0.52"/>
<path opacity="0.304348" d="M104.701 142.824C95.7343 163.06 116.073 183.871 136.51 175.37L250.75 127.853C266.746 121.199 270.971 100.498 258.862 88.1074L194.746 22.5045C182.637 10.1142 161.844 13.8638 154.825 29.7035L104.701 142.824Z" stroke="url(#paint20_linear_2154_4915)" stroke-opacity="0.52"/>
<path opacity="0.318841" d="M97.1946 138.887C87.2288 158.608 106.407 180.406 127.237 173.032L241.957 132.42C258.304 126.632 263.63 106.16 252.175 93.1402L192.341 25.1361C180.886 12.1167 159.901 14.7927 152.08 30.2704L97.1946 138.887Z" stroke="url(#paint21_linear_2154_4915)" stroke-opacity="0.52"/>
<path opacity="0.333333" d="M89.969 134.95C79.0344 154.108 97.0046 176.827 118.165 170.598L232.962 136.806C249.614 131.904 256.028 111.718 245.259 98.1036L189.782 27.9666C179.014 14.3524 157.893 15.9454 149.289 31.0208L89.969 134.95Z" stroke="url(#paint22_linear_2154_4915)" stroke-opacity="0.52"/>
<path opacity="0.347826" d="M83.0209 131.031C71.15 149.577 87.8673 173.15 109.296 168.081L223.777 141C240.685 137 248.173 117.159 238.121 102.986L187.061 30.9852C177.01 16.8121 155.808 17.3155 146.441 31.9498L83.0209 131.031Z" stroke="url(#paint23_linear_2154_4915)" stroke-opacity="0.52"/>
<path opacity="0.362319" d="M76.3461 127.145C63.5738 145.034 78.9976 169.391 100.629 165.494L214.414 144.994C231.531 141.91 240.074 122.469 230.769 107.775L184.167 34.181C174.862 19.4864 153.636 18.8965 143.529 33.0516L76.3461 127.145Z" stroke="url(#paint24_linear_2154_4915)" stroke-opacity="0.52"/>
<path opacity="0.376812" d="M69.9394 123.308C56.3029 140.495 70.3962 165.565 92.1669 162.848L204.888 148.777C222.164 146.62 231.742 127.637 223.21 112.459L181.094 37.5421C172.562 22.3651 151.366 20.6809 140.544 34.3202L69.9394 123.308Z" stroke="url(#paint25_linear_2154_4915)" stroke-opacity="0.52"/>
<path opacity="0.391304" d="M63.7948 119.536C49.3334 135.98 62.0636 161.689 83.9082 160.155L195.212 152.342C212.598 151.121 223.186 132.649 215.452 117.03L177.833 41.0569C170.098 25.4377 148.989 22.6612 137.479 35.7492L63.7948 119.536Z" stroke="url(#paint26_linear_2154_4915)" stroke-opacity="0.52"/>
<path opacity="0.405797" d="M57.9054 115.842C42.6606 131.504 53.9988 157.776 75.8522 157.428L185.401 155.681C202.846 155.403 214.418 137.496 207.505 121.476L174.377 44.7131C167.463 28.6934 146.496 24.8292 134.326 37.3319L57.9054 115.842Z" stroke="url(#paint27_linear_2154_4915)" stroke-opacity="0.52"/>
<path opacity="0.42029" d="M52.2635 112.241C36.2785 127.083 46.2002 153.843 67.9974 154.677L175.469 158.789C192.923 159.456 205.45 142.167 199.377 125.789L170.72 48.498C164.648 32.1205 143.878 27.1762 131.078 39.0612L52.2635 112.241Z" stroke="url(#paint28_linear_2154_4915)" stroke-opacity="0.52"/>
<path opacity="0.434783" d="M46.8606 108.747C30.1804 122.735 38.6653 149.905 60.3416 151.915L165.432 161.659C182.843 163.273 196.292 146.652 191.08 129.96L166.858 52.399C161.645 35.7075 141.128 29.6934 127.729 40.9297L46.8606 108.747Z" stroke="url(#paint29_linear_2154_4915)" stroke-opacity="0.52"/>
<path opacity="0.449275" d="M41.6876 105.372C24.3588 118.474 31.3908 145.975 52.8819 149.151L155.304 164.287C172.622 166.847 186.959 150.942 182.622 133.981L162.785 56.4031C158.449 39.4423 138.237 32.3715 124.273 42.9297L41.6876 105.372Z" stroke="url(#paint30_linear_2154_4915)" stroke-opacity="0.52"/>
<path opacity="0.463768" d="M36.7345 102.128C18.8053 114.315 24.3728 142.069 45.615 146.398L145.101 166.67C162.275 170.17 177.462 155.03 174.015 137.845L158.499 60.4973C155.051 43.3128 135.2 35.2009 120.705 45.0535L36.7345 102.128Z" stroke="url(#paint31_linear_2154_4915)" stroke-opacity="0.52"/>
<path opacity="0.478261" d="M31.9908 99.0279C13.5108 110.272 17.6065 138.199 38.5368 143.664L134.84 168.806C151.818 173.238 167.815 158.907 165.269 141.545L153.995 64.6682C151.449 47.3061 132.01 38.1718 117.019 47.293L31.9908 99.0279Z" stroke="url(#paint32_linear_2154_4915)" stroke-opacity="0.52"/>
<path opacity="0.492754" d="M27.4456 96.0811C8.46537 106.359 11.0861 134.38 31.6429 140.959L124.534 170.691C141.267 176.047 158.032 162.569 156.396 145.076L149.272 68.9027C147.636 51.4098 128.662 41.2741 113.213 49.6399L27.4456 96.0811Z" stroke="url(#paint33_linear_2154_4915)" stroke-opacity="0.52"/>
<path opacity="0.507246" d="M23.0872 93.2979C3.65858 102.587 4.80573 130.623 24.9283 138.294L114.201 172.327C130.638 178.593 148.127 166.008 147.408 148.432L144.329 73.1875C143.609 55.611 125.151 44.4976 109.281 52.0858L23.0872 93.2979Z" stroke="url(#paint34_linear_2154_4915)" stroke-opacity="0.52"/>
<path opacity="0.521739" d="M18.9035 90.6875C-0.920975 98.9706 -1.24164 126.942 18.3877 135.677L103.855 173.712C119.947 180.873 138.113 169.222 138.315 151.609L139.164 77.5094C139.366 59.8969 121.472 47.8319 105.22 54.6224L18.9035 90.6875Z" stroke="url(#paint35_linear_2154_4915)" stroke-opacity="0.52"/>
<path opacity="0.536232" d="M14.8819 88.2582C-5.28494 95.5193 -7.06349 123.348 12.015 133.117L93.5123 174.848C109.211 182.887 128.004 172.204 129.129 154.604L133.779 81.8551C134.903 64.2543 117.623 51.2665 101.029 57.2411L14.8819 88.2582Z" stroke="url(#paint36_linear_2154_4915)" stroke-opacity="0.52"/>
<path opacity="0.550725" d="M11.0097 86.0175C-9.44564 92.2438 -12.6677 119.852 5.80404 130.621L83.1882 175.738C98.4449 184.633 117.816 174.954 119.863 157.413L128.173 86.2117C130.22 68.6705 113.599 54.7907 96.7038 59.9333L11.0097 86.0175Z" stroke="url(#paint37_linear_2154_4915)" stroke-opacity="0.52"/>
<path opacity="0.565217" d="M7.27361 83.9718C-13.4159 89.1537 -18.0631 116.464 -0.251787 128.198L72.8978 176.384C87.666 186.113 107.562 177.468 110.528 160.034L122.349 90.5663C125.315 73.1324 109.398 58.394 92.2437 62.6905L7.27361 83.9718Z" stroke="url(#paint38_linear_2154_4915)" stroke-opacity="0.52"/>
<path opacity="0.57971" d="M3.66016 82.1271C-17.2089 86.2575 -23.2585 113.196 -6.15936 125.853L62.6559 176.791C76.89 187.327 97.2566 179.746 101.137 162.467L116.309 94.9062C120.189 77.6272 105.02 62.0658 87.6474 65.5041L3.66016 82.1271Z" stroke="url(#paint39_linear_2154_4915)" stroke-opacity="0.52"/>
<path opacity="0.594203" d="M0.155653 80.488C-20.8383 83.5632 -28.2636 110.056 -11.926 123.594L52.4772 176.962C66.1327 188.278 86.9144 181.786 91.7006 164.709L110.056 99.2189C114.842 82.1422 100.462 65.7953 82.9142 68.3656L0.155653 80.488Z" stroke="url(#paint40_linear_2154_4915)" stroke-opacity="0.52"/>
<path opacity="0.608696" d="M-3.25383 79.0586C-24.3179 81.0775 -33.0881 107.052 -17.559 121.427L42.376 176.905C55.41 188.97 76.5495 183.59 82.2312 166.763L103.594 103.492C109.276 86.6649 95.7237 69.5721 78.0438 71.2666L-3.25383 79.0586Z" stroke="url(#paint41_linear_2154_4915)" stroke-opacity="0.52"/>
<path opacity="0.623188" d="M-6.58194 77.842C-27.6619 78.8066 -37.7424 104.193 -23.0662 119.356L32.3658 176.625C44.737 189.406 66.176 185.159 72.7405 168.627L96.9272 107.715C103.492 91.1828 90.8059 73.3857 73.0368 74.1988L-6.58194 77.842Z" stroke="url(#paint42_linear_2154_4915)" stroke-opacity="0.52"/>
<path opacity="0.637681" d="M-9.84285 76.8402C-30.8846 76.7553 -42.2371 101.486 -28.4553 117.387L22.4603 176.129C34.1288 189.591 55.8079 186.494 63.2401 170.303L90.061 111.875C97.4932 95.6839 85.7088 77.2258 67.8937 77.1539L-9.84285 76.8402Z" stroke="url(#paint43_linear_2154_4915)" stroke-opacity="0.52"/>
<path opacity="0.652174" d="M-13.0505 76.0547C-34.0005 74.928 -46.583 98.938 -33.7342 115.524L12.6724 175.427C23.6001 189.533 45.4587 187.6 53.7412 171.795L83.0011 115.961C91.2836 100.156 80.4338 81.0823 62.616 80.124L-13.0505 76.0547Z" stroke="url(#paint44_linear_2154_4915)" stroke-opacity="0.52"/>
<path opacity="0.666667" d="M-16.2187 75.4858C-37.0242 73.3278 -50.7912 96.5538 -38.9112 113.77L3.01407 174.526C13.1648 189.237 35.1417 188.479 44.2548 173.104L75.7535 119.963C84.8666 104.588 74.9824 84.9451 57.2053 83.1012L-16.2187 75.4858Z" stroke="url(#paint45_linear_2154_4915)" stroke-opacity="0.52"/>
<path opacity="0.681159" d="M-19.361 75.133C-39.9702 71.9572 -54.8729 94.3392 -43.994 112.129L-6.50277 173.437C2.83697 188.71 24.8701 189.135 34.792 174.234L68.3255 123.87C78.2473 108.969 69.3573 88.8045 51.6638 86.0779L-19.361 75.133Z" stroke="url(#paint46_linear_2154_4915)" stroke-opacity="0.52"/>
<path opacity="0.695652" d="M-22.4914 74.9952C-42.8534 70.8174 -58.8395 92.2983 -48.9912 110.603L-15.8671 172.17C-7.37045 187.963 14.6565 189.575 25.363 175.189L60.7242 127.674C71.4306 113.287 63.561 92.651 45.9939 89.0467L-22.4914 74.9952Z" stroke="url(#paint47_linear_2154_4915)" stroke-opacity="0.52"/>
<path opacity="0.710145" d="M-25.6229 75.0702C-45.6878 69.9092 -62.7026 90.435 -53.9104 109.195L-25.0684 170.736C-17.4447 187.002 4.51326 189.805 15.9781 175.974L52.9577 131.364C64.4225 117.533 57.5971 96.4755 40.1988 92.0004L-25.6229 75.0702Z" stroke="url(#paint48_linear_2154_4915)" stroke-opacity="0.52"/>
<path opacity="0.724638" d="M-28.7688 75.355C-48.4882 69.2321 -66.4736 88.7522 -58.7601 107.905L-34.0972 169.145C-27.3741 185.84 -5.54802 189.83 6.64695 176.594L45.0343 134.932C57.2293 121.696 51.4692 100.269 34.2815 94.9322L-28.7688 75.355Z" stroke="url(#paint49_linear_2154_4915)" stroke-opacity="0.52"/>
<path opacity="0.73913" d="M-31.9416 75.846C-51.2685 68.7849 -70.1641 87.2522 -63.5481 106.736L-42.9444 167.412C-37.1469 184.485 -15.5159 189.658 -2.62102 177.056L36.9628 138.369C49.8577 125.767 45.1817 104.023 28.246 97.8354L-31.9416 75.846Z" stroke="url(#paint50_linear_2154_4915)" stroke-opacity="0.52"/>
<path opacity="0.753623" d="M-35.1539 76.5386C-54.0429 68.5656 -73.7857 85.9365 -68.2821 105.687L-51.6017 165.547C-46.7526 182.949 -25.3797 189.298 -11.817 177.365L28.7525 141.669C42.3152 129.736 38.7392 107.729 22.0961 100.704L-35.1539 76.5386Z" stroke="url(#paint51_linear_2154_4915)" stroke-opacity="0.52"/>
<path opacity="0.768116" d="M-38.4175 77.4278C-56.8248 68.5714 -77.3496 84.806 -72.9701 104.758L-60.062 163.565C-56.1813 181.244 -35.129 188.757 -20.9326 177.528L20.4129 144.824C34.6094 133.595 32.147 111.379 15.8362 103.531L-38.4175 77.4278Z" stroke="url(#paint52_linear_2154_4915)" stroke-opacity="0.52"/>
<path opacity="0.782609" d="M-41.744 78.5076C-59.6277 68.7985 -80.8672 83.8609 -77.6194 103.949L-68.3185 161.478C-65.4237 179.383 -44.7544 188.044 -29.96 177.553L11.954 147.828C26.7485 137.337 25.4105 114.966 9.47092 106.312L-41.744 78.5076Z" stroke="url(#paint53_linear_2154_4915)" stroke-opacity="0.52"/>
<path opacity="0.797101" d="M-45.1443 79.7714C-62.4645 69.2425 -84.3497 83.1008 -82.2375 103.26L-76.3655 159.301C-74.4715 177.377 -54.2468 187.17 -38.8916 177.447L3.38583 150.676C18.741 140.952 18.5356 118.482 3.00515 109.041L-45.1443 79.7714Z" stroke="url(#paint54_linear_2154_4915)" stroke-opacity="0.52"/>
<path opacity="0.811594" d="M-48.629 81.2121C-65.3478 69.8982 -87.808 82.5246 -86.8313 102.688L-84.1982 157.048C-83.317 175.24 -63.5979 186.145 -47.7209 177.219L-5.28106 153.361C10.5959 144.436 11.5284 121.922 -3.55598 111.714L-48.629 81.2121Z" stroke="url(#paint55_linear_2154_4915)" stroke-opacity="0.52"/>
<path opacity="0.826087" d="M-52.2079 82.822C-68.2895 70.7598 -91.2529 82.1305 -91.4079 102.233L-91.8126 154.733C-91.9533 172.987 -72.7999 184.978 -56.4415 176.878L-14.0361 155.88C2.32218 147.78 4.39559 125.278 -10.2072 114.325L-52.2079 82.822Z" stroke="url(#paint56_linear_2154_4915)" stroke-opacity="0.52"/>
<path opacity="0.84058" d="M-55.8902 84.5927C-71.3013 71.8207 -94.6948 81.9164 -95.9736 101.891L-99.2057 152.372C-100.375 170.63 -81.8458 183.681 -65.0479 176.432L-22.8684 158.229C-6.07053 150.98 -2.85618 128.545 -16.9428 116.871L-55.8902 84.5927Z" stroke="url(#paint57_linear_2154_4915)" stroke-opacity="0.52"/>
<defs>
<linearGradient id="paint0_linear_2154_4915" x1="347.974" y1="251.724" x2="261.684" y2="-85.7446" gradientUnits="userSpaceOnUse">
<stop stop-color="#330654"/>
<stop offset="0.5" stop-color="#1E0830"/>
<stop offset="0.75" stop-color="#5B1C92"/>
<stop offset="1" stop-color="#613F80"/>
</linearGradient>
<linearGradient id="paint1_linear_2154_4915" x1="332.681" y1="252.934" x2="264.776" y2="-85.5741" gradientUnits="userSpaceOnUse">
<stop stop-color="#330654"/>
<stop offset="0.5" stop-color="#1E0830"/>
<stop offset="0.75" stop-color="#5B1C92"/>
<stop offset="1" stop-color="#613F80"/>
</linearGradient>
<linearGradient id="paint2_linear_2154_4915" x1="317.451" y1="253.666" x2="267.801" y2="-84.8902" gradientUnits="userSpaceOnUse">
<stop stop-color="#330654"/>
<stop offset="0.5" stop-color="#1E0830"/>
<stop offset="0.75" stop-color="#5B1C92"/>
<stop offset="1" stop-color="#613F80"/>
</linearGradient>
<linearGradient id="paint3_linear_2154_4915" x1="302.308" y1="253.929" x2="270.731" y2="-83.7013" gradientUnits="userSpaceOnUse">
<stop stop-color="#330654"/>
<stop offset="0.5" stop-color="#1E0830"/>
<stop offset="0.75" stop-color="#5B1C92"/>
<stop offset="1" stop-color="#613F80"/>
</linearGradient>
<linearGradient id="paint4_linear_2154_4915" x1="287.278" y1="253.731" x2="273.54" y2="-82.0174" gradientUnits="userSpaceOnUse">
<stop stop-color="#330654"/>
<stop offset="0.5" stop-color="#1E0830"/>
<stop offset="0.75" stop-color="#5B1C92"/>
<stop offset="1" stop-color="#613F80"/>
</linearGradient>
<linearGradient id="paint5_linear_2154_4915" x1="272.385" y1="253.083" x2="276.202" y2="-79.85" gradientUnits="userSpaceOnUse">
<stop stop-color="#330654"/>
<stop offset="0.5" stop-color="#1E0830"/>
<stop offset="0.75" stop-color="#5B1C92"/>
<stop offset="1" stop-color="#613F80"/>
</linearGradient>
<linearGradient id="paint6_linear_2154_4915" x1="257.652" y1="251.997" x2="278.692" y2="-77.2117" gradientUnits="userSpaceOnUse">
<stop stop-color="#330654"/>
<stop offset="0.5" stop-color="#1E0830"/>
<stop offset="0.75" stop-color="#5B1C92"/>
<stop offset="1" stop-color="#613F80"/>
</linearGradient>
<linearGradient id="paint7_linear_2154_4915" x1="243.101" y1="250.486" x2="280.985" y2="-74.1166" gradientUnits="userSpaceOnUse">
<stop stop-color="#330654"/>
<stop offset="0.5" stop-color="#1E0830"/>
<stop offset="0.75" stop-color="#5B1C92"/>
<stop offset="1" stop-color="#613F80"/>
</linearGradient>
<linearGradient id="paint8_linear_2154_4915" x1="228.754" y1="248.564" x2="283.06" y2="-70.5799" gradientUnits="userSpaceOnUse">
<stop stop-color="#330654"/>
<stop offset="0.5" stop-color="#1E0830"/>
<stop offset="0.75" stop-color="#5B1C92"/>
<stop offset="1" stop-color="#613F80"/>
</linearGradient>
<linearGradient id="paint9_linear_2154_4915" x1="214.633" y1="246.247" x2="284.892" y2="-66.6179" gradientUnits="userSpaceOnUse">
<stop stop-color="#330654"/>
<stop offset="0.5" stop-color="#1E0830"/>
<stop offset="0.75" stop-color="#5B1C92"/>
<stop offset="1" stop-color="#613F80"/>
</linearGradient>
<linearGradient id="paint10_linear_2154_4915" x1="200.755" y1="243.551" x2="286.463" y2="-62.2482" gradientUnits="userSpaceOnUse">
<stop stop-color="#330654"/>
<stop offset="0.5" stop-color="#1E0830"/>
<stop offset="0.75" stop-color="#5B1C92"/>
<stop offset="1" stop-color="#613F80"/>
</linearGradient>
<linearGradient id="paint11_linear_2154_4915" x1="187.14" y1="240.492" x2="287.751" y2="-57.4893" gradientUnits="userSpaceOnUse">
<stop stop-color="#330654"/>
<stop offset="0.5" stop-color="#1E0830"/>
<stop offset="0.75" stop-color="#5B1C92"/>
<stop offset="1" stop-color="#613F80"/>
</linearGradient>
<linearGradient id="paint12_linear_2154_4915" x1="173.804" y1="237.089" x2="288.738" y2="-52.3606" gradientUnits="userSpaceOnUse">
<stop stop-color="#330654"/>
<stop offset="0.5" stop-color="#1E0830"/>
<stop offset="0.75" stop-color="#5B1C92"/>
<stop offset="1" stop-color="#613F80"/>
</linearGradient>
<linearGradient id="paint13_linear_2154_4915" x1="160.765" y1="233.362" x2="289.407" y2="-46.8823" gradientUnits="userSpaceOnUse">
<stop stop-color="#330654"/>
<stop offset="0.5" stop-color="#1E0830"/>
<stop offset="0.75" stop-color="#5B1C92"/>
<stop offset="1" stop-color="#613F80"/>
</linearGradient>
<linearGradient id="paint14_linear_2154_4915" x1="148.036" y1="229.329" x2="289.742" y2="-41.0757" gradientUnits="userSpaceOnUse">
<stop stop-color="#330654"/>
<stop offset="0.5" stop-color="#1E0830"/>
<stop offset="0.75" stop-color="#5B1C92"/>
<stop offset="1" stop-color="#613F80"/>
</linearGradient>
<linearGradient id="paint15_linear_2154_4915" x1="135.632" y1="225.01" x2="289.728" y2="-34.9625" gradientUnits="userSpaceOnUse">
<stop stop-color="#330654"/>
<stop offset="0.5" stop-color="#1E0830"/>
<stop offset="0.75" stop-color="#5B1C92"/>
<stop offset="1" stop-color="#613F80"/>
</linearGradient>
<linearGradient id="paint16_linear_2154_4915" x1="123.565" y1="220.427" x2="289.352" y2="-28.5652" gradientUnits="userSpaceOnUse">
<stop stop-color="#330654"/>
<stop offset="0.5" stop-color="#1E0830"/>
<stop offset="0.75" stop-color="#5B1C92"/>
<stop offset="1" stop-color="#613F80"/>
</linearGradient>
<linearGradient id="paint17_linear_2154_4915" x1="111.846" y1="215.602" x2="288.602" y2="-21.9066" gradientUnits="userSpaceOnUse">
<stop stop-color="#330654"/>
<stop offset="0.5" stop-color="#1E0830"/>
<stop offset="0.75" stop-color="#5B1C92"/>
<stop offset="1" stop-color="#613F80"/>
</linearGradient>
<linearGradient id="paint18_linear_2154_4915" x1="100.485" y1="210.555" x2="287.467" y2="-15.0103" gradientUnits="userSpaceOnUse">
<stop stop-color="#330654"/>
<stop offset="0.5" stop-color="#1E0830"/>
<stop offset="0.75" stop-color="#5B1C92"/>
<stop offset="1" stop-color="#613F80"/>
</linearGradient>
<linearGradient id="paint19_linear_2154_4915" x1="89.4904" y1="205.309" x2="285.938" y2="-7.90022" gradientUnits="userSpaceOnUse">
<stop stop-color="#330654"/>
<stop offset="0.5" stop-color="#1E0830"/>
<stop offset="0.75" stop-color="#5B1C92"/>
<stop offset="1" stop-color="#613F80"/>
</linearGradient>
<linearGradient id="paint20_linear_2154_4915" x1="78.8694" y1="199.887" x2="284.007" y2="-0.60024" gradientUnits="userSpaceOnUse">
<stop stop-color="#330654"/>
<stop offset="0.5" stop-color="#1E0830"/>
<stop offset="0.75" stop-color="#5B1C92"/>
<stop offset="1" stop-color="#613F80"/>
</linearGradient>
<linearGradient id="paint21_linear_2154_4915" x1="68.6276" y1="194.311" x2="281.669" y2="6.86519" gradientUnits="userSpaceOnUse">
<stop stop-color="#330654"/>
<stop offset="0.5" stop-color="#1E0830"/>
<stop offset="0.75" stop-color="#5B1C92"/>
<stop offset="1" stop-color="#613F80"/>
</linearGradient>
<linearGradient id="paint22_linear_2154_4915" x1="58.7697" y1="188.603" x2="278.918" y2="14.4717" gradientUnits="userSpaceOnUse">
<stop stop-color="#330654"/>
<stop offset="0.5" stop-color="#1E0830"/>
<stop offset="0.75" stop-color="#5B1C92"/>
<stop offset="1" stop-color="#613F80"/>
</linearGradient>
<linearGradient id="paint23_linear_2154_4915" x1="49.2988" y1="182.787" x2="275.751" y2="22.1946" gradientUnits="userSpaceOnUse">
<stop stop-color="#330654"/>
<stop offset="0.5" stop-color="#1E0830"/>
<stop offset="0.75" stop-color="#5B1C92"/>
<stop offset="1" stop-color="#613F80"/>
</linearGradient>
<linearGradient id="paint24_linear_2154_4915" x1="40.2167" y1="176.886" x2="272.166" y2="30.0095" gradientUnits="userSpaceOnUse">
<stop stop-color="#330654"/>
<stop offset="0.5" stop-color="#1E0830"/>
<stop offset="0.75" stop-color="#5B1C92"/>
<stop offset="1" stop-color="#613F80"/>
</linearGradient>
<linearGradient id="paint25_linear_2154_4915" x1="31.5239" y1="170.922" x2="268.162" y2="37.8922" gradientUnits="userSpaceOnUse">
<stop stop-color="#330654"/>
<stop offset="0.5" stop-color="#1E0830"/>
<stop offset="0.75" stop-color="#5B1C92"/>
<stop offset="1" stop-color="#613F80"/>
</linearGradient>
<linearGradient id="paint26_linear_2154_4915" x1="23.2198" y1="164.917" x2="263.741" y2="45.8185" gradientUnits="userSpaceOnUse">
<stop stop-color="#330654"/>
<stop offset="0.5" stop-color="#1E0830"/>
<stop offset="0.75" stop-color="#5B1C92"/>
<stop offset="1" stop-color="#613F80"/>
</linearGradient>
<linearGradient id="paint27_linear_2154_4915" x1="15.3023" y1="158.893" x2="258.904" y2="53.7645" gradientUnits="userSpaceOnUse">
<stop stop-color="#330654"/>
<stop offset="0.5" stop-color="#1E0830"/>
<stop offset="0.75" stop-color="#5B1C92"/>
<stop offset="1" stop-color="#613F80"/>
</linearGradient>
<linearGradient id="paint28_linear_2154_4915" x1="7.76788" y1="152.874" x2="253.655" y2="61.7067" gradientUnits="userSpaceOnUse">
<stop stop-color="#330654"/>
<stop offset="0.5" stop-color="#1E0830"/>
<stop offset="0.75" stop-color="#5B1C92"/>
<stop offset="1" stop-color="#613F80"/>
</linearGradient>
<linearGradient id="paint29_linear_2154_4915" x1="0.612245" y1="146.879" x2="247.999" y2="69.622" gradientUnits="userSpaceOnUse">
<stop stop-color="#330654"/>
<stop offset="0.5" stop-color="#1E0830"/>
<stop offset="0.75" stop-color="#5B1C92"/>
<stop offset="1" stop-color="#613F80"/>
</linearGradient>
<linearGradient id="paint30_linear_2154_4915" x1="-6.17041" y1="140.93" x2="241.942" y2="77.488" gradientUnits="userSpaceOnUse">
<stop stop-color="#330654"/>
<stop offset="0.5" stop-color="#1E0830"/>
<stop offset="0.75" stop-color="#5B1C92"/>
<stop offset="1" stop-color="#613F80"/>
</linearGradient>
<linearGradient id="paint31_linear_2154_4915" x1="-12.5869" y1="135.048" x2="235.492" y2="85.2825" gradientUnits="userSpaceOnUse">
<stop stop-color="#330654"/>
<stop offset="0.5" stop-color="#1E0830"/>
<stop offset="0.75" stop-color="#5B1C92"/>
<stop offset="1" stop-color="#613F80"/>
</linearGradient>
<linearGradient id="paint32_linear_2154_4915" x1="-18.6452" y1="129.252" x2="228.656" y2="92.9841" gradientUnits="userSpaceOnUse">
<stop stop-color="#330654"/>
<stop offset="0.5" stop-color="#1E0830"/>
<stop offset="0.75" stop-color="#5B1C92"/>
<stop offset="1" stop-color="#613F80"/>
</linearGradient>
<linearGradient id="paint33_linear_2154_4915" x1="-24.3543" y1="123.561" x2="221.445" y2="100.572" gradientUnits="userSpaceOnUse">
<stop stop-color="#330654"/>
<stop offset="0.5" stop-color="#1E0830"/>
<stop offset="0.75" stop-color="#5B1C92"/>
<stop offset="1" stop-color="#613F80"/>
</linearGradient>
<linearGradient id="paint34_linear_2154_4915" x1="-29.7243" y1="117.995" x2="213.87" y2="108.027" gradientUnits="userSpaceOnUse">
<stop stop-color="#330654"/>
<stop offset="0.5" stop-color="#1E0830"/>
<stop offset="0.75" stop-color="#5B1C92"/>
<stop offset="1" stop-color="#613F80"/>
</linearGradient>
<linearGradient id="paint35_linear_2154_4915" x1="-34.7662" y1="112.57" x2="205.941" y2="115.33" gradientUnits="userSpaceOnUse">
<stop stop-color="#330654"/>
<stop offset="0.5" stop-color="#1E0830"/>
<stop offset="0.75" stop-color="#5B1C92"/>
<stop offset="1" stop-color="#613F80"/>
</linearGradient>
<linearGradient id="paint36_linear_2154_4915" x1="-39.4919" y1="107.304" x2="197.673" y2="122.462" gradientUnits="userSpaceOnUse">
<stop stop-color="#330654"/>
<stop offset="0.5" stop-color="#1E0830"/>
<stop offset="0.75" stop-color="#5B1C92"/>
<stop offset="1" stop-color="#613F80"/>
</linearGradient>
<linearGradient id="paint37_linear_2154_4915" x1="-43.9142" y1="102.213" x2="189.079" y2="129.406" gradientUnits="userSpaceOnUse">
<stop stop-color="#330654"/>
<stop offset="0.5" stop-color="#1E0830"/>
<stop offset="0.75" stop-color="#5B1C92"/>
<stop offset="1" stop-color="#613F80"/>
</linearGradient>
<linearGradient id="paint38_linear_2154_4915" x1="-48.0467" y1="97.3117" x2="180.173" y2="136.145" gradientUnits="userSpaceOnUse">
<stop stop-color="#330654"/>
<stop offset="0.5" stop-color="#1E0830"/>
<stop offset="0.75" stop-color="#5B1C92"/>
<stop offset="1" stop-color="#613F80"/>
</linearGradient>
<linearGradient id="paint39_linear_2154_4915" x1="-51.9038" y1="92.6147" x2="170.971" y2="142.665" gradientUnits="userSpaceOnUse">
<stop stop-color="#330654"/>
<stop offset="0.5" stop-color="#1E0830"/>
<stop offset="0.75" stop-color="#5B1C92"/>
<stop offset="1" stop-color="#613F80"/>
</linearGradient>
<linearGradient id="paint40_linear_2154_4915" x1="-55.5004" y1="88.1351" x2="161.489" y2="148.952" gradientUnits="userSpaceOnUse">
<stop stop-color="#330654"/>
<stop offset="0.5" stop-color="#1E0830"/>
<stop offset="0.75" stop-color="#5B1C92"/>
<stop offset="1" stop-color="#613F80"/>
</linearGradient>
<linearGradient id="paint41_linear_2154_4915" x1="-58.8523" y1="83.8852" x2="151.744" y2="154.992" gradientUnits="userSpaceOnUse">
<stop stop-color="#330654"/>
<stop offset="0.5" stop-color="#1E0830"/>
<stop offset="0.75" stop-color="#5B1C92"/>
<stop offset="1" stop-color="#613F80"/>
</linearGradient>
<linearGradient id="paint42_linear_2154_4915" x1="-61.9756" y1="79.8762" x2="141.754" y2="160.772" gradientUnits="userSpaceOnUse">
<stop stop-color="#330654"/>
<stop offset="0.5" stop-color="#1E0830"/>
<stop offset="0.75" stop-color="#5B1C92"/>
<stop offset="1" stop-color="#613F80"/>
</linearGradient>
<linearGradient id="paint43_linear_2154_4915" x1="-64.8871" y1="76.1181" x2="131.535" y2="166.283" gradientUnits="userSpaceOnUse">
<stop stop-color="#330654"/>
<stop offset="0.5" stop-color="#1E0830"/>
<stop offset="0.75" stop-color="#5B1C92"/>
<stop offset="1" stop-color="#613F80"/>
</linearGradient>
<linearGradient id="paint44_linear_2154_4915" x1="-67.6037" y1="72.6201" x2="121.107" y2="171.515" gradientUnits="userSpaceOnUse">
<stop stop-color="#330654"/>
<stop offset="0.5" stop-color="#1E0830"/>
<stop offset="0.75" stop-color="#5B1C92"/>
<stop offset="1" stop-color="#613F80"/>
</linearGradient>
<linearGradient id="paint45_linear_2154_4915" x1="-70.1431" y1="69.3901" x2="110.489" y2="176.458" gradientUnits="userSpaceOnUse">
<stop stop-color="#330654"/>
<stop offset="0.5" stop-color="#1E0830"/>
<stop offset="0.75" stop-color="#5B1C92"/>
<stop offset="1" stop-color="#613F80"/>
</linearGradient>
<linearGradient id="paint46_linear_2154_4915" x1="-72.523" y1="66.4349" x2="99.6991" y2="181.106" gradientUnits="userSpaceOnUse">
<stop stop-color="#330654"/>
<stop offset="0.5" stop-color="#1E0830"/>
<stop offset="0.75" stop-color="#5B1C92"/>
<stop offset="1" stop-color="#613F80"/>
</linearGradient>
<linearGradient id="paint47_linear_2154_4915" x1="-74.7613" y1="63.7603" x2="88.757" y2="185.452" gradientUnits="userSpaceOnUse">
<stop stop-color="#330654"/>
<stop offset="0.5" stop-color="#1E0830"/>
<stop offset="0.75" stop-color="#5B1C92"/>
<stop offset="1" stop-color="#613F80"/>
</linearGradient>
<linearGradient id="paint48_linear_2154_4915" x1="-76.8761" y1="61.3708" x2="77.6823" y2="189.491" gradientUnits="userSpaceOnUse">
<stop stop-color="#330654"/>
<stop offset="0.5" stop-color="#1E0830"/>
<stop offset="0.75" stop-color="#5B1C92"/>
<stop offset="1" stop-color="#613F80"/>
</linearGradient>
<linearGradient id="paint49_linear_2154_4915" x1="-78.8859" y1="59.27" x2="66.4944" y2="193.221" gradientUnits="userSpaceOnUse">
<stop stop-color="#330654"/>
<stop offset="0.5" stop-color="#1E0830"/>
<stop offset="0.75" stop-color="#5B1C92"/>
<stop offset="1" stop-color="#613F80"/>
</linearGradient>
<linearGradient id="paint50_linear_2154_4915" x1="-80.8087" y1="57.4602" x2="55.2132" y2="196.637" gradientUnits="userSpaceOnUse">
<stop stop-color="#330654"/>
<stop offset="0.5" stop-color="#1E0830"/>
<stop offset="0.75" stop-color="#5B1C92"/>
<stop offset="1" stop-color="#613F80"/>
</linearGradient>
<linearGradient id="paint51_linear_2154_4915" x1="-82.6626" y1="55.9426" x2="43.858" y2="199.74" gradientUnits="userSpaceOnUse">
<stop stop-color="#330654"/>
<stop offset="0.5" stop-color="#1E0830"/>
<stop offset="0.75" stop-color="#5B1C92"/>
<stop offset="1" stop-color="#613F80"/>
</linearGradient>
<linearGradient id="paint52_linear_2154_4915" x1="-84.466" y1="54.7174" x2="32.4483" y2="202.528" gradientUnits="userSpaceOnUse">
<stop stop-color="#330654"/>
<stop offset="0.5" stop-color="#1E0830"/>
<stop offset="0.75" stop-color="#5B1C92"/>
<stop offset="1" stop-color="#613F80"/>
</linearGradient>
<linearGradient id="paint53_linear_2154_4915" x1="-86.2365" y1="53.7836" x2="21.0033" y2="205.002" gradientUnits="userSpaceOnUse">
<stop stop-color="#330654"/>
<stop offset="0.5" stop-color="#1E0830"/>
<stop offset="0.75" stop-color="#5B1C92"/>
<stop offset="1" stop-color="#613F80"/>
</linearGradient>
<linearGradient id="paint54_linear_2154_4915" x1="-87.9918" y1="53.1393" x2="9.54206" y2="207.166" gradientUnits="userSpaceOnUse">
<stop stop-color="#330654"/>
<stop offset="0.5" stop-color="#1E0830"/>
<stop offset="0.75" stop-color="#5B1C92"/>
<stop offset="1" stop-color="#613F80"/>
</linearGradient>
<linearGradient id="paint55_linear_2154_4915" x1="-89.7494" y1="52.7815" x2="-1.91684" y2="209.022" gradientUnits="userSpaceOnUse">
<stop stop-color="#330654"/>
<stop offset="0.5" stop-color="#1E0830"/>
<stop offset="0.75" stop-color="#5B1C92"/>
<stop offset="1" stop-color="#613F80"/>
</linearGradient>
<linearGradient id="paint56_linear_2154_4915" x1="-91.5261" y1="52.706" x2="-13.3551" y2="210.574" gradientUnits="userSpaceOnUse">
<stop stop-color="#330654"/>
<stop offset="0.5" stop-color="#1E0830"/>
<stop offset="0.75" stop-color="#5B1C92"/>
<stop offset="1" stop-color="#613F80"/>
</linearGradient>
<linearGradient id="paint57_linear_2154_4915" x1="-93.3385" y1="52.9079" x2="-24.755" y2="211.828" gradientUnits="userSpaceOnUse">
<stop stop-color="#330654"/>
<stop offset="0.5" stop-color="#1E0830"/>
<stop offset="0.75" stop-color="#5B1C92"/>
<stop offset="1" stop-color="#613F80"/>
</linearGradient>
</defs>
</svg>
