<svg width="123" height="115" viewBox="0 0 123 115" fill="none" xmlns="http://www.w3.org/2000/svg">
<g id="Group 229">
<path id="Vector 20" d="M118.772 22.4914L118.772 51.0459H107.872C101.059 51.0459 94.4141 60.037 95.0954 68.7597C95.6404 75.7379 102.544 83.1566 108.212 83.1566H118.772L118.772 111.615C118.772 113.739 117.41 114.27 116.728 114.27C81.9829 114.143 11.3335 113.89 6.70073 113.89C2.06799 113.89 0.455611 109.339 0.228516 107.064C0.228516 76.9768 0.296644 15.134 0.569159 8.45919C0.841673 1.78442 5.45171 0.115723 7.72266 0.115723H108.212C110.12 0.115723 110.824 1.88555 110.938 2.77046V8.45919H11.8104C10.7884 8.71203 8.60831 10.1279 8.06329 13.7687C7.51826 17.4095 10.7884 19.0782 12.4916 19.4574H116.047C118.227 19.4574 118.772 21.4801 118.772 22.4914Z" fill="url(#paint0_linear_1205_1073)"/>
<path id="Subtract" fill-rule="evenodd" clip-rule="evenodd" d="M120.832 56.6238H108.229C106.412 56.6238 101.074 58.52 100.734 65.3465C100.395 72.173 105.049 76.0919 108.229 77.1032H120.491C121.173 76.9768 122.535 76.3447 122.535 74.8277V58.8993C122.535 58.1408 122.195 56.6238 120.832 56.6238ZM110.596 70.277C112.665 70.277 114.343 68.4092 114.343 66.1052C114.343 63.8012 112.665 61.9335 110.596 61.9335C108.526 61.9335 106.849 63.8012 106.849 66.1052C106.849 68.4092 108.526 70.277 110.596 70.277Z" fill="url(#paint1_linear_1205_1073)"/>
</g>
<defs>
<linearGradient id="paint0_linear_1205_1073" x1="59.5004" y1="0.115723" x2="59.5004" y2="114.27" gradientUnits="userSpaceOnUse">
<stop offset="1" stop-color="white"/>
</linearGradient>
<linearGradient id="paint1_linear_1205_1073" x1="111.626" y1="56.6238" x2="111.626" y2="77.1032" gradientUnits="userSpaceOnUse">
<stop offset="0.58" stop-color="#B1C0D8"/>
<stop offset="1" stop-color="#8875D8"/>
</linearGradient>
</defs>
</svg>
