<svg width="2459" height="1435" viewBox="0 0 2459 1435" fill="none" xmlns="http://www.w3.org/2000/svg">
<g clip-path="url(#clip0_1864_19921)">
<g clip-path="url(#clip1_1864_19921)">
<path opacity="0.0144928" d="M2192.45 1411.82L2417.23 1131.16C2421.27 1126.12 2423.16 1119.69 2422.48 1113.27L2368.61 603.632C2368.07 598.582 2365.98 593.823 2362.63 590.012L2065.47 252.699C2059.39 245.79 2049.94 242.877 2041.02 245.158L1736.74 322.962C1727.82 325.243 1720.93 332.333 1718.91 341.315L1620.14 779.865C1619.03 784.819 1619.48 789.997 1621.43 794.684L1818.81 1267.63C1821.3 1273.59 1826.04 1278.32 1832 1280.81L2163.91 1419.11C2173.98 1423.31 2185.63 1420.34 2192.45 1411.82Z" stroke="url(#paint0_linear_1864_19921)"/>
<path opacity="0.0289855" d="M2136.65 1416.97L2374.54 1150.76C2378.85 1145.94 2381.07 1139.61 2380.73 1133.15L2354.1 626.061C2353.83 620.974 2351.99 616.097 2348.82 612.109L2071.65 263.099C2065.93 255.898 2056.66 252.506 2047.64 254.315L1741.53 315.722C1732.51 317.531 1725.27 324.236 1722.77 333.085L1601.65 761.994C1600.26 766.896 1600.44 772.107 1602.16 776.903L1773.16 1255.03C1775.34 1261.12 1779.84 1266.1 1785.67 1268.89L2107.82 1422.75C2117.65 1427.45 2129.4 1425.09 2136.65 1416.97Z" stroke="url(#paint1_linear_1864_19921)"/>
<path opacity="0.0434783" d="M2081.04 1420.4L2331.14 1169.23C2335.71 1164.64 2338.27 1158.43 2338.28 1151.95L2338.46 648.849C2338.47 643.74 2336.87 638.758 2333.9 634.6L2077.11 275.052C2071.77 267.578 2062.71 263.718 2053.62 265.05L1746.55 310.084C1737.46 311.416 1729.88 317.718 1726.91 326.409L1584.18 744.55C1582.53 749.385 1582.43 754.615 1583.9 759.508L1728.53 1241.37C1730.39 1247.57 1734.64 1252.79 1740.33 1255.87L2052.01 1424.65C2061.56 1429.83 2073.38 1428.09 2081.04 1420.4Z" stroke="url(#paint2_linear_1864_19921)"/>
<path opacity="0.057971" d="M2025.71 1422.12L2287.1 1186.53C2291.92 1182.19 2294.82 1176.11 2295.16 1169.64L2321.68 671.932C2321.95 666.815 2320.61 661.74 2317.85 657.424L2081.79 288.503C2076.84 280.778 2068 276.461 2058.87 277.315L1751.7 306.043C1742.57 306.897 1734.68 312.779 1731.26 321.287L1567.7 727.583C1565.78 732.337 1565.41 737.571 1566.63 742.55L1684.97 1226.71C1686.51 1233.01 1690.49 1238.44 1696.03 1241.81L1996.57 1424.85C2005.82 1430.48 2017.67 1429.37 2025.71 1422.12Z" stroke="url(#paint3_linear_1864_19921)"/>
<path opacity="0.0724638" d="M1970.76 1422.18L2242.5 1202.65C2247.55 1198.57 2250.77 1192.65 2251.46 1186.19L2303.74 695.247C2304.29 690.135 2303.21 684.981 2300.66 680.515L2085.6 303.397C2081.06 295.441 2072.46 290.68 2063.31 291.055L1756.92 303.592C1747.77 303.966 1739.59 309.414 1735.72 317.714L1552.18 711.142C1550.01 715.801 1549.35 721.025 1550.31 726.076L1642.53 1211.11C1643.74 1217.49 1647.44 1223.13 1652.81 1226.78L1941.58 1423.37C1950.5 1429.45 1962.36 1428.97 1970.76 1422.18Z" stroke="url(#paint4_linear_1864_19921)"/>
<path opacity="0.0869565" d="M1916.26 1420.6L2197.39 1217.57C2202.67 1213.77 2206.21 1208.01 2207.24 1201.59L2284.65 718.729C2285.47 713.637 2284.65 708.417 2282.33 703.813L2088.47 319.673C2084.35 311.507 2076.02 306.317 2066.88 306.212L1762.1 302.718C1752.95 302.613 1744.51 307.611 1740.2 315.68L1537.59 695.274C1535.16 699.824 1534.23 705.024 1534.93 710.133L1601.25 1194.64C1602.13 1201.09 1605.54 1206.92 1610.73 1210.85L1887.12 1420.27C1895.71 1426.77 1907.53 1426.91 1916.26 1420.6Z" stroke="url(#paint5_linear_1864_19921)"/>
<path opacity="0.101449" d="M1862.31 1417.43L2151.85 1231.28C2157.33 1227.75 2161.19 1222.19 2162.56 1215.82L2264.4 742.314C2265.48 737.256 2264.94 731.983 2262.85 727.251L2090.34 337.265C2086.64 328.913 2078.61 323.309 2069.49 322.727L1767.16 303.404C1758.05 302.822 1749.37 307.357 1744.64 315.171L1523.88 680.023C1521.2 684.45 1520 689.611 1520.43 694.766L1561.16 1177.39C1561.71 1183.88 1564.82 1189.89 1569.81 1194.08L1833.3 1415.58C1841.52 1422.49 1853.28 1423.24 1862.31 1417.43Z" stroke="url(#paint6_linear_1864_19921)"/>
<path opacity="0.115942" d="M1808.99 1412.72L2105.95 1243.76C2111.62 1240.53 2115.77 1235.17 2117.48 1228.87L2242.98 765.938C2244.34 760.928 2244.07 755.616 2242.22 750.768L2091.13 356.108C2087.87 347.59 2080.15 341.589 2071.09 340.532L1772.03 305.628C1762.97 304.571 1754.07 308.633 1748.94 316.17L1511.03 665.431C1508.11 669.721 1506.62 674.829 1506.79 680.017L1522.31 1159.41C1522.52 1165.93 1525.33 1172.1 1530.11 1176.55L1780.18 1409.36C1788.02 1416.65 1799.68 1418.01 1808.99 1412.72Z" stroke="url(#paint7_linear_1864_19921)"/>
<path opacity="0.130435" d="M1756.37 1406.51L2059.75 1254.99C2065.6 1252.07 2070.04 1246.94 2072.08 1240.73L2220.42 789.537C2222.05 784.59 2222.06 779.252 2220.44 774.3L2090.8 376.128C2087.98 367.469 2080.59 361.088 2071.61 359.56L1776.61 309.362C1767.63 307.835 1758.55 311.412 1753.02 318.652L1498.98 651.537C1495.82 655.677 1494.06 660.717 1493.96 665.924L1484.73 1140.78C1484.6 1147.32 1487.09 1153.64 1491.64 1158.33L1727.84 1401.65C1735.28 1409.31 1746.82 1411.28 1756.37 1406.51Z" stroke="url(#paint8_linear_1864_19921)"/>
<path opacity="0.144928" d="M1704.53 1398.85L2013.33 1265C2019.34 1262.39 2024.05 1257.49 2026.42 1251.39L2196.72 813.05C2198.61 808.179 2198.9 802.83 2197.53 797.786L2089.28 397.254C2086.91 388.476 2079.87 381.734 2071 379.741L1780.83 314.578C1771.96 312.585 1762.71 315.671 1756.81 322.591L1487.7 638.379C1484.31 642.357 1482.28 647.314 1481.91 652.526L1448.43 1121.59C1447.96 1128.12 1450.13 1134.57 1454.45 1139.49L1676.37 1392.53C1683.38 1400.53 1694.76 1403.08 1704.53 1398.85Z" stroke="url(#paint9_linear_1864_19921)"/>
<path opacity="0.15942" d="M1653.54 1389.81L1966.75 1273.76C1972.9 1271.48 1977.88 1266.83 1980.57 1260.85L2171.88 836.414C2174.04 831.633 2174.6 826.287 2173.49 821.163L2086.53 419.408C2084.61 410.535 2077.94 403.451 2069.2 401.001L1784.61 321.239C1775.87 318.789 1766.49 321.374 1760.24 327.957L1477.14 625.992C1473.53 629.793 1471.23 634.654 1470.59 639.858L1413.45 1101.9C1412.64 1108.41 1414.48 1114.97 1418.55 1120.11L1625.81 1382.04C1632.4 1390.36 1643.59 1393.5 1653.54 1389.81Z" stroke="url(#paint10_linear_1864_19921)"/>
<path opacity="0.173913" d="M1603.47 1379.44L1920.07 1281.28C1926.34 1279.34 1931.57 1274.95 1934.59 1269.12L2145.94 859.568C2148.35 854.892 2149.19 849.564 2148.34 844.371L2082.5 442.514C2081.03 433.568 2074.74 426.163 2066.16 423.263L1787.89 329.308C1779.3 326.408 1769.81 328.487 1763.22 334.713L1467.25 614.406C1463.43 618.021 1460.87 622.77 1459.96 627.951L1379.79 1081.79C1378.65 1088.26 1380.15 1094.92 1383.96 1100.27L1576.26 1370.26C1582.39 1378.87 1593.37 1382.58 1603.47 1379.44Z" stroke="url(#paint11_linear_1864_19921)"/>
<path opacity="0.188406" d="M1554.38 1367.82L1873.37 1287.58C1879.75 1285.97 1885.22 1281.87 1888.54 1276.19L2118.89 882.454C2121.56 877.896 2122.68 872.599 2122.09 867.351L2077.14 466.49C2076.13 457.496 2070.24 449.79 2061.83 446.45L1790.58 338.741C1782.17 335.401 1772.6 336.97 1765.69 342.823L1457.99 603.652C1453.97 607.067 1451.15 611.691 1449.96 616.837L1347.47 1061.35C1345.99 1067.76 1347.16 1074.49 1350.7 1080.04L1527.75 1357.24C1533.43 1366.13 1544.15 1370.39 1554.38 1367.82Z" stroke="url(#paint12_linear_1864_19921)"/>
<path opacity="0.202899" d="M1506.33 1354.99L1826.7 1292.66C1833.17 1291.4 1838.86 1287.59 1842.49 1282.08L2090.78 905.013C2093.69 900.587 2095.09 895.335 2094.77 890.046L2070.42 491.255C2069.87 482.235 2064.4 474.251 2056.19 470.482L1792.62 349.494C1784.41 345.724 1774.79 346.78 1767.59 352.243L1449.31 593.757C1445.09 596.96 1442.02 601.446 1440.57 606.541L1316.5 1040.64C1314.69 1046.97 1315.51 1053.77 1318.77 1059.5L1480.36 1343.07C1485.57 1352.21 1496.01 1357 1506.33 1354.99Z" stroke="url(#paint13_linear_1864_19921)"/>
<path opacity="0.217391" d="M1459.38 1341.05L1780.15 1296.53C1786.68 1295.62 1792.58 1292.12 1796.5 1286.8L2061.62 927.188C2064.77 922.907 2066.45 917.716 2066.4 912.397L2062.31 516.724C2062.22 507.703 2057.18 499.463 2049.19 495.276L1793.95 361.516C1785.96 357.328 1776.31 357.871 1768.84 362.928L1441.16 584.743C1436.76 587.724 1433.44 592.058 1431.72 597.089L1286.89 1019.74C1284.75 1025.99 1285.22 1032.83 1288.2 1038.73L1434.14 1327.82C1438.86 1337.17 1449 1342.49 1459.38 1341.05Z" stroke="url(#paint14_linear_1864_19921)"/>
<path opacity="0.231884" d="M1413.57 1326.04L1733.75 1299.22C1740.34 1298.67 1746.43 1295.48 1750.63 1290.37L2031.44 948.927C2034.83 944.804 2036.78 939.687 2036.99 934.353L2052.79 542.815C2053.15 533.816 2048.55 525.344 2040.8 520.752L1794.5 374.756C1786.75 370.164 1777.11 370.193 1769.39 374.831L1433.49 576.632C1428.91 579.381 1425.36 583.55 1423.37 588.503L1258.63 998.742C1256.16 1004.88 1256.29 1011.75 1258.96 1017.8L1389.12 1311.56C1393.35 1321.1 1403.17 1326.92 1413.57 1326.04Z" stroke="url(#paint15_linear_1864_19921)"/>
<path opacity="0.246377" d="M1368.96 1310.06L1687.59 1300.75C1694.21 1300.55 1700.47 1297.68 1704.94 1292.8L2000.27 970.175C2003.89 966.223 2006.11 961.193 2006.59 955.857L2041.83 569.441C2042.65 560.488 2038.49 551.806 2031.01 546.823L1794.21 389.158C1786.73 384.176 1777.12 383.692 1769.17 387.899L1426.24 569.441C1421.51 571.948 1417.72 575.939 1415.47 580.801L1231.71 977.71C1228.93 983.721 1228.7 990.603 1231.08 996.787L1345.37 1294.36C1349.1 1304.07 1358.56 1310.37 1368.96 1310.06Z" stroke="url(#paint16_linear_1864_19921)"/>
<path opacity="0.26087" d="M1325.57 1293.18L1641.71 1301.13C1648.34 1301.29 1654.76 1298.76 1659.49 1294.11L1968.15 990.882C1971.98 987.112 1974.47 982.185 1975.23 976.86L2029.41 596.517C2030.68 587.632 2026.98 578.766 2019.78 573.408L1793.04 404.665C1785.84 399.307 1776.29 398.314 1768.14 402.078L1419.37 563.187C1414.49 565.442 1410.48 569.242 1407.97 574L1206.14 956.722C1203.04 962.592 1202.46 969.466 1204.52 975.773L1302.91 1276.31C1306.13 1286.17 1315.21 1292.92 1325.57 1293.18Z" stroke="url(#paint17_linear_1864_19921)"/>
<path opacity="0.275362" d="M1283.46 1275.47L1596.17 1300.4C1602.8 1300.92 1609.36 1298.74 1614.34 1294.33L1935.1 1011C1939.15 1007.42 1941.9 1002.61 1942.93 997.313L2015.53 623.957C2017.24 615.163 2014.01 606.136 2007.12 600.419L1790.93 421.215C1784.04 415.498 1774.57 414.001 1766.24 417.312L1412.82 557.88C1407.81 559.875 1403.59 563.472 1400.83 568.112L1181.88 935.854C1178.48 941.566 1177.55 948.415 1179.3 954.829L1261.77 1257.49C1264.49 1267.46 1273.17 1274.65 1283.46 1275.47Z" stroke="url(#paint18_linear_1864_19921)"/>
<path opacity="0.289855" d="M1242.66 1257.02L1551.04 1298.58C1557.64 1299.47 1564.31 1297.63 1569.53 1293.49L1901.18 1030.48C1905.43 1027.11 1908.44 1022.43 1909.74 1017.17L2000.17 651.675C2002.32 642.994 1999.57 633.832 1992.99 627.773L1787.84 438.747C1781.26 432.687 1771.9 430.692 1763.43 433.542L1406.54 553.53C1401.41 555.257 1396.99 558.64 1393.98 563.148L1158.94 915.179C1155.24 920.718 1153.96 927.523 1155.38 934.029L1222 1237.98C1224.2 1248.04 1232.45 1255.64 1242.66 1257.02Z" stroke="url(#paint19_linear_1864_19921)"/>
<path opacity="0.304348" d="M1203.18 1237.9L1506.36 1295.71C1512.91 1296.96 1519.69 1295.48 1525.13 1291.62L1866.43 1049.28C1870.86 1046.13 1874.13 1041.59 1875.7 1036.38L1983.34 679.585C1985.92 671.04 1983.65 661.768 1977.41 655.384L1783.71 457.195C1777.48 450.811 1768.26 448.326 1759.66 450.708L1400.48 550.145C1395.24 551.597 1390.63 554.754 1387.38 559.118L1137.28 894.77C1133.29 900.12 1131.66 906.864 1132.76 913.444L1183.6 1217.87C1185.29 1227.98 1193.1 1235.98 1203.18 1237.9Z" stroke="url(#paint20_linear_1864_19921)"/>
<path opacity="0.318841" d="M1165.05 1218.19L1462.18 1291.82C1468.67 1293.43 1475.53 1292.32 1481.18 1288.74L1830.87 1067.36C1835.49 1064.44 1839 1060.06 1840.84 1054.91L1965.04 707.604C1968.04 699.215 1966.25 689.859 1960.37 683.17L1778.52 476.494C1772.64 469.805 1763.59 466.839 1754.88 468.746L1394.59 547.727C1389.25 548.897 1384.46 551.818 1380.97 556.026L1116.88 874.696C1112.61 879.842 1110.63 886.507 1111.4 893.147L1146.61 1197.23C1147.78 1207.38 1155.14 1215.73 1165.05 1218.19Z" stroke="url(#paint21_linear_1864_19921)"/>
<path opacity="0.333333" d="M1128.3 1197.98L1418.56 1286.96C1424.96 1288.92 1431.89 1288.18 1437.73 1284.9L1794.57 1084.69C1799.36 1082 1803.1 1077.79 1805.21 1072.72L1945.28 735.646C1948.69 727.435 1947.39 718.019 1941.87 711.045L1772.23 496.575C1766.72 489.601 1757.85 486.163 1749.08 487.593L1388.81 546.278C1383.39 547.16 1378.43 549.834 1374.71 553.873L1097.7 855.024C1093.17 859.953 1090.85 866.522 1091.29 873.204L1111.03 1176.15C1111.69 1186.31 1118.57 1195 1128.3 1197.98Z" stroke="url(#paint22_linear_1864_19921)"/>
<path opacity="0.347826" d="M1092.93 1177.35L1375.53 1281.15C1381.83 1283.46 1388.8 1283.09 1394.82 1280.13L1757.57 1101.21C1762.51 1098.78 1766.49 1094.74 1768.85 1089.77L1924.07 763.629C1927.88 755.616 1927.07 746.167 1921.93 738.928L1764.81 517.369C1759.68 510.13 1751.03 506.234 1742.21 507.182L1383.08 545.795C1377.6 546.384 1372.48 548.802 1368.55 552.66L1079.73 835.822C1074.94 840.519 1072.28 846.974 1072.38 853.682L1076.88 1154.72C1077.03 1164.86 1083.41 1173.85 1092.93 1177.35Z" stroke="url(#paint23_linear_1864_19921)"/>
<path opacity="0.362319" d="M1058.94 1156.38L1333.15 1274.45C1339.33 1277.11 1346.32 1277.11 1352.5 1274.46L1719.91 1116.91C1725 1114.73 1729.19 1110.89 1731.82 1106.02L1901.43 791.471C1905.63 783.675 1905.3 774.218 1900.56 766.736L1756.23 538.806C1751.49 531.324 1743.08 526.981 1734.24 527.448L1377.37 546.273C1371.84 546.564 1366.58 548.718 1362.43 552.382L1062.92 817.153C1057.88 821.604 1054.89 827.929 1054.66 834.646L1044.15 1133.01C1043.79 1143.1 1049.67 1152.38 1058.94 1156.38Z" stroke="url(#paint24_linear_1864_19921)"/>
<path opacity="0.376812" d="M1026.36 1135.14L1291.46 1266.89C1297.49 1269.89 1304.48 1270.27 1310.81 1267.95L1681.65 1131.75C1686.87 1129.84 1691.28 1126.21 1694.16 1121.45L1877.37 819.092C1881.95 811.533 1882.11 802.093 1877.78 794.389L1746.47 560.815C1742.14 553.111 1733.99 548.337 1725.15 548.321L1371.62 547.704C1366.06 547.695 1360.66 549.575 1356.31 553.036L1047.22 799.077C1041.95 803.271 1038.64 809.448 1038.07 816.158L1012.85 1111.11C1011.99 1121.14 1017.35 1130.66 1026.36 1135.14Z" stroke="url(#paint25_linear_1864_19921)"/>
<path opacity="0.391304" d="M995.165 1113.73L1250.48 1258.53C1256.35 1261.85 1263.33 1262.62 1269.78 1260.63L1642.84 1145.71C1648.17 1144.07 1652.78 1140.65 1655.91 1136.03L1851.94 846.416C1856.88 839.112 1857.52 829.715 1853.6 821.811L1735.51 583.326C1731.6 575.422 1723.74 570.232 1714.93 569.736L1365.77 550.08C1360.2 549.767 1354.68 551.365 1350.14 554.612L1032.61 781.654C1027.12 785.578 1023.49 791.592 1022.58 798.277L982.976 1089.11C981.624 1099.04 986.451 1108.79 995.165 1113.73Z" stroke="url(#paint26_linear_1864_19921)"/>
<path opacity="0.405797" d="M965.36 1092.22L1210.26 1249.4C1215.95 1253.05 1222.9 1254.19 1229.45 1252.55L1603.52 1158.76C1608.96 1157.4 1613.77 1154.21 1617.14 1149.73L1825.15 873.367C1830.44 866.335 1831.55 857.006 1828.07 848.925L1723.34 606.266C1719.86 598.186 1712.3 592.596 1703.56 591.624L1359.78 553.388C1354.21 552.768 1348.59 554.078 1343.87 557.1L1019.02 764.939C1013.33 768.582 1009.39 774.417 1008.15 781.061L954.513 1067.08C952.675 1076.89 956.965 1086.83 965.36 1092.22Z" stroke="url(#paint27_linear_1864_19921)"/>
<path opacity="0.42029" d="M936.933 1070.68L1170.83 1239.56C1176.33 1243.53 1183.21 1245.04 1189.86 1243.75L1563.77 1170.88C1569.3 1169.8 1574.28 1166.85 1577.89 1162.53L1797.04 899.87C1802.66 893.128 1804.25 883.89 1801.2 875.657L1709.95 629.563C1706.9 621.329 1699.68 615.359 1691.02 613.914L1353.61 557.611C1348.05 556.684 1342.35 557.699 1337.45 560.486L1006.42 748.984C1000.53 752.336 996.298 757.975 994.718 764.562L927.45 1045.11C925.134 1054.77 928.88 1064.87 936.933 1070.68Z" stroke="url(#paint28_linear_1864_19921)"/>
<path opacity="0.434783" d="M909.869 1049.2L1132.22 1229.06C1137.5 1233.33 1144.31 1235.22 1151.03 1234.28L1523.62 1182.05C1529.22 1181.26 1534.38 1178.56 1538.22 1174.4L1767.65 925.857C1773.59 919.419 1775.65 910.298 1773.04 901.935L1695.34 653.146C1692.73 644.783 1685.85 638.451 1677.3 636.539L1347.2 562.731C1341.68 561.497 1335.9 562.212 1330.84 564.755L994.749 733.838C988.686 736.889 984.16 742.317 982.25 748.83L901.767 1023.26C898.984 1032.75 902.18 1042.98 909.869 1049.2Z" stroke="url(#paint29_linear_1864_19921)"/>
<path opacity="0.449275" d="M884.149 1027.86L1094.46 1217.95C1099.5 1222.51 1106.21 1224.77 1112.99 1224.19L1483.13 1192.25C1488.8 1191.77 1494.12 1189.32 1498.18 1185.34L1737.03 951.258C1743.27 945.14 1745.78 936.159 1743.62 927.691L1679.5 676.944C1677.34 668.475 1670.82 661.802 1662.41 659.431L1340.51 568.73C1335.04 567.188 1329.2 567.597 1324 569.888L983.954 719.548C977.73 722.288 972.924 727.492 970.687 733.914L877.441 1001.63C874.202 1010.92 876.845 1021.26 884.149 1027.86Z" stroke="url(#paint30_linear_1864_19921)"/>
<path opacity="0.463768" d="M859.751 1006.72L1057.56 1206.28C1062.35 1211.12 1068.95 1213.75 1075.76 1213.52L1442.37 1201.49C1448.08 1201.3 1453.54 1199.12 1457.82 1195.33L1705.21 976.011C1711.74 970.226 1714.7 961.409 1712.98 952.859L1662.44 700.887C1660.72 692.338 1654.59 685.344 1646.34 682.523L1333.5 575.585C1328.09 573.738 1322.21 573.837 1316.87 575.866L973.981 706.157C967.611 708.578 962.536 713.542 959.977 719.858L854.445 980.272C850.764 989.356 852.851 999.76 859.751 1006.72Z" stroke="url(#paint31_linear_1864_19921)"/>
<path opacity="0.478261" d="M836.646 985.859L1021.54 1194.11C1026.08 1199.22 1032.54 1202.2 1039.36 1202.34L1401.38 1209.74C1407.12 1209.86 1412.72 1207.96 1417.2 1204.37L1672.26 1000.05C1679.05 994.613 1682.45 985.982 1681.18 977.375L1644.16 724.906C1642.9 716.299 1637.16 709.006 1629.1 705.746L1326.11 583.27C1320.79 581.119 1314.88 580.905 1309.42 582.665L964.77 693.703C958.27 695.797 952.939 700.508 950.063 706.701L832.747 959.271C828.637 968.12 830.169 978.563 836.646 985.859Z" stroke="url(#paint32_linear_1864_19921)"/>
<path opacity="0.492754" d="M814.805 965.345L986.433 1181.48C990.688 1186.84 996.991 1190.17 1003.82 1190.68L1360.22 1217C1365.98 1217.43 1371.7 1215.81 1376.37 1212.43L1638.22 1023.32C1645.25 1018.24 1649.07 1009.82 1648.26 1001.18L1624.67 748.932C1623.86 740.292 1618.55 732.724 1610.69 729.036L1318.32 591.761C1313.1 589.309 1307.18 588.778 1301.61 590.263L956.261 682.221C949.648 683.982 944.074 688.428 940.886 694.483L812.313 938.696C807.789 947.288 808.767 957.74 814.805 965.345Z" stroke="url(#paint33_linear_1864_19921)"/>
<path opacity="0.507246" d="M794.193 945.244L952.241 1168.45C956.204 1174.05 962.33 1177.73 969.132 1178.6L1318.96 1223.28C1324.71 1224.01 1330.53 1222.68 1335.4 1219.53L1603.14 1045.77C1610.4 1041.06 1614.63 1032.87 1614.28 1024.22L1604 772.898C1603.64 764.25 1598.75 756.43 1591.13 752.327L1310.09 601.027C1304.98 598.278 1299.07 597.43 1293.4 598.632L948.393 671.743C941.685 673.165 935.879 677.333 932.387 683.234L793.104 918.609C788.182 926.926 788.609 937.358 794.193 945.244Z" stroke="url(#paint34_linear_1864_19921)"/>
<path opacity="0.521739" d="M774.772 925.623L918.977 1155.08C922.634 1160.9 928.566 1164.91 935.326 1166.15L1277.63 1228.57C1283.36 1229.61 1289.28 1228.58 1294.32 1225.65L1567.08 1067.35C1574.55 1063.01 1579.18 1055.07 1579.28 1046.44L1582.15 796.739C1582.25 788.107 1577.79 780.06 1570.43 775.556L1301.37 611.039C1296.4 607.998 1290.5 606.83 1284.75 607.744L941.103 662.298C934.316 663.376 928.294 667.254 924.505 672.987L775.077 899.078C769.775 907.1 769.656 917.482 774.772 925.623Z" stroke="url(#paint35_linear_1864_19921)"/>
<path opacity="0.536232" d="M756.501 906.541L886.649 1141.42C889.986 1147.44 895.705 1151.78 902.404 1153.38L1236.3 1232.87C1242 1234.22 1248 1233.49 1253.21 1230.81L1530.11 1088C1537.77 1084.05 1542.79 1076.38 1543.34 1067.79L1559.15 820.391C1559.7 811.799 1555.69 803.549 1548.61 798.661L1292.13 621.763C1287.31 618.437 1281.45 616.949 1275.63 617.569L934.326 653.909C927.478 654.638 921.253 658.215 917.176 663.765L758.187 880.16C752.522 887.87 751.863 898.173 756.501 906.541Z" stroke="url(#paint36_linear_1864_19921)"/>
<path opacity="0.550725" d="M739.334 888.058L855.26 1127.51C858.267 1133.72 863.755 1138.38 870.373 1140.33L1195.03 1236.19C1200.68 1237.86 1206.74 1237.44 1212.1 1235L1492.29 1107.69C1500.11 1104.14 1505.5 1096.75 1506.49 1088.22L1535.02 843.794C1536.02 835.266 1532.47 826.838 1525.69 821.582L1282.34 633.168C1277.69 629.562 1271.88 627.754 1266 628.076L927.998 646.596C921.107 646.973 914.694 650.24 910.337 655.592L742.385 861.916C736.376 869.297 735.187 879.491 739.334 888.058Z" stroke="url(#paint37_linear_1864_19921)"/>
<path opacity="0.565217" d="M723.225 870.229L824.811 1113.42C827.477 1119.81 832.717 1124.76 839.236 1127.07L1153.86 1238.55C1159.45 1240.53 1165.56 1240.42 1171.06 1238.24L1453.68 1126.37C1461.65 1123.22 1467.38 1116.14 1468.82 1107.7L1509.8 866.886C1511.23 858.446 1508.16 849.867 1501.69 844.26L1271.97 645.216C1267.49 641.338 1261.77 639.212 1255.84 639.233L922.052 640.375C915.136 640.399 908.551 643.345 903.925 648.486L727.621 844.397C721.287 851.435 719.575 861.492 723.225 870.229Z" stroke="url(#paint38_linear_1864_19921)"/>
<path opacity="0.57971" d="M708.124 853.105L795.303 1099.2C797.618 1105.74 802.592 1110.99 808.993 1113.65L1112.86 1239.96C1118.36 1242.24 1124.5 1242.45 1130.14 1240.53L1414.35 1144.02C1422.44 1141.27 1428.51 1134.52 1430.38 1126.19L1483.51 889.612C1485.38 881.282 1482.78 872.579 1476.64 866.64L1260.99 657.872C1256.71 653.73 1251.07 651.288 1245.12 651.003L916.424 635.26C909.5 634.928 902.759 637.545 897.873 642.462L713.839 827.655C707.201 834.335 704.979 844.228 708.124 853.105Z" stroke="url(#paint39_linear_1864_19921)"/>
<path opacity="0.594203" d="M693.977 836.737L766.729 1084.9C768.683 1091.57 773.376 1097.1 779.64 1100.1L1072.06 1240.42C1077.46 1243.02 1083.62 1243.54 1089.38 1241.9L1374.37 1160.6C1382.56 1158.26 1388.94 1151.85 1391.24 1143.65L1456.19 911.917C1458.49 903.72 1456.36 894.919 1450.58 888.67L1249.36 671.099C1245.3 666.702 1239.76 663.947 1233.8 663.354L911.045 631.259C904.132 630.571 897.251 632.851 892.117 637.531L700.983 811.738C694.061 818.047 691.342 827.75 693.977 836.737Z" stroke="url(#paint40_linear_1864_19921)"/>
<path opacity="0.608696" d="M680.73 821.168L739.083 1070.58C740.669 1077.36 745.066 1083.14 751.173 1086.48L1031.53 1239.97C1036.81 1242.87 1042.98 1243.71 1048.85 1242.35L1333.8 1176.08C1342.07 1174.16 1348.75 1168.09 1351.46 1160.05L1427.87 933.747C1430.59 925.707 1428.95 916.834 1423.54 910.295L1237.08 684.855C1233.24 680.213 1227.82 677.149 1221.87 676.247L905.85 628.375C898.966 627.332 891.962 629.268 886.591 633.699L688.996 796.687C681.811 802.613 678.608 812.1 680.73 821.168Z" stroke="url(#paint41_linear_1864_19921)"/>
<path opacity="0.623188" d="M668.326 806.44L712.354 1056.27C713.565 1063.14 717.65 1069.17 723.584 1072.84L991.31 1238.63C996.461 1241.82 1002.61 1242.98 1008.57 1241.9L1292.72 1190.44C1301.04 1188.93 1308 1183.24 1311.12 1175.38L1398.61 955.054C1401.73 947.192 1400.57 938.274 1395.55 931.467L1224.11 699.102C1220.51 694.227 1215.23 690.857 1209.3 689.644L900.773 626.611C893.935 625.214 886.826 626.799 881.23 630.969L677.815 782.542C670.39 788.075 666.719 797.321 668.326 806.44Z" stroke="url(#paint42_linear_1864_19921)"/>
<path opacity="0.637681" d="M656.706 792.59L686.53 1042.03C687.36 1048.97 691.12 1055.23 696.862 1059.23L951.448 1236.41C956.452 1239.89 962.573 1241.38 968.617 1240.59L1251.19 1203.67C1259.55 1202.58 1266.76 1197.26 1270.28 1189.6L1368.43 975.792C1371.95 968.128 1371.27 959.194 1366.65 952.141L1210.43 713.8C1207.09 708.702 1201.97 705.032 1196.07 703.508L895.748 625.962C888.975 624.213 881.777 625.442 875.969 629.341L667.38 769.339C659.736 774.469 655.613 783.45 656.706 792.59Z" stroke="url(#paint43_linear_1864_19921)"/>
<path opacity="0.652174" d="M645.81 779.652L661.595 1027.91C662.04 1034.91 665.462 1041.38 670.994 1045.68L911.993 1233.34C916.832 1237.11 922.908 1238.92 929.021 1238.43L1209.29 1215.75C1217.67 1215.07 1225.11 1210.14 1229.02 1202.7L1337.38 995.916C1341.28 988.471 1341.09 979.546 1336.88 972.272L1196.04 728.905C1192.97 723.597 1188.01 719.634 1182.16 717.799L890.709 626.421C884.019 624.323 876.751 625.193 870.744 628.809L657.625 757.107C649.786 761.827 645.23 770.521 645.81 779.652Z" stroke="url(#paint44_linear_1864_19921)"/>
<path opacity="0.666667" d="M635.577 767.656L637.531 1013.95C637.587 1020.98 640.658 1027.64 645.964 1032.25L872.986 1229.45C877.645 1233.5 883.66 1235.64 889.828 1235.45L1167.09 1226.67C1175.46 1226.4 1183.12 1221.88 1187.39 1214.67L1305.51 1015.39C1309.78 1008.18 1310.08 999.293 1306.29 991.821L1180.9 744.377C1178.11 738.872 1173.35 734.622 1167.56 732.478L885.593 627.979C879.004 625.536 871.682 626.042 865.49 629.366L648.486 745.876C640.475 750.178 635.504 758.563 635.577 767.656Z" stroke="url(#paint45_linear_1864_19921)"/>
<path opacity="0.681159" d="M625.942 756.629L614.319 1000.21C613.983 1007.24 616.692 1014.08 621.755 1018.98L834.472 1224.78C838.935 1229.1 844.872 1231.57 851.082 1231.67L1124.66 1236.42C1133 1236.57 1140.85 1232.45 1145.48 1225.5L1272.87 1034.17C1277.5 1027.22 1278.27 1018.39 1274.92 1010.75L1165.02 760.173C1162.53 754.485 1157.97 749.957 1152.26 747.504L880.337 630.62C873.865 627.839 866.509 627.977 860.146 631.001L639.898 735.669C631.737 739.547 626.373 747.603 625.942 756.629Z" stroke="url(#paint46_linear_1864_19921)"/>
<path opacity="0.695652" d="M616.843 746.592L591.934 986.711C591.206 993.735 593.543 1000.73 598.347 1005.91L796.489 1219.36C800.742 1223.94 806.585 1226.73 812.823 1227.14L1082.07 1245.01C1090.36 1245.56 1098.38 1241.87 1103.34 1235.19L1239.51 1052.22C1244.48 1045.55 1245.72 1036.81 1242.81 1029.02L1148.38 776.25C1146.19 770.394 1141.85 765.596 1136.24 762.837L874.879 634.328C868.542 631.213 861.169 630.983 854.65 633.697L631.794 726.503C623.506 729.954 617.77 737.662 616.843 746.592Z" stroke="url(#paint47_linear_1864_19921)"/>
<path opacity="0.710145" d="M608.216 737.562L570.354 973.51C569.232 980.499 571.189 987.632 575.719 993.071L759.077 1213.22C763.104 1218.06 768.838 1221.16 775.089 1221.88L1039.38 1252.44C1047.62 1253.39 1055.77 1250.12 1061.06 1243.74L1205.48 1069.52C1210.77 1063.14 1212.47 1054.52 1210.01 1046.61L1130.97 792.564C1129.1 786.555 1124.99 781.496 1119.49 778.435L869.158 639.08C862.973 635.637 855.602 635.037 848.942 637.435L624.106 718.393C615.715 721.414 609.629 728.757 608.216 737.562Z" stroke="url(#paint48_linear_1864_19921)"/>
<path opacity="0.724638" d="M599.995 729.555L549.55 960.643C548.037 967.576 549.604 974.824 553.845 980.513L722.271 1206.41C726.058 1211.49 731.665 1214.9 737.916 1215.93L996.684 1258.72C1004.83 1260.07 1013.1 1257.22 1018.7 1251.15L1170.83 1086.04C1176.42 1079.97 1178.58 1071.49 1176.57 1063.48L1112.79 809.073C1111.25 802.928 1107.39 797.619 1102.02 794.259L863.116 644.852C857.1 641.089 849.748 640.12 842.962 642.195L616.768 711.351C608.298 713.941 601.884 720.901 599.995 729.555Z" stroke="url(#paint49_linear_1864_19921)"/>
<path opacity="0.73913" d="M592.116 722.579L529.495 948.146C527.592 955 528.762 962.343 532.701 968.266L686.104 1198.95C689.637 1204.26 695.102 1207.98 701.338 1209.33L954.033 1263.85C962.071 1265.59 970.443 1263.17 976.324 1257.43L1135.61 1101.75C1141.49 1096 1144.1 1087.69 1142.55 1079.61L1093.83 825.734C1092.63 819.469 1089.03 813.92 1083.8 810.267L856.697 651.615C850.866 647.541 843.551 646.203 836.655 647.948L609.713 705.382C601.185 707.54 594.469 714.104 592.116 722.579Z" stroke="url(#paint50_linear_1864_19921)"/>
<path opacity="0.753623" d="M584.515 716.642L510.157 936.055C507.869 942.809 508.636 950.225 512.259 956.367L650.608 1190.89C653.872 1196.42 659.179 1200.45 665.386 1202.11L911.497 1267.86C919.409 1269.98 927.855 1268 934.004 1262.59L1099.88 1116.64C1106.03 1111.23 1109.07 1103.1 1107.98 1094.98L1074.1 842.505C1073.24 836.138 1069.92 830.361 1064.85 826.418L849.845 659.34C844.214 654.964 836.956 653.259 829.966 654.67L602.873 700.49C594.312 702.217 587.318 708.371 584.515 716.642Z" stroke="url(#paint51_linear_1864_19921)"/>
<path opacity="0.768116" d="M577.126 711.745L491.506 924.403C488.836 931.035 489.196 938.502 492.491 944.846L615.81 1182.28C618.793 1188.02 623.927 1192.35 630.091 1194.32L869.142 1270.76C876.911 1273.25 885.406 1271.7 891.803 1266.64L1063.7 1130.68C1070.1 1125.62 1073.56 1117.7 1072.93 1109.57L1053.59 859.342C1053.09 852.89 1050.06 846.897 1045.16 842.672L842.509 667.991C837.094 663.323 829.91 661.253 822.842 662.324L596.182 696.672C587.611 697.971 580.364 703.703 577.126 711.745Z" stroke="url(#paint52_linear_1864_19921)"/>
<path opacity="0.782609" d="M569.886 707.887L473.506 913.222C470.461 919.71 470.409 927.206 473.365 933.735L581.738 1173.15C584.426 1179.09 589.371 1183.71 595.477 1185.99L827.032 1272.58C834.639 1275.42 843.161 1274.31 849.786 1269.62L1027.12 1143.86C1033.74 1139.16 1037.61 1131.48 1037.44 1123.36L1032.31 876.204C1032.18 869.686 1029.45 863.491 1024.73 858.99L834.637 677.531C829.453 672.583 822.362 670.152 815.232 670.88L589.576 693.923C581.016 694.797 573.542 700.098 569.886 707.887Z" stroke="url(#paint53_linear_1864_19921)"/>
<path opacity="0.797101" d="M562.732 705.061L456.124 902.54C452.711 908.863 452.245 916.365 454.85 923.062L548.414 1163.55C550.796 1169.68 555.536 1174.58 561.57 1177.18L785.23 1273.34C792.658 1276.53 801.183 1275.86 808.014 1271.53L990.19 1156.17C997.021 1151.85 1001.28 1144.43 1001.57 1136.35L1010.27 893.05C1010.51 886.485 1008.09 880.102 1003.58 875.332L826.184 687.923C821.244 682.704 814.263 679.917 807.088 680.3L582.988 692.235C574.463 692.689 566.788 697.548 562.732 705.061Z" stroke="url(#paint54_linear_1864_19921)"/>
<path opacity="0.811594" d="M555.603 703.259L439.323 892.382C435.55 898.519 434.669 906.005 436.914 912.85L515.86 1153.54C517.923 1159.83 522.443 1165.01 528.391 1167.92L743.794 1273.07C751.027 1276.6 759.533 1276.36 766.548 1272.41L952.972 1167.61C959.988 1163.67 964.619 1156.53 965.362 1148.52L987.473 909.838C988.083 903.246 986.001 896.689 981.7 891.657L817.104 699.121C812.423 693.646 805.569 690.508 798.365 690.542L576.358 691.592C567.888 691.632 560.039 696.044 555.603 703.259Z" stroke="url(#paint55_linear_1864_19921)"/>
<path opacity="0.826087" d="M548.436 702.469L423.066 882.775C418.943 888.705 417.646 896.152 419.523 903.126L484.092 1143.14C485.825 1149.59 490.111 1155.04 495.959 1158.25L702.783 1271.82C709.804 1275.67 718.267 1275.85 725.446 1272.3L915.52 1178.18C922.699 1174.62 927.686 1167.78 928.876 1159.86L963.93 926.529C964.921 919.932 963.179 913.215 959.105 907.931L807.354 711.085C802.945 705.365 796.236 701.882 789.02 701.567L569.621 691.979C561.228 691.613 553.232 695.572 548.436 702.469Z" stroke="url(#paint56_linear_1864_19921)"/>
<path opacity="0.84058" d="M541.174 702.674L407.315 873.738C402.853 879.441 401.142 886.826 402.641 893.91L453.126 1132.42C454.519 1139 458.556 1144.72 464.29 1148.23L662.25 1269.6C669.046 1273.77 677.444 1274.37 684.763 1271.21L877.888 1187.86C885.207 1184.7 890.532 1178.18 892.162 1170.38L939.654 943.085C941.03 936.501 939.638 929.642 935.806 924.114L796.897 723.765C792.771 717.814 786.224 713.993 779.013 713.328L562.719 693.376C554.424 692.61 546.308 696.113 541.174 702.674Z" stroke="url(#paint57_linear_1864_19921)"/>
<path opacity="0.855072" d="M533.757 703.854L392.031 865.292C387.242 870.748 385.118 878.047 386.234 885.221L422.975 1121.42C424.017 1128.12 427.791 1134.09 433.397 1137.9L622.248 1266.47C628.805 1270.93 637.116 1271.95 644.553 1269.19L840.129 1196.68C847.566 1193.92 853.208 1187.73 855.27 1180.07L914.66 959.467C916.423 952.919 915.393 945.933 911.815 940.172L785.695 737.114C781.864 730.947 775.496 726.796 768.307 725.782L555.593 695.757C547.415 694.603 539.206 697.647 533.757 703.854Z" stroke="url(#paint58_linear_1864_19921)"/>
<path opacity="0.869565" d="M526.131 705.986L377.176 857.453C372.072 862.643 369.54 869.834 370.266 877.077L393.648 1110.18C394.331 1116.99 397.827 1123.2 403.291 1127.31L582.827 1262.47C589.131 1267.21 597.334 1268.63 604.865 1266.28L802.298 1204.62C809.829 1202.27 815.767 1196.43 818.25 1188.94L888.965 975.64C891.117 969.148 890.458 962.052 887.147 956.068L773.717 751.083C770.192 744.713 764.018 740.241 756.868 738.878L548.187 699.098C540.146 697.565 531.871 700.149 526.131 705.986Z" stroke="url(#paint59_linear_1864_19921)"/>
<path opacity="0.884058" d="M518.241 709.044L362.707 850.234C357.303 855.14 354.368 862.199 354.7 869.49L365.153 1098.77C365.467 1105.66 368.672 1112.1 373.981 1116.5L544.032 1257.63C550.071 1262.64 558.145 1264.46 565.748 1262.52L764.445 1211.71C772.048 1209.76 778.259 1204.3 781.151 1197L862.587 991.566C865.129 985.153 864.849 977.965 861.817 971.769L760.931 765.618C757.723 759.062 751.759 754.278 744.664 752.568L540.447 703.366C532.562 701.466 524.247 703.592 518.241 709.044Z" stroke="url(#paint60_linear_1864_19921)"/>
<path opacity="0.898551" d="M510.036 712.999L348.587 843.647C342.899 848.251 339.565 855.156 339.5 862.474L337.492 1087.21C337.43 1094.17 340.331 1100.83 345.471 1105.52L505.907 1252.02C511.67 1257.28 519.595 1259.48 527.246 1257.95L726.621 1217.95C734.273 1216.42 740.735 1211.33 744.023 1204.25L835.545 1007.21C838.477 1000.9 838.586 993.638 835.844 987.241L747.313 780.665C744.431 773.939 738.692 768.854 731.668 766.8L532.322 708.528C524.609 706.273 516.282 707.944 510.036 712.999Z" stroke="url(#paint61_linear_1864_19921)"/>
<path opacity="0.913043" d="M501.465 717.819L334.774 837.703C328.817 841.987 325.094 848.716 324.629 856.038L310.668 1075.57C310.222 1082.58 312.806 1089.45 317.764 1094.42L468.491 1245.67C473.968 1251.17 481.724 1253.75 489.4 1252.62L688.877 1223.37C696.553 1222.24 703.243 1217.55 706.911 1210.71L807.862 1022.55C811.183 1016.36 811.687 1009.04 809.247 1002.45L732.839 796.173C730.291 789.292 724.792 783.916 717.856 781.523L523.762 714.549C516.24 711.954 507.925 713.173 501.465 717.819Z" stroke="url(#paint62_linear_1864_19921)"/>
<path opacity="0.927536" d="M492.483 723.469L321.228 832.407C315.021 836.355 310.916 842.884 310.049 850.19L284.678 1063.89C283.842 1070.93 286.097 1077.99 290.86 1083.24L431.822 1238.65C437.003 1244.36 444.571 1247.3 452.25 1246.58L651.258 1227.97C658.937 1227.25 665.829 1222.96 669.861 1216.39L779.561 1037.54C783.268 1031.49 784.175 1024.14 782.048 1017.38L717.49 812.084C715.283 805.066 710.039 799.411 703.207 796.681L514.721 721.389C507.405 718.467 499.13 719.241 492.483 723.469Z" stroke="url(#paint63_linear_1864_19921)"/>
<path opacity="0.942029" d="M483.045 729.913L307.91 827.763C301.47 831.361 296.994 837.669 295.725 844.936L259.519 1052.23C258.287 1059.28 260.201 1066.52 264.757 1072.04L395.93 1231C400.808 1236.91 408.171 1240.2 415.829 1239.89L613.813 1231.78C621.47 1231.47 628.54 1227.59 632.919 1221.3L750.667 1052.15C754.756 1046.28 756.072 1038.91 754.269 1031.98L701.248 828.342C699.39 821.204 694.413 815.282 687.701 812.223L505.157 729.008C498.062 725.774 489.852 726.11 483.045 729.913Z" stroke="url(#paint64_linear_1864_19921)"/>
<path opacity="0.956522" d="M473.109 737.112L294.778 823.775C288.126 827.007 283.29 833.073 281.62 840.278L235.184 1040.62C233.551 1047.66 235.112 1055.06 239.448 1060.85L360.848 1222.78C365.415 1228.87 372.556 1232.49 380.17 1232.58L576.584 1234.83C584.198 1234.92 591.419 1231.46 596.125 1225.48L721.206 1066.37C725.674 1060.69 727.403 1053.32 725.933 1046.24L684.103 844.893C682.598 837.651 677.903 831.476 671.326 828.092L495.029 737.363C488.169 733.833 480.048 733.74 473.109 737.112Z" stroke="url(#paint65_linear_1864_19921)"/>
<path opacity="0.971014" d="M462.637 745.023L281.794 820.439C274.949 823.294 269.766 829.095 267.697 836.217L211.662 1029.11C209.625 1036.12 210.822 1043.68 214.926 1049.72L326.599 1214.05C330.85 1220.3 337.752 1224.24 345.3 1224.72L539.613 1237.14C547.161 1237.63 554.509 1234.6 559.522 1228.93L691.206 1080.16C696.045 1074.69 698.194 1067.35 697.066 1060.13L666.043 861.676C664.898 854.349 660.495 847.935 654.069 844.232L484.299 746.407C477.688 742.598 469.679 742.086 462.637 745.023Z" stroke="url(#paint66_linear_1864_19921)"/>
<path opacity="0.985507" d="M451.592 753.603L268.919 817.756C261.903 820.22 256.386 825.737 253.922 832.753L188.943 1017.75C186.499 1024.72 187.32 1032.41 191.181 1038.69L293.207 1204.85C297.137 1211.25 303.785 1215.5 311.245 1216.37L502.941 1238.74C510.401 1239.61 517.848 1237.01 523.147 1231.69L660.695 1093.49C665.899 1088.26 668.47 1080.97 667.694 1073.63L647.065 878.636C646.282 871.241 642.184 864.602 635.924 860.589L472.934 756.093C466.583 752.022 458.71 751.103 451.592 753.603Z" stroke="url(#paint67_linear_1864_19921)"/>
<path d="M439.943 762.806L256.115 815.718C248.95 817.78 243.114 822.993 240.259 829.881L167.011 1006.59C164.156 1013.48 164.593 1021.29 168.198 1027.82L260.689 1195.27C264.294 1201.79 270.674 1206.32 278.025 1207.57L466.606 1239.66C473.956 1240.91 481.476 1238.75 487.036 1233.78L629.703 1106.35C635.263 1101.38 638.26 1094.15 637.843 1086.71L627.164 895.716C626.748 888.272 622.965 881.422 616.885 877.106L460.902 766.373C454.822 762.057 447.108 760.744 439.943 762.806Z" stroke="url(#paint68_linear_1864_19921)"/>
</g>
</g>
<g opacity="0.2" filter="url(#filter0_f_1864_19921)">
<ellipse cx="432" cy="1004" rx="232" ry="231" fill="#8593E8"/>
</g>
<g opacity="0.2" filter="url(#filter1_f_1864_19921)">
<path d="M1563 899C1563 1022.16 1463.16 1122 1340 1122C1216.84 1122 1117 1022.16 1117 899C1117 775.84 1216.84 676 1340 676C1463.16 676 1563 775.84 1563 899Z" fill="#AA48FE"/>
</g>
<g opacity="0.2" filter="url(#filter2_f_1864_19921)">
<circle cx="1975.5" cy="483.5" r="233.5" fill="#5D6EF3"/>
</g>
<defs>
<filter id="filter0_f_1864_19921" x="0" y="573" width="864" height="862" filterUnits="userSpaceOnUse" color-interpolation-filters="sRGB">
<feFlood flood-opacity="0" result="BackgroundImageFix"/>
<feBlend mode="normal" in="SourceGraphic" in2="BackgroundImageFix" result="shape"/>
<feGaussianBlur stdDeviation="100" result="effect1_foregroundBlur_1864_19921"/>
</filter>
<filter id="filter1_f_1864_19921" x="917" y="476" width="846" height="846" filterUnits="userSpaceOnUse" color-interpolation-filters="sRGB">
<feFlood flood-opacity="0" result="BackgroundImageFix"/>
<feBlend mode="normal" in="SourceGraphic" in2="BackgroundImageFix" result="shape"/>
<feGaussianBlur stdDeviation="100" result="effect1_foregroundBlur_1864_19921"/>
</filter>
<filter id="filter2_f_1864_19921" x="1492" y="0" width="967" height="967" filterUnits="userSpaceOnUse" color-interpolation-filters="sRGB">
<feFlood flood-opacity="0" result="BackgroundImageFix"/>
<feBlend mode="normal" in="SourceGraphic" in2="BackgroundImageFix" result="shape"/>
<feGaussianBlur stdDeviation="125" result="effect1_foregroundBlur_1864_19921"/>
</filter>
<linearGradient id="paint0_linear_1864_19921" x1="2181.08" y1="1426.81" x2="1861.99" y2="178.914" gradientUnits="userSpaceOnUse">
<stop stop-color="#4B0082"/>
<stop offset="1" stop-color="#EAD2FF"/>
</linearGradient>
<linearGradient id="paint1_linear_1864_19921" x1="2124.53" y1="1431.29" x2="1873.43" y2="179.544" gradientUnits="userSpaceOnUse">
<stop stop-color="#4B0082"/>
<stop offset="1" stop-color="#EAD2FF"/>
</linearGradient>
<linearGradient id="paint2_linear_1864_19921" x1="2068.21" y1="1433.99" x2="1884.61" y2="182.073" gradientUnits="userSpaceOnUse">
<stop stop-color="#4B0082"/>
<stop offset="1" stop-color="#EAD2FF"/>
</linearGradient>
<linearGradient id="paint3_linear_1864_19921" x1="2012.21" y1="1434.96" x2="1895.45" y2="186.469" gradientUnits="userSpaceOnUse">
<stop stop-color="#4B0082"/>
<stop offset="1" stop-color="#EAD2FF"/>
</linearGradient>
<linearGradient id="paint4_linear_1864_19921" x1="1956.64" y1="1434.23" x2="1905.83" y2="192.696" gradientUnits="userSpaceOnUse">
<stop stop-color="#4B0082"/>
<stop offset="1" stop-color="#EAD2FF"/>
</linearGradient>
<linearGradient id="paint5_linear_1864_19921" x1="1901.56" y1="1431.84" x2="1915.68" y2="200.71" gradientUnits="userSpaceOnUse">
<stop stop-color="#4B0082"/>
<stop offset="1" stop-color="#EAD2FF"/>
</linearGradient>
<linearGradient id="paint6_linear_1864_19921" x1="1847.08" y1="1427.82" x2="1924.89" y2="210.466" gradientUnits="userSpaceOnUse">
<stop stop-color="#4B0082"/>
<stop offset="1" stop-color="#EAD2FF"/>
</linearGradient>
<linearGradient id="paint7_linear_1864_19921" x1="1793.28" y1="1422.23" x2="1933.37" y2="221.912" gradientUnits="userSpaceOnUse">
<stop stop-color="#4B0082"/>
<stop offset="1" stop-color="#EAD2FF"/>
</linearGradient>
<linearGradient id="paint8_linear_1864_19921" x1="1740.23" y1="1415.13" x2="1941.04" y2="234.99" gradientUnits="userSpaceOnUse">
<stop stop-color="#4B0082"/>
<stop offset="1" stop-color="#EAD2FF"/>
</linearGradient>
<linearGradient id="paint9_linear_1864_19921" x1="1688.01" y1="1406.56" x2="1947.81" y2="249.641" gradientUnits="userSpaceOnUse">
<stop stop-color="#4B0082"/>
<stop offset="1" stop-color="#EAD2FF"/>
</linearGradient>
<linearGradient id="paint10_linear_1864_19921" x1="1636.69" y1="1396.59" x2="1953.62" y2="265.799" gradientUnits="userSpaceOnUse">
<stop stop-color="#4B0082"/>
<stop offset="1" stop-color="#EAD2FF"/>
</linearGradient>
<linearGradient id="paint11_linear_1864_19921" x1="1586.34" y1="1385.28" x2="1958.38" y2="283.396" gradientUnits="userSpaceOnUse">
<stop stop-color="#4B0082"/>
<stop offset="1" stop-color="#EAD2FF"/>
</linearGradient>
<linearGradient id="paint12_linear_1864_19921" x1="1537.03" y1="1372.7" x2="1962.03" y2="302.361" gradientUnits="userSpaceOnUse">
<stop stop-color="#4B0082"/>
<stop offset="1" stop-color="#EAD2FF"/>
</linearGradient>
<linearGradient id="paint13_linear_1864_19921" x1="1488.81" y1="1358.91" x2="1964.51" y2="322.619" gradientUnits="userSpaceOnUse">
<stop stop-color="#4B0082"/>
<stop offset="1" stop-color="#EAD2FF"/>
</linearGradient>
<linearGradient id="paint14_linear_1864_19921" x1="1441.74" y1="1344" x2="1965.75" y2="344.09" gradientUnits="userSpaceOnUse">
<stop stop-color="#4B0082"/>
<stop offset="1" stop-color="#EAD2FF"/>
</linearGradient>
<linearGradient id="paint15_linear_1864_19921" x1="1395.88" y1="1328.03" x2="1965.7" y2="366.697" gradientUnits="userSpaceOnUse">
<stop stop-color="#4B0082"/>
<stop offset="1" stop-color="#EAD2FF"/>
</linearGradient>
<linearGradient id="paint16_linear_1864_19921" x1="1351.26" y1="1311.08" x2="1964.31" y2="390.353" gradientUnits="userSpaceOnUse">
<stop stop-color="#4B0082"/>
<stop offset="1" stop-color="#EAD2FF"/>
</linearGradient>
<linearGradient id="paint17_linear_1864_19921" x1="1307.92" y1="1293.24" x2="1961.53" y2="414.975" gradientUnits="userSpaceOnUse">
<stop stop-color="#4B0082"/>
<stop offset="1" stop-color="#EAD2FF"/>
</linearGradient>
<linearGradient id="paint18_linear_1864_19921" x1="1265.91" y1="1274.58" x2="1957.33" y2="440.476" gradientUnits="userSpaceOnUse">
<stop stop-color="#4B0082"/>
<stop offset="1" stop-color="#EAD2FF"/>
</linearGradient>
<linearGradient id="paint19_linear_1864_19921" x1="1225.25" y1="1255.18" x2="1951.68" y2="466.768" gradientUnits="userSpaceOnUse">
<stop stop-color="#4B0082"/>
<stop offset="1" stop-color="#EAD2FF"/>
</linearGradient>
<linearGradient id="paint20_linear_1864_19921" x1="1185.98" y1="1235.13" x2="1944.54" y2="493.762" gradientUnits="userSpaceOnUse">
<stop stop-color="#4B0082"/>
<stop offset="1" stop-color="#EAD2FF"/>
</linearGradient>
<linearGradient id="paint21_linear_1864_19921" x1="1148.11" y1="1214.51" x2="1935.89" y2="521.368" gradientUnits="userSpaceOnUse">
<stop stop-color="#4B0082"/>
<stop offset="1" stop-color="#EAD2FF"/>
</linearGradient>
<linearGradient id="paint22_linear_1864_19921" x1="1111.65" y1="1193.4" x2="1925.72" y2="549.495" gradientUnits="userSpaceOnUse">
<stop stop-color="#4B0082"/>
<stop offset="1" stop-color="#EAD2FF"/>
</linearGradient>
<linearGradient id="paint23_linear_1864_19921" x1="1076.63" y1="1171.9" x2="1914.01" y2="578.053" gradientUnits="userSpaceOnUse">
<stop stop-color="#4B0082"/>
<stop offset="1" stop-color="#EAD2FF"/>
</linearGradient>
<linearGradient id="paint24_linear_1864_19921" x1="1043.05" y1="1150.07" x2="1900.75" y2="606.952" gradientUnits="userSpaceOnUse">
<stop stop-color="#4B0082"/>
<stop offset="1" stop-color="#EAD2FF"/>
</linearGradient>
<linearGradient id="paint25_linear_1864_19921" x1="1010.9" y1="1128.02" x2="1885.95" y2="636.1" gradientUnits="userSpaceOnUse">
<stop stop-color="#4B0082"/>
<stop offset="1" stop-color="#EAD2FF"/>
</linearGradient>
<linearGradient id="paint26_linear_1864_19921" x1="980.196" y1="1105.81" x2="1869.6" y2="665.41" gradientUnits="userSpaceOnUse">
<stop stop-color="#4B0082"/>
<stop offset="1" stop-color="#EAD2FF"/>
</linearGradient>
<linearGradient id="paint27_linear_1864_19921" x1="950.919" y1="1083.54" x2="1851.71" y2="694.793" gradientUnits="userSpaceOnUse">
<stop stop-color="#4B0082"/>
<stop offset="1" stop-color="#EAD2FF"/>
</linearGradient>
<linearGradient id="paint28_linear_1864_19921" x1="923.058" y1="1061.28" x2="1832.3" y2="724.162" gradientUnits="userSpaceOnUse">
<stop stop-color="#4B0082"/>
<stop offset="1" stop-color="#EAD2FF"/>
</linearGradient>
<linearGradient id="paint29_linear_1864_19921" x1="896.597" y1="1039.11" x2="1811.39" y2="753.431" gradientUnits="userSpaceOnUse">
<stop stop-color="#4B0082"/>
<stop offset="1" stop-color="#EAD2FF"/>
</linearGradient>
<linearGradient id="paint30_linear_1864_19921" x1="871.516" y1="1017.11" x2="1788.99" y2="782.518" gradientUnits="userSpaceOnUse">
<stop stop-color="#4B0082"/>
<stop offset="1" stop-color="#EAD2FF"/>
</linearGradient>
<linearGradient id="paint31_linear_1864_19921" x1="847.789" y1="995.364" x2="1765.14" y2="811.341" gradientUnits="userSpaceOnUse">
<stop stop-color="#4B0082"/>
<stop offset="1" stop-color="#EAD2FF"/>
</linearGradient>
<linearGradient id="paint32_linear_1864_19921" x1="825.387" y1="973.93" x2="1739.86" y2="839.82" gradientUnits="userSpaceOnUse">
<stop stop-color="#4B0082"/>
<stop offset="1" stop-color="#EAD2FF"/>
</linearGradient>
<linearGradient id="paint33_linear_1864_19921" x1="804.276" y1="952.888" x2="1713.2" y2="867.88" gradientUnits="userSpaceOnUse">
<stop stop-color="#4B0082"/>
<stop offset="1" stop-color="#EAD2FF"/>
</linearGradient>
<linearGradient id="paint34_linear_1864_19921" x1="784.418" y1="932.305" x2="1685.18" y2="895.447" gradientUnits="userSpaceOnUse">
<stop stop-color="#4B0082"/>
<stop offset="1" stop-color="#EAD2FF"/>
</linearGradient>
<linearGradient id="paint35_linear_1864_19921" x1="765.775" y1="912.246" x2="1655.87" y2="922.451" gradientUnits="userSpaceOnUse">
<stop stop-color="#4B0082"/>
<stop offset="1" stop-color="#EAD2FF"/>
</linearGradient>
<linearGradient id="paint36_linear_1864_19921" x1="748.3" y1="892.773" x2="1625.29" y2="948.823" gradientUnits="userSpaceOnUse">
<stop stop-color="#4B0082"/>
<stop offset="1" stop-color="#EAD2FF"/>
</linearGradient>
<linearGradient id="paint37_linear_1864_19921" x1="731.947" y1="873.947" x2="1593.51" y2="974.5" gradientUnits="userSpaceOnUse">
<stop stop-color="#4B0082"/>
<stop offset="1" stop-color="#EAD2FF"/>
</linearGradient>
<linearGradient id="paint38_linear_1864_19921" x1="716.665" y1="855.823" x2="1560.58" y2="999.422" gradientUnits="userSpaceOnUse">
<stop stop-color="#4B0082"/>
<stop offset="1" stop-color="#EAD2FF"/>
</linearGradient>
<linearGradient id="paint39_linear_1864_19921" x1="702.403" y1="838.453" x2="1526.55" y2="1023.53" gradientUnits="userSpaceOnUse">
<stop stop-color="#4B0082"/>
<stop offset="1" stop-color="#EAD2FF"/>
</linearGradient>
<linearGradient id="paint40_linear_1864_19921" x1="689.103" y1="821.89" x2="1491.49" y2="1046.78" gradientUnits="userSpaceOnUse">
<stop stop-color="#4B0082"/>
<stop offset="1" stop-color="#EAD2FF"/>
</linearGradient>
<linearGradient id="paint41_linear_1864_19921" x1="676.708" y1="806.174" x2="1455.46" y2="1069.11" gradientUnits="userSpaceOnUse">
<stop stop-color="#4B0082"/>
<stop offset="1" stop-color="#EAD2FF"/>
</linearGradient>
<linearGradient id="paint42_linear_1864_19921" x1="665.159" y1="791.349" x2="1418.51" y2="1090.49" gradientUnits="userSpaceOnUse">
<stop stop-color="#4B0082"/>
<stop offset="1" stop-color="#EAD2FF"/>
</linearGradient>
<linearGradient id="paint43_linear_1864_19921" x1="654.393" y1="777.453" x2="1380.73" y2="1110.87" gradientUnits="userSpaceOnUse">
<stop stop-color="#4B0082"/>
<stop offset="1" stop-color="#EAD2FF"/>
</linearGradient>
<linearGradient id="paint44_linear_1864_19921" x1="644.347" y1="764.517" x2="1342.17" y2="1130.21" gradientUnits="userSpaceOnUse">
<stop stop-color="#4B0082"/>
<stop offset="1" stop-color="#EAD2FF"/>
</linearGradient>
<linearGradient id="paint45_linear_1864_19921" x1="634.957" y1="752.573" x2="1302.9" y2="1148.49" gradientUnits="userSpaceOnUse">
<stop stop-color="#4B0082"/>
<stop offset="1" stop-color="#EAD2FF"/>
</linearGradient>
<linearGradient id="paint46_linear_1864_19921" x1="626.157" y1="741.645" x2="1263" y2="1165.68" gradientUnits="userSpaceOnUse">
<stop stop-color="#4B0082"/>
<stop offset="1" stop-color="#EAD2FF"/>
</linearGradient>
<linearGradient id="paint47_linear_1864_19921" x1="617.88" y1="731.756" x2="1222.54" y2="1181.75" gradientUnits="userSpaceOnUse">
<stop stop-color="#4B0082"/>
<stop offset="1" stop-color="#EAD2FF"/>
</linearGradient>
<linearGradient id="paint48_linear_1864_19921" x1="610.059" y1="722.919" x2="1181.59" y2="1196.69" gradientUnits="userSpaceOnUse">
<stop stop-color="#4B0082"/>
<stop offset="1" stop-color="#EAD2FF"/>
</linearGradient>
<linearGradient id="paint49_linear_1864_19921" x1="602.628" y1="715.151" x2="1140.22" y2="1210.48" gradientUnits="userSpaceOnUse">
<stop stop-color="#4B0082"/>
<stop offset="1" stop-color="#EAD2FF"/>
</linearGradient>
<linearGradient id="paint50_linear_1864_19921" x1="595.518" y1="708.458" x2="1098.5" y2="1223.11" gradientUnits="userSpaceOnUse">
<stop stop-color="#4B0082"/>
<stop offset="1" stop-color="#EAD2FF"/>
</linearGradient>
<linearGradient id="paint51_linear_1864_19921" x1="588.662" y1="702.847" x2="1056.51" y2="1234.58" gradientUnits="userSpaceOnUse">
<stop stop-color="#4B0082"/>
<stop offset="1" stop-color="#EAD2FF"/>
</linearGradient>
<linearGradient id="paint52_linear_1864_19921" x1="581.994" y1="698.316" x2="1014.32" y2="1244.89" gradientUnits="userSpaceOnUse">
<stop stop-color="#4B0082"/>
<stop offset="1" stop-color="#EAD2FF"/>
</linearGradient>
<linearGradient id="paint53_linear_1864_19921" x1="575.446" y1="694.864" x2="972" y2="1254.04" gradientUnits="userSpaceOnUse">
<stop stop-color="#4B0082"/>
<stop offset="1" stop-color="#EAD2FF"/>
</linearGradient>
<linearGradient id="paint54_linear_1864_19921" x1="568.956" y1="692.481" x2="929.618" y2="1262.04" gradientUnits="userSpaceOnUse">
<stop stop-color="#4B0082"/>
<stop offset="1" stop-color="#EAD2FF"/>
</linearGradient>
<linearGradient id="paint55_linear_1864_19921" x1="562.457" y1="691.157" x2="887.245" y2="1268.91" gradientUnits="userSpaceOnUse">
<stop stop-color="#4B0082"/>
<stop offset="1" stop-color="#EAD2FF"/>
</linearGradient>
<linearGradient id="paint56_linear_1864_19921" x1="555.887" y1="690.879" x2="844.949" y2="1274.64" gradientUnits="userSpaceOnUse">
<stop stop-color="#4B0082"/>
<stop offset="1" stop-color="#EAD2FF"/>
</linearGradient>
<linearGradient id="paint57_linear_1864_19921" x1="549.185" y1="691.625" x2="802.794" y2="1279.28" gradientUnits="userSpaceOnUse">
<stop stop-color="#4B0082"/>
<stop offset="1" stop-color="#EAD2FF"/>
</linearGradient>
<linearGradient id="paint58_linear_1864_19921" x1="542.291" y1="693.375" x2="760.845" y2="1282.84" gradientUnits="userSpaceOnUse">
<stop stop-color="#4B0082"/>
<stop offset="1" stop-color="#EAD2FF"/>
</linearGradient>
<linearGradient id="paint59_linear_1864_19921" x1="535.148" y1="696.103" x2="719.164" y2="1285.35" gradientUnits="userSpaceOnUse">
<stop stop-color="#4B0082"/>
<stop offset="1" stop-color="#EAD2FF"/>
</linearGradient>
<linearGradient id="paint60_linear_1864_19921" x1="527.701" y1="699.781" x2="677.81" y2="1286.83" gradientUnits="userSpaceOnUse">
<stop stop-color="#4B0082"/>
<stop offset="1" stop-color="#EAD2FF"/>
</linearGradient>
<linearGradient id="paint61_linear_1864_19921" x1="519.897" y1="704.375" x2="636.84" y2="1287.33" gradientUnits="userSpaceOnUse">
<stop stop-color="#4B0082"/>
<stop offset="1" stop-color="#EAD2FF"/>
</linearGradient>
<linearGradient id="paint62_linear_1864_19921" x1="511.685" y1="709.853" x2="596.308" y2="1286.88" gradientUnits="userSpaceOnUse">
<stop stop-color="#4B0082"/>
<stop offset="1" stop-color="#EAD2FF"/>
</linearGradient>
<linearGradient id="paint63_linear_1864_19921" x1="503.018" y1="716.176" x2="556.267" y2="1285.53" gradientUnits="userSpaceOnUse">
<stop stop-color="#4B0082"/>
<stop offset="1" stop-color="#EAD2FF"/>
</linearGradient>
<linearGradient id="paint64_linear_1864_19921" x1="493.849" y1="723.304" x2="516.763" y2="1283.3" gradientUnits="userSpaceOnUse">
<stop stop-color="#4B0082"/>
<stop offset="1" stop-color="#EAD2FF"/>
</linearGradient>
<linearGradient id="paint65_linear_1864_19921" x1="484.138" y1="731.196" x2="477.843" y2="1280.26" gradientUnits="userSpaceOnUse">
<stop stop-color="#4B0082"/>
<stop offset="1" stop-color="#EAD2FF"/>
</linearGradient>
<linearGradient id="paint66_linear_1864_19921" x1="473.845" y1="739.807" x2="439.548" y2="1276.44" gradientUnits="userSpaceOnUse">
<stop stop-color="#4B0082"/>
<stop offset="1" stop-color="#EAD2FF"/>
</linearGradient>
<linearGradient id="paint67_linear_1864_19921" x1="462.935" y1="749.089" x2="401.918" y2="1271.9" gradientUnits="userSpaceOnUse">
<stop stop-color="#4B0082"/>
<stop offset="1" stop-color="#EAD2FF"/>
</linearGradient>
<linearGradient id="paint68_linear_1864_19921" x1="451.374" y1="758.996" x2="364.986" y2="1266.69" gradientUnits="userSpaceOnUse">
<stop stop-color="#4B0082"/>
<stop offset="1" stop-color="#EAD2FF"/>
</linearGradient>
<clipPath id="clip0_1864_19921">
<rect width="1922" height="1107" fill="white" transform="translate(181 211)"/>
</clipPath>
<clipPath id="clip1_1864_19921">
<rect width="2476.11" height="1562.96" fill="white" transform="translate(365.182 -214) rotate(9.65687)"/>
</clipPath>
</defs>
</svg>
