<svg width="47" height="44" viewBox="0 0 47 44" fill="none" xmlns="http://www.w3.org/2000/svg">
<path d="M31.5678 14.43C34.6163 14.43 37.54 15.564 39.6957 17.5827C41.8513 19.6013 43.0624 22.3392 43.0624 25.1939V37.7519H35.3993V25.1939C35.3993 24.2424 34.9956 23.3297 34.2771 22.6569C33.5585 21.984 32.584 21.606 31.5678 21.606C30.5516 21.606 29.577 21.984 28.8585 22.6569C28.1399 23.3297 27.7362 24.2424 27.7362 25.1939V37.7519H20.0732V25.1939C20.0732 22.3392 21.2842 19.6013 23.4399 17.5827C25.5955 15.564 28.5192 14.43 31.5678 14.43Z" stroke="#EAD2FF" stroke-opacity="0.47" stroke-width="4" stroke-linecap="round" stroke-linejoin="round"/>
<path d="M12.4101 16.224H4.74707V37.7519H12.4101V16.224Z" stroke="#EAD2FF" stroke-opacity="0.47" stroke-width="4" stroke-linecap="round" stroke-linejoin="round"/>
<path d="M8.5786 10.842C10.6947 10.842 12.4101 9.2356 12.4101 7.254C12.4101 5.27241 10.6947 3.66602 8.5786 3.66602C6.4625 3.66602 4.74707 5.27241 4.74707 7.254C4.74707 9.2356 6.4625 10.842 8.5786 10.842Z" stroke="#EAD2FF" stroke-opacity="0.47" stroke-width="4" stroke-linecap="round" stroke-linejoin="round"/>
</svg>
