<?xml version="1.0" encoding="UTF-8"?>
<svg version="1.1" xmlns="http://www.w3.org/2000/svg" width="2133" height="627">
<path d="M0 0 C3.64917896 1.86024536 7.20719151 3.86451154 10.76147461 5.89916992 C11.72988281 6.44621582 12.69829102 6.99326172 13.69604492 7.55688477 C27.05042169 15.11118763 27.05042169 15.11118763 32.7735405 18.62407303 C35.68468273 20.35705055 38.64662497 21.76345554 41.74464798 23.13174057 C55.00600166 29.37725333 55.00600166 29.37725333 57.91255093 35.20851612 C59.73613165 41.90220466 59.33080038 48.77859843 59.1237793 55.65014648 C59.12800527 57.9474856 59.14104407 60.24482276 59.16218567 62.54206848 C59.19454531 68.75263512 59.10425718 74.95598095 58.99128246 81.16537571 C58.89411797 87.66351888 58.91061067 94.16136961 58.91485596 100.66009521 C58.90675161 111.55878044 58.8290882 122.45491544 58.69750977 133.3527832 C58.5622446 144.57191785 58.46934513 155.79010029 58.43286133 167.01000977 C58.43059385 167.70282705 58.42832638 168.39564434 58.42599019 169.10945609 C58.41487323 172.58549522 58.40458327 176.06153621 58.39470434 179.53757906 C58.31181929 208.32609481 58.08284245 237.11236613 57.76147461 265.89916992 C69.45512394 261.43586851 69.45512394 261.43586851 77.88489509 252.79738069 C79.59897612 246.81443932 79.20534538 240.62347591 79.01025391 234.46484375 C79.01476254 232.40410019 79.02764282 230.34336062 79.04821777 228.28271484 C79.08028699 222.71256716 78.99588024 217.14965779 78.88988853 211.58065629 C78.79897953 205.75247579 78.81605706 199.92461444 78.82148743 194.09587097 C78.81544932 183.06989379 78.71285574 172.04703229 78.57521898 161.02199811 C78.42319529 148.46590249 78.37933508 135.91014952 78.34438074 123.35326731 C78.27009353 97.53382869 78.06055507 71.71691431 77.76147461 45.89916992 C81.53922871 47.3746104 85.00566586 49.06033394 88.54272461 51.05151367 C90.17661133 51.96900391 90.17661133 51.96900391 91.84350586 52.9050293 C92.97143555 53.5424707 94.09936523 54.17991211 95.26147461 54.83666992 C96.3894043 55.47024414 97.51733398 56.10381836 98.67944336 56.7565918 C101.71152761 58.46281199 104.74237574 60.17007374 107.76147461 61.89916992 C108.63036662 62.25586824 109.49925863 62.61256657 110.39448071 62.98007393 C112.76147461 64.89916992 112.76147461 64.89916992 113.39906025 68.53399467 C113.43057713 70.08858796 113.43417144 71.64388674 113.4165802 73.19869995 C113.43145518 74.48357211 113.43145518 74.48357211 113.44663066 75.79440129 C113.47368311 78.67589201 113.46481001 81.55615572 113.45605469 84.43774414 C113.46773645 86.49902581 113.48150398 88.56029656 113.49720764 90.62155151 C113.53290043 96.22907437 113.5363168 101.83618456 113.53189683 107.44380331 C113.53070962 112.12090648 113.54413982 116.79792304 113.55727977 121.47500432 C113.58764067 132.50756738 113.59091692 143.53991918 113.578125 154.57250977 C113.56544297 165.96252368 113.60061761 177.35169033 113.6590088 188.7415427 C113.70727753 198.51235295 113.72468873 208.28289136 113.71753424 218.05381787 C113.71364791 223.893152 113.7218451 229.73184837 113.76014137 235.57107162 C113.79490804 241.06257139 113.7912374 246.55271351 113.75780296 252.04420853 C113.75201187 254.06104098 113.75991272 256.0779655 113.78240967 258.09468079 C113.81095757 260.84660297 113.79032744 263.59390283 113.75715637 266.34567261 C113.7770485 267.14616118 113.79694064 267.94664976 113.81743556 268.77139556 C113.75815864 271.07744245 113.62827309 272.75812443 112.76147461 274.89916992 C109.94852029 277.49095638 106.69076392 279.89916992 102.76147461 279.89916992 C102.43147461 280.88916992 102.10147461 281.87916992 101.76147461 282.89916992 C99.73388672 284.30273437 99.73388672 284.30273437 97.03881836 285.76245117 C96.03753906 286.31247803 95.03625977 286.86250488 94.00463867 287.42919922 C92.91376953 288.01741455 91.82290039 288.60562988 90.69897461 289.21166992 C88.39967918 290.47265368 86.10152956 291.73572866 83.80444336 293.00073242 C83.21668121 293.32343613 82.62891907 293.64613983 82.02334595 293.97862244 C76.11642217 297.23125368 70.31456913 300.65351784 64.51147461 304.08666992 C56.04123922 309.07874225 47.47116285 313.79919666 38.7097168 318.26123047 C34.09738948 320.6191081 29.69391096 323.1178632 25.37280273 325.97900391 C23.76147461 326.89916992 23.76147461 326.89916992 21.76147461 326.89916992 C21.76912268 326.03894573 21.76912268 326.03894573 21.77692527 325.16134328 C22.07689865 291.1493621 22.27748 257.13834873 22.3495336 223.12512876 C22.35827643 219.03849549 22.36784714 214.95186455 22.37792969 210.86523438 C22.37992297 210.05168196 22.38191625 209.23812954 22.38396994 208.39992402 C22.41819183 195.23763214 22.51943062 182.07666954 22.64557233 168.91497429 C22.77357233 155.40320316 22.82924015 141.89251985 22.81818897 128.38014013 C22.81363972 120.04544316 22.86505759 111.7149916 22.98879204 103.3811957 C23.06830605 97.66117855 23.07735959 91.94370881 23.03183099 86.22333207 C23.00762491 82.92357533 23.02414104 79.63302327 23.10375404 76.33391762 C23.1854555 72.74487755 23.14913703 69.1750703 23.08427429 65.58610535 C23.16145385 64.0408239 23.16145385 64.0408239 23.24019259 62.46432465 C23.26198556 58.9557034 23.26198556 58.9557034 20.76147461 53.89916992 C14.49147461 50.26916992 8.22147461 46.63916992 1.76147461 42.89916992 C1.43147461 140.90916992 1.10147461 238.91916992 0.76147461 339.89916992 C-8.65723035 343.43118428 -13.80980009 344.20970044 -22.83618164 340.30151367 C-28.51919421 336.98411284 -32.12456911 332.05520245 -34.23852539 325.89916992 C-34.49267572 323.29554302 -34.49267572 323.29554302 -34.49858761 320.45486164 C-34.5056532 319.36773736 -34.51271879 318.28061309 -34.51999849 317.16054565 C-34.51758341 315.97184613 -34.51516832 314.78314662 -34.51268005 313.5584259 C-34.51791673 312.29122465 -34.52315341 311.0240234 -34.52854878 309.71842211 C-34.54272344 306.20311425 -34.54439217 302.68789483 -34.54395187 299.17256248 C-34.54560057 295.38031237 -34.55866814 291.58809865 -34.57014465 287.79586792 C-34.59299042 279.5044352 -34.60091491 271.21302808 -34.6059711 262.92156816 C-34.60922882 257.7428965 -34.61575179 252.56423226 -34.62297249 247.3855648 C-34.6425384 233.04322582 -34.65894248 218.70089373 -34.66184902 204.35854053 C-34.66203659 203.44080466 -34.66222416 202.52306879 -34.66241742 201.57752274 C-34.66278366 199.71709613 -34.66314736 197.85666952 -34.66350853 195.99624292 C-34.66369134 195.07274154 -34.66387415 194.14924017 -34.6640625 193.19775391 C-34.66424305 192.27312332 -34.6644236 191.34849274 -34.66460962 190.39584305 C-34.66815054 175.41667695 -34.69516785 160.43765468 -34.73256039 145.45853845 C-34.77065633 130.07433534 -34.7900066 114.69020357 -34.79030854 99.30595225 C-34.79089284 90.67042165 -34.79936737 82.03506259 -34.8283062 73.39957619 C-34.85283739 66.04558693 -34.86009136 58.69183177 -34.84505867 51.33781264 C-34.83789661 47.58759924 -34.8387161 43.83784793 -34.86146927 40.08768654 C-34.88593345 36.01639665 -34.87140395 31.94615495 -34.85325623 27.87483215 C-34.87305618 26.10851329 -34.87305618 26.10851329 -34.89325613 24.30651122 C-34.81688648 16.79719274 -33.43995957 11.1973117 -29.23852539 4.89916992 C-26.88696289 2.64526367 -26.88696289 2.64526367 -24.61352539 1.33666992 C-23.48043945 0.65411133 -23.48043945 0.65411133 -22.32446289 -0.04223633 C-15.12304259 -3.6968897 -7.25477363 -3.38843952 0 0 Z " fill="#FFFFFF" transform="translate(316.238525390625,138.100830078125)"/>
<path d="M0 0 C9.9 0 19.8 0 30 0 C34.49792645 6.42560922 38.73863718 12.70592717 42.6875 19.4375 C46.61721573 26.06071352 50.61413064 32.62848101 54.75 39.125 C60.45521419 48.08772914 66.02359689 57.13196872 71.56933594 66.19384766 C72.21676758 67.25007324 72.86419922 68.30629883 73.53125 69.39453125 C74.10423828 70.33143799 74.67722656 71.26834473 75.26757812 72.23364258 C77.12067512 75.19269586 79.06331252 78.09496878 81 81 C81.33 54.27 81.66 27.54 82 0 C91.9 0 101.8 0 112 0 C112 43.56 112 87.12 112 132 C102.1 132 92.2 132 82 132 C77.5421332 125.63161886 73.34374646 119.42217286 69.4375 112.75 C64.59219038 104.57666893 59.57046975 96.534288 54.44775391 88.5324707 C49.85875883 81.36129461 45.32263239 74.15853023 40.8125 66.9375 C40.17658936 65.92010742 39.54067871 64.90271484 38.88549805 63.85449219 C36.22272548 59.58800023 33.58776638 55.31294397 31 51 C30.67 77.73 30.34 104.46 30 132 C20.1 132 10.2 132 0 132 C0 88.44 0 44.88 0 0 Z " fill="#FFFFFF" transform="translate(677,260)"/>
<path d="M0 0 C10.786875 -0.061875 21.57375 -0.12375 32.6875 -0.1875 C37.75677856 -0.22846802 37.75677856 -0.22846802 42.9284668 -0.27026367 C45.64371383 -0.27903553 48.35896484 -0.28667781 51.07421875 -0.29296875 C51.76087112 -0.30080887 52.4475235 -0.30864899 53.15498352 -0.31672668 C68.86796479 -0.48683665 83.30897868 1.68997395 95.3125 12.625 C104.41280721 22.32450439 106.40840825 33.00713064 106.2109375 45.73046875 C105.8588818 55.68147526 101.88298389 64.71262821 95.11328125 72.04296875 C90.92135191 75.90547339 84.96297952 81 79 81 C79.48243164 81.80405273 79.96486328 82.60810547 80.46191406 83.43652344 C81.13963867 84.56606445 81.81736328 85.69560547 82.515625 86.859375 C83.06692581 87.77814171 83.06692581 87.77814171 83.62936401 88.71546936 C85.65942221 92.09871342 87.68914818 95.48215607 89.71826172 98.8659668 C93.42782689 105.05145487 97.13931212 111.23567685 100.8671875 117.41015625 C101.7039502 118.79799316 101.7039502 118.79799316 102.55761719 120.21386719 C103.58512676 121.91742045 104.61436321 123.61993359 105.64550781 125.32128906 C109 130.88806284 109 130.88806284 109 132 C97.78 132 86.56 132 75 132 C72.958125 128.32875 70.91625 124.6575 68.8125 120.875 C67.51343871 118.59016708 66.21293291 116.30615401 64.91015625 114.0234375 C62.38194689 109.57981917 60.03097369 105.08172208 57.80859375 100.4765625 C57.034552 98.96473389 57.034552 98.96473389 56.24487305 97.42236328 C55.27347331 95.52335057 54.35328372 93.59694744 53.49536133 91.64404297 C52.01166683 88.52888951 52.01166683 88.52888951 48 85 C42.06 84.67 36.12 84.34 30 84 C30 99.84 30 115.68 30 132 C20.1 132 10.2 132 0 132 C0 88.44 0 44.88 0 0 Z M30 25 C30 36.22 30 47.44 30 59 C35.300625 59.061875 40.60125 59.12375 46.0625 59.1875 C47.721604 59.21481201 49.38070801 59.24212402 51.09008789 59.27026367 C52.42593664 59.27903707 53.7617935 59.28667898 55.09765625 59.29296875 C55.77437378 59.30831665 56.45109131 59.32366455 57.14831543 59.33947754 C62.23194377 59.3422319 65.56266147 58.29586279 70 56 C74.12643206 51.76204275 75.79915686 48.04190531 76.375 42.1875 C76.22468946 37.51018957 74.83498423 33.72763232 72 30 C66.35583182 25.45585532 60.8371265 24.87361833 53.828125 24.90234375 C52.5793457 24.90484131 51.33056641 24.90733887 50.04394531 24.90991211 C47.67094238 24.92356812 47.67094238 24.92356812 45.25 24.9375 C40.2175 24.958125 35.185 24.97875 30 25 Z " fill="#FFFFFF" transform="translate(1058,260)"/>
<path d="M0 0 C5.62587343 1.12517469 5.62587343 1.12517469 8.75 3.00390625 C9.44222656 3.41576172 10.13445312 3.82761719 10.84765625 4.25195312 C11.55792969 4.68443359 12.26820313 5.11691406 13 5.5625 C13.67933594 5.96791016 14.35867188 6.37332031 15.05859375 6.79101562 C16.49065723 7.64893989 17.90687561 8.533823 19.30671692 9.44337463 C22.01670186 11.11083083 22.01670186 11.11083083 25.26908875 12.20921326 C29.23946205 13.93823745 32.40898786 15.45390279 35 19 C37.44584445 26.43545986 36.50567704 34.82535052 36.26953125 42.53125 C36.24526782 44.85146934 36.22677073 47.17175553 36.21379089 49.49206543 C36.16428178 55.58318765 36.03671018 61.6702441 35.89263916 67.75976562 C35.75936487 73.97990918 35.70021907 80.20071354 35.63476562 86.421875 C35.495572 98.61636449 35.27386779 110.80784349 35 123 C38.48561835 120.99124385 41.97096489 118.98201694 45.45608521 116.97239685 C47.20862489 115.96195334 48.96136522 114.95185787 50.71411133 113.94177246 C58.11569352 109.67344791 65.50173598 105.37953692 72.875 101.0625 C83.00571128 95.13939592 93.18374643 89.30249448 103.38623047 83.50415039 C104.49369629 82.87371826 105.60116211 82.24328613 106.7421875 81.59375 C107.80276367 80.99304688 108.86333984 80.39234375 109.95605469 79.7734375 C113.64732616 77.62286034 117.23060604 75.31967341 120.78564453 72.95117188 C123.63822288 71.72585266 125.08539035 72.03264338 128 73 C133.30450009 77.42041674 135.88762432 82.0269182 136.875 88.8125 C137.35539541 95.61980521 135.74603174 100.92766523 131.61328125 106.33203125 C127.33267234 111.15811314 121.8428656 113.92553749 116.25 117 C114.50189882 117.98430673 112.75380901 118.96863438 111.00643921 119.95423889 C109.2002586 120.97085441 107.39093281 121.98168361 105.58105469 122.99169922 C99.97938935 126.12444598 94.42975127 129.34756382 88.875 132.5625 C87.79895508 133.18318359 86.72291016 133.80386719 85.61425781 134.44335938 C77.40613324 139.17815123 69.21971861 143.94949833 61.03857422 148.73071289 C52.63220687 153.640059 44.20215456 158.5076623 35.76367188 163.36157227 C30.19234456 166.56929342 24.63303319 169.79584526 19.09375 173.05859375 C17.98644531 173.70957031 16.87914062 174.36054688 15.73828125 175.03125 C13.61890626 176.27884348 11.50162887 177.53000884 9.38671875 178.78515625 C8.44441406 179.33945312 7.50210937 179.89375 6.53125 180.46484375 C5.28698242 181.20142212 5.28698242 181.20142212 4.01757812 181.95288086 C2 183 2 183 0 183 C0 122.61 0 62.22 0 0 Z " fill="#FFFFFF" transform="translate(450,217)"/>
<path d="M0 0 C14.37390251 10.65797002 24.51940711 26.32848963 27.33203125 44.09765625 C29.72022024 62.15236502 26.77556578 80.57923262 16.25 95.6875 C4.81324955 110.48299873 -9.40319409 119.70466578 -28 123 C-48.94875757 124.46403019 -68.29622798 122.2620996 -84.8190918 108.09057617 C-96.08523491 97.93107131 -104.98351648 84.28953961 -107 69 C-107.19916016 67.60974609 -107.19916016 67.60974609 -107.40234375 66.19140625 C-109.59156157 46.48844583 -105.04137736 28.04822234 -92.88671875 12.25390625 C-69.96719 -14.79188791 -29.52094084 -18.53640471 0 0 Z M-65.75 24.0625 C-75.08419886 34.1690321 -77.58514936 46.77345436 -77.25 60.0234375 C-76.49346952 72.05700038 -71.86722521 82.00874431 -63.10546875 90.27734375 C-55.90643678 96.16746082 -46.9829486 98.56968283 -37.76953125 98.30078125 C-26.90367843 97.12070979 -19.22199619 93.18042932 -12 85 C-3.14193097 73.4311484 -2.121531 61.0978007 -3 47 C-4.59119453 36.46844978 -10.46400629 27.42243197 -18.58203125 20.69140625 C-33.01897929 10.59253953 -52.72336812 12.34995818 -65.75 24.0625 Z " fill="#FFFFFF" transform="translate(1285,270)"/>
<path d="M0 0 C9.9 0 19.8 0 30 0 C30.0093457 2.64894287 30.01869141 5.29788574 30.02832031 8.02709961 C30.06215751 16.80026251 30.117744 25.57319186 30.18390274 34.34616756 C30.22333393 39.66283807 30.25554385 44.97934402 30.27099609 50.29614258 C30.28619128 55.43161527 30.32068787 60.56663545 30.36830902 65.7019062 C30.38309328 67.65656147 30.39103931 69.61128136 30.39188385 71.56599236 C30.39426417 74.31392981 30.42142886 77.06062745 30.45410156 79.80834961 C30.4490712 80.60820786 30.44404083 81.4080661 30.43885803 82.23216248 C30.5701419 89.41528589 32.80606355 95.27240334 37.3125 100.875 C43.92829809 106.10609617 51.69920756 107.82143258 60 107 C66.76440247 105.50481958 72.81441131 103.8100426 77.1875 98.1875 C80.63820946 92.11901095 81.30066566 86.97200534 81.31884766 80.14892578 C81.32889328 79.27998184 81.3389389 78.4110379 81.34928894 77.51576233 C81.38004734 74.65895211 81.39713564 71.80223531 81.4140625 68.9453125 C81.43278005 66.95847779 81.4523539 64.97165098 81.4727478 62.98483276 C81.5240129 57.76693383 81.56366876 52.54900914 81.60089111 47.33099365 C81.64096598 42.00184792 81.69204244 36.67280881 81.7421875 31.34375 C81.83888031 20.89590089 81.92228911 10.44800756 82 0 C91.9 0 101.8 0 112 0 C112.06799217 11.5272872 112.12294053 23.05443947 112.15543652 34.58188248 C112.1710392 39.93552397 112.19217812 45.2890202 112.22631836 50.64257812 C112.25910523 55.81676394 112.27689353 60.99081072 112.28463173 66.16509247 C112.29014072 68.13128597 112.30089771 70.09747255 112.31719017 72.06360626 C112.45431264 89.30958268 111.09130508 104.34853099 98.875 117.75 C84.2944303 131.0021178 67.84892787 134.03571272 48.8359375 133.4453125 C34.61615751 132.62024261 21.64783279 127.18550195 11.6875 116.8125 C2.80026568 106.08212263 -0.34916563 94.28450797 -0.22705078 80.60302734 C-0.22734283 79.72374573 -0.22763489 78.84446411 -0.22793579 77.9385376 C-0.22655734 75.07089908 -0.21106709 72.20352987 -0.1953125 69.3359375 C-0.19157708 67.33240908 -0.18873261 65.32887881 -0.18673706 63.3253479 C-0.17914229 58.08110408 -0.15952995 52.83697305 -0.1373291 47.59277344 C-0.11678066 42.22983322 -0.10771619 36.86687458 -0.09765625 31.50390625 C-0.07627975 21.00254693 -0.04113194 10.50130054 0 0 Z " fill="#FFFFFF" transform="translate(925,260)"/>
<path d="M0 0 C31.68 0 63.36 0 96 0 C96 8.25 96 16.5 96 25 C74.22 25 52.44 25 30 25 C30 34.24 30 43.48 30 53 C46.5 53 63 53 80 53 C80 60.92 80 68.84 80 77 C63.5 77 47 77 30 77 C30 86.9 30 96.8 30 107 C51.78 107 73.56 107 96 107 C96 115.25 96 123.5 96 132 C64.32 132 32.64 132 0 132 C0 88.44 0 44.88 0 0 Z " fill="#FFFFFF" transform="translate(811,260)"/>
<path d="M0 0 C7.69116821 5.92598206 14.65368947 12.85973966 18.24609375 22.08203125 C17.24609375 25.08203125 17.24609375 25.08203125 14.4453125 26.50390625 C13.28644531 26.9421875 12.12757812 27.38046875 10.93359375 27.83203125 C9.78246094 28.280625 8.63132812 28.72921875 7.4453125 29.19140625 C2.85680105 30.46879405 2.85680105 30.46879405 0.24609375 29.08203125 C-1.61328125 26.7890625 -1.61328125 26.7890625 -3.50390625 23.89453125 C-10.21391016 14.35991173 -18.84440887 9.34885989 -30.1796875 6.46484375 C-42.87635293 4.57672051 -55.20026424 6.14690768 -66.06640625 13.26953125 C-76.82646776 21.49678607 -83.32208171 31.67409335 -85.75390625 45.08203125 C-87.34056478 61.49676677 -85.28537428 76.83693342 -74.75390625 90.08203125 C-67.87401056 97.61987954 -57.94156896 103.27755192 -47.66918945 104.28686523 C-45.42220523 104.38554272 -43.19047043 104.41120863 -40.94140625 104.39453125 C-40.14605469 104.3888916 -39.35070313 104.38325195 -38.53125 104.37744141 C-26.00401481 104.11901601 -16.20462872 99.24745547 -6.75390625 91.08203125 C0.62186824 82.64635216 0.45320647 76.97534046 1.24609375 65.08203125 C-12.28390625 65.08203125 -25.81390625 65.08203125 -39.75390625 65.08203125 C-39.75390625 59.80203125 -39.75390625 54.52203125 -39.75390625 49.08203125 C-19.62390625 49.08203125 0.50609375 49.08203125 21.24609375 49.08203125 C21.46265625 56.84734375 21.46265625 56.84734375 21.68359375 64.76953125 C21.74732178 66.37401123 21.8110498 67.97849121 21.87670898 69.6315918 C22.06237511 83.5171937 17.20163494 92.79128338 7.58569336 102.87329102 C-3.82940867 114.51857491 -18.04331886 121.84668233 -34.4609375 122.3828125 C-54.23667496 122.57379714 -70.97085101 119.57628614 -86.4453125 106.36328125 C-100.66087265 92.31609491 -106.95304551 74.8742923 -107.19140625 55.20703125 C-107.07528063 36.37400124 -101.03952827 19.17988324 -87.578125 5.70703125 C-63.80392702 -16.39014862 -26.58628018 -18.51611853 0 0 Z " fill="#FFFFFF" transform="translate(1676.75390625,270.91796875)"/>
<path d="M0 0 C13.93265951 10.5034136 22.6700859 25.34160672 25.77734375 42.421875 C28.12152904 62.59031597 24.95900974 82.24609356 12.29296875 98.625 C2.08508291 111.016186 -11.82316422 119.35765757 -27.7890625 122.15234375 C-48.69174534 123.45764895 -68.1359451 121.17680664 -84.72436523 107.37426758 C-97.72103634 95.72098715 -104.86660775 80.4350178 -106.7890625 63.15234375 C-107.69407311 44.06293389 -104.09108194 27.80318371 -92.7890625 12.15234375 C-92.27859375 11.44464844 -91.768125 10.73695313 -91.2421875 10.0078125 C-69.478579 -17.30443876 -27.41966664 -18.16456908 0 0 Z M-75.93359375 20.8125 C-85.4991105 32.87512006 -87.93338677 48.08789646 -86.515625 63.03515625 C-84.69375074 76.20077594 -79.54417211 87.3388326 -69.47265625 96.1875 C-57.75405625 105.04698732 -45.04985478 106.57588095 -30.7890625 105.15234375 C-19.0957302 103.0642487 -9.17019608 96.17574241 -2.28515625 86.56640625 C6.4724828 72.43528111 8.33891399 56.5084843 5.0859375 40.33984375 C1.66280765 27.37052081 -5.36488141 17.57364106 -16.81640625 10.73046875 C-37.2318843 -0.10770882 -60.04022755 4.28466809 -75.93359375 20.8125 Z " fill="#FFFFFF" transform="translate(1529.7890625,270.84765625)"/>
<path d="M0 0 C2.53030919 2.21402054 4.92264728 4.49913924 7.28125 6.89453125 C7.95285156 7.56742187 8.62445312 8.2403125 9.31640625 8.93359375 C13.5662758 13.46317871 16.11717452 18.0878194 18.28125 23.89453125 C13.01802223 26.35309116 7.91433675 28.45629634 2.28125 29.89453125 C1.80816406 29.18167969 1.33507813 28.46882813 0.84765625 27.734375 C-7.31629104 15.91017844 -16.10829215 9.8345988 -30.140625 6.28125 C-43.24848921 4.31507037 -55.95402134 5.79452823 -67.15625 13.20703125 C-77.50614066 21.13247256 -83.72717654 31.9716073 -85.71875 44.89453125 C-85.99530576 48.19254203 -86.05327286 51.46099601 -86.03125 54.76953125 C-86.02633545 55.64722168 -86.0214209 56.52491211 -86.01635742 57.42919922 C-85.89837817 63.96464493 -85.20612576 69.79644875 -82.71875 75.89453125 C-82.3784375 76.74015625 -82.038125 77.58578125 -81.6875 78.45703125 C-76.57628716 89.78458402 -68.62629001 96.76893377 -57.4921875 101.92578125 C-45.42114983 106.40575399 -30.27633569 105.03293017 -18.71875 99.89453125 C-8.64409385 94.88378538 -1.11281443 87.33043428 3.28125 76.89453125 C7.06364671 77.55143744 10.49966526 78.61466225 14.09375 79.95703125 C15.06957031 80.31925781 16.04539062 80.68148437 17.05078125 81.0546875 C18.15486328 81.47041016 18.15486328 81.47041016 19.28125 81.89453125 C17.50159747 93.15892281 9.51994912 103.08904679 0.6796875 109.8984375 C-16.64498529 121.45654053 -36.75393541 124.90516581 -57.23046875 121.20703125 C-70.00297252 118.05656783 -79.45811868 112.10742736 -88.71875 102.89453125 C-89.34523438 102.30285156 -89.97171875 101.71117187 -90.6171875 101.1015625 C-103.5631114 87.83345498 -107.23596232 69.72776654 -107.13891602 51.8972168 C-106.68556596 33.29538045 -99.99284904 18.02460752 -86.71875 4.89453125 C-85.94337891 4.06888672 -85.94337891 4.06888672 -85.15234375 3.2265625 C-63.61335202 -17.75005347 -23.13200233 -17.91400755 0 0 Z " fill="#FFFFFF" transform="translate(1868.71875,271.10546875)"/>
<path d="M0 0 C6.6 0 13.2 0 20 0 C20 37.95 20 75.9 20 115 C39.8 115 59.6 115 80 115 C80 120.61 80 126.22 80 132 C53.6 132 27.2 132 0 132 C0 88.44 0 44.88 0 0 Z " fill="#FFFFFF" transform="translate(1332,260)"/>
<path d="M0 0 C6.27 0 12.54 0 19 0 C19 43.56 19 87.12 19 132 C12.73 132 6.46 132 0 132 C0 88.44 0 44.88 0 0 Z " fill="#FFFFFF" transform="translate(1721,260)"/>
</svg>
