<svg width="47" height="43" viewBox="0 0 47 43" fill="none" xmlns="http://www.w3.org/2000/svg">
<path d="M8.17674 35.2836C7.12307 35.2836 6.21309 34.947 5.44678 34.2736C4.7124 33.5709 4.34521 32.7365 4.34521 31.7704V10.691C4.34521 9.72483 4.7124 8.90508 5.44678 8.23171C6.21309 7.52906 7.12307 7.17773 8.17674 7.17773H38.829C39.8826 7.17773 40.7767 7.52906 41.511 8.23171C42.2773 8.90508 42.6605 9.72483 42.6605 10.691V31.7704C42.6605 32.7365 42.2773 33.5709 41.511 34.2736C40.7767 34.947 39.8826 35.2836 38.829 35.2836H8.17674ZM23.5029 22.9873L38.829 14.2042V10.691L23.5029 19.4741L8.17674 10.691V14.2042L23.5029 22.9873Z" fill="#EAD2FF" fill-opacity="0.47"/>
</svg>
