<svg width="2025" height="1306" viewBox="0 0 2025 1306" fill="none" xmlns="http://www.w3.org/2000/svg">
<g clip-path="url(#clip0_1869_6032)">
<g clip-path="url(#clip1_1869_6032)">
<path opacity="0.0144928" d="M2011.45 1375.81L2236.23 1095.16C2240.27 1090.12 2242.16 1083.69 2241.48 1077.27L2187.61 567.632C2187.07 562.582 2184.98 557.822 2181.63 554.012L1884.47 216.699C1878.39 209.79 1868.94 206.877 1860.02 209.158L1555.74 286.961C1546.82 289.242 1539.93 296.332 1537.91 305.315L1439.14 743.864C1438.03 748.818 1438.48 753.997 1440.43 758.683L1637.81 1231.63C1640.3 1237.59 1645.04 1242.32 1651 1244.81L1982.91 1383.11C1992.98 1387.31 2004.63 1384.34 2011.45 1375.81Z" stroke="url(#paint0_linear_1869_6032)"/>
<path opacity="0.0289855" d="M1955.65 1380.97L2193.54 1114.76C2197.85 1109.94 2200.07 1103.61 2199.73 1097.15L2173.1 590.061C2172.83 584.974 2170.99 580.097 2167.82 576.109L1890.65 227.099C1884.93 219.898 1875.66 216.506 1866.64 218.315L1560.53 279.722C1551.51 281.531 1544.27 288.236 1541.77 297.085L1420.65 725.994C1419.26 730.896 1419.44 736.107 1421.16 740.903L1592.16 1219.03C1594.34 1225.12 1598.84 1230.1 1604.67 1232.89L1926.82 1386.75C1936.65 1391.45 1948.4 1389.09 1955.65 1380.97Z" stroke="url(#paint1_linear_1869_6032)"/>
<path opacity="0.0434783" d="M1900.04 1384.4L2150.14 1133.23C2154.71 1128.64 2157.27 1122.43 2157.27 1115.95L2157.46 612.849C2157.47 607.74 2155.87 602.758 2152.9 598.6L1896.11 239.052C1890.77 231.578 1881.71 227.718 1872.62 229.05L1565.55 274.084C1556.46 275.416 1548.88 281.718 1545.91 290.409L1403.18 708.55C1401.53 713.385 1401.43 718.615 1402.9 723.508L1547.53 1205.37C1549.39 1211.57 1553.64 1216.79 1559.33 1219.87L1871.01 1388.65C1880.56 1393.83 1892.38 1392.09 1900.04 1384.4Z" stroke="url(#paint2_linear_1869_6032)"/>
<path opacity="0.057971" d="M1844.71 1386.12L2106.1 1150.53C2110.92 1146.19 2113.82 1140.11 2114.16 1133.64L2140.68 635.932C2140.95 630.815 2139.61 625.74 2136.85 621.424L1900.79 252.503C1895.84 244.778 1887 240.461 1877.87 241.315L1570.7 270.043C1561.57 270.897 1553.68 276.779 1550.26 285.287L1386.7 691.583C1384.78 696.337 1384.41 701.571 1385.63 706.55L1503.97 1190.71C1505.51 1197.01 1509.49 1202.44 1515.03 1205.81L1815.57 1388.85C1824.82 1394.48 1836.67 1393.37 1844.71 1386.12Z" stroke="url(#paint3_linear_1869_6032)"/>
<path opacity="0.0724638" d="M1789.76 1386.18L2061.5 1166.65C2066.55 1162.57 2069.77 1156.65 2070.46 1150.19L2122.74 659.247C2123.29 654.135 2122.21 648.981 2119.66 644.515L1904.6 267.397C1900.06 259.441 1891.46 254.68 1882.31 255.055L1575.92 267.592C1566.77 267.966 1558.59 273.414 1554.72 281.714L1371.18 675.142C1369.01 679.801 1368.35 685.025 1369.31 690.076L1461.53 1175.11C1462.74 1181.49 1466.44 1187.13 1471.81 1190.78L1760.58 1387.37C1769.5 1393.45 1781.36 1392.97 1789.76 1386.18Z" stroke="url(#paint4_linear_1869_6032)"/>
<path opacity="0.0869565" d="M1735.26 1384.6L2016.39 1181.57C2021.67 1177.77 2025.21 1172.01 2026.24 1165.59L2103.65 682.729C2104.47 677.637 2103.65 672.417 2101.33 667.813L1907.47 283.673C1903.35 275.507 1895.02 270.317 1885.88 270.212L1581.1 266.718C1571.95 266.613 1563.51 271.611 1559.2 279.68L1356.59 659.274C1354.16 663.824 1353.23 669.024 1353.93 674.133L1420.25 1158.64C1421.13 1165.09 1424.54 1170.92 1429.73 1174.85L1706.12 1384.27C1714.71 1390.77 1726.53 1390.91 1735.26 1384.6Z" stroke="url(#paint5_linear_1869_6032)"/>
<path opacity="0.101449" d="M1681.31 1381.43L1970.85 1195.28C1976.33 1191.75 1980.19 1186.19 1981.56 1179.82L2083.4 706.314C2084.48 701.256 2083.94 695.983 2081.85 691.251L1909.34 301.265C1905.64 292.913 1897.61 287.309 1888.49 286.727L1586.16 267.404C1577.05 266.822 1568.37 271.357 1563.64 279.171L1342.88 644.023C1340.21 648.45 1339 653.611 1339.43 658.766L1380.16 1141.39C1380.71 1147.88 1383.82 1153.89 1388.81 1158.08L1652.3 1379.58C1660.52 1386.49 1672.28 1387.24 1681.31 1381.43Z" stroke="url(#paint6_linear_1869_6032)"/>
<path opacity="0.115942" d="M1627.99 1376.72L1924.95 1207.76C1930.62 1204.53 1934.77 1199.17 1936.48 1192.87L2061.98 729.938C2063.34 724.928 2063.07 719.616 2061.22 714.768L1910.13 320.108C1906.87 311.59 1899.15 305.589 1890.09 304.532L1591.03 269.628C1581.97 268.571 1573.07 272.633 1567.94 280.17L1330.03 629.431C1327.11 633.721 1325.62 638.829 1325.79 644.017L1341.31 1123.41C1341.52 1129.93 1344.33 1136.1 1349.11 1140.55L1599.18 1373.36C1607.02 1380.65 1618.68 1382.01 1627.99 1376.72Z" stroke="url(#paint7_linear_1869_6032)"/>
<path opacity="0.130435" d="M1575.37 1370.51L1878.75 1219C1884.6 1216.07 1889.04 1210.94 1891.08 1204.73L2039.42 753.538C2041.05 748.59 2041.06 743.253 2039.44 738.3L1909.8 340.128C1906.98 331.469 1899.59 325.088 1890.61 323.561L1595.61 273.363C1586.63 271.835 1577.55 275.413 1572.02 282.652L1317.98 615.537C1314.82 619.678 1313.06 624.717 1312.96 629.924L1303.73 1104.79C1303.6 1111.32 1306.09 1117.64 1310.64 1122.33L1546.84 1365.65C1554.28 1373.31 1565.82 1375.28 1575.37 1370.51Z" stroke="url(#paint8_linear_1869_6032)"/>
<path opacity="0.144928" d="M1523.53 1362.85L1832.33 1229C1838.34 1226.39 1843.05 1221.49 1845.42 1215.39L2015.72 777.05C2017.61 772.179 2017.9 766.83 2016.53 761.786L1908.28 361.254C1905.91 352.476 1898.87 345.734 1890 343.741L1599.83 278.578C1590.96 276.585 1581.71 279.671 1575.81 286.591L1306.7 602.379C1303.31 606.357 1301.28 611.314 1300.91 616.526L1267.43 1085.59C1266.96 1092.12 1269.13 1098.57 1273.45 1103.49L1495.37 1356.53C1502.38 1364.53 1513.76 1367.08 1523.53 1362.85Z" stroke="url(#paint9_linear_1869_6032)"/>
<path opacity="0.15942" d="M1472.54 1353.81L1785.75 1237.76C1791.9 1235.48 1796.88 1230.83 1799.57 1224.85L1990.88 800.414C1993.04 795.634 1993.6 790.288 1992.49 785.163L1905.53 383.409C1903.61 374.535 1896.94 367.451 1888.2 365.001L1603.61 285.239C1594.87 282.789 1585.49 285.374 1579.24 291.957L1296.14 589.992C1292.53 593.794 1290.23 598.654 1289.59 603.858L1232.44 1065.9C1231.64 1072.41 1233.48 1078.97 1237.55 1084.11L1444.81 1346.04C1451.4 1354.36 1462.59 1357.5 1472.54 1353.81Z" stroke="url(#paint10_linear_1869_6032)"/>
<path opacity="0.173913" d="M1422.47 1343.44L1739.07 1245.28C1745.34 1243.34 1750.57 1238.95 1753.59 1233.12L1964.94 823.568C1967.35 818.892 1968.19 813.563 1967.34 808.37L1901.5 406.514C1900.03 397.568 1893.74 390.163 1885.16 387.263L1606.89 293.307C1598.3 290.407 1588.81 292.487 1582.22 298.713L1286.25 578.406C1282.43 582.02 1279.87 586.769 1278.96 591.951L1198.79 1045.79C1197.65 1052.26 1199.15 1058.92 1202.96 1064.27L1395.26 1334.26C1401.39 1342.87 1412.37 1346.58 1422.47 1343.44Z" stroke="url(#paint11_linear_1869_6032)"/>
<path opacity="0.188406" d="M1373.38 1331.82L1692.37 1251.58C1698.75 1249.97 1704.22 1245.87 1707.54 1240.19L1937.89 846.454C1940.56 841.896 1941.68 836.599 1941.1 831.351L1896.14 430.49C1895.13 421.496 1889.24 413.79 1880.83 410.45L1609.58 302.741C1601.17 299.401 1591.6 300.97 1584.69 306.823L1277 567.652C1272.97 571.067 1270.15 575.691 1268.96 580.837L1166.47 1025.35C1164.99 1031.76 1166.16 1038.49 1169.7 1044.04L1346.75 1321.24C1352.43 1330.13 1363.15 1334.39 1373.38 1331.82Z" stroke="url(#paint12_linear_1869_6032)"/>
<path opacity="0.202899" d="M1325.33 1318.99L1645.7 1256.66C1652.17 1255.4 1657.86 1251.59 1661.49 1246.08L1909.78 869.013C1912.69 864.587 1914.09 859.336 1913.77 854.046L1889.42 455.255C1888.87 446.236 1883.4 438.252 1875.19 434.482L1611.62 313.494C1603.41 309.724 1593.79 310.781 1586.59 316.243L1268.31 557.757C1264.09 560.961 1261.02 565.447 1259.57 570.542L1135.5 1004.64C1133.69 1010.97 1134.51 1017.77 1137.77 1023.5L1299.36 1307.07C1304.57 1316.21 1315.01 1321 1325.33 1318.99Z" stroke="url(#paint13_linear_1869_6032)"/>
<path opacity="0.217391" d="M1278.38 1305.05L1599.15 1260.53C1605.68 1259.62 1611.58 1256.12 1615.5 1250.8L1880.62 891.188C1883.77 886.907 1885.45 881.716 1885.4 876.397L1881.31 480.724C1881.22 471.703 1876.18 463.463 1868.19 459.276L1612.95 325.516C1604.96 321.328 1595.31 321.871 1587.84 326.928L1260.16 548.743C1255.76 551.724 1252.44 556.058 1250.72 561.089L1105.89 983.743C1103.75 989.988 1104.22 996.832 1107.2 1002.73L1253.14 1291.82C1257.86 1301.17 1268 1306.49 1278.38 1305.05Z" stroke="url(#paint14_linear_1869_6032)"/>
<path opacity="0.231884" d="M1232.57 1290.04L1552.75 1263.22C1559.34 1262.67 1565.43 1259.48 1569.63 1254.37L1850.44 912.927C1853.83 908.804 1855.78 903.687 1855.99 898.353L1871.79 506.815C1872.15 497.816 1867.55 489.344 1859.8 484.752L1613.5 338.756C1605.75 334.164 1596.11 334.193 1588.39 338.831L1252.49 540.632C1247.91 543.381 1244.36 547.55 1242.37 552.503L1077.63 962.742C1075.16 968.878 1075.29 975.751 1077.96 981.797L1208.12 1275.56C1212.35 1285.1 1222.17 1290.92 1232.57 1290.04Z" stroke="url(#paint15_linear_1869_6032)"/>
<path opacity="0.246377" d="M1187.96 1274.06L1506.59 1264.75C1513.21 1264.55 1519.47 1261.68 1523.94 1256.8L1819.27 934.175C1822.89 930.223 1825.11 925.193 1825.59 919.857L1860.83 533.441C1861.65 524.488 1857.49 515.806 1850.01 510.823L1613.21 353.158C1605.73 348.176 1596.12 347.692 1588.17 351.899L1245.24 533.441C1240.51 535.948 1236.72 539.939 1234.47 544.801L1050.71 941.71C1047.93 947.721 1047.7 954.603 1050.08 960.787L1164.37 1258.36C1168.1 1268.07 1177.56 1274.37 1187.96 1274.06Z" stroke="url(#paint16_linear_1869_6032)"/>
<path opacity="0.26087" d="M1144.57 1257.18L1460.71 1265.13C1467.34 1265.29 1473.76 1262.76 1478.49 1258.11L1787.14 954.882C1790.98 951.112 1793.47 946.185 1794.23 940.86L1848.41 560.517C1849.68 551.632 1845.98 542.766 1838.78 537.408L1612.04 368.665C1604.84 363.307 1595.29 362.314 1587.14 366.078L1238.37 527.187C1233.49 529.442 1229.48 533.242 1226.97 538L1025.14 920.722C1022.04 926.592 1021.46 933.466 1023.52 939.773L1121.91 1240.31C1125.13 1250.17 1134.21 1256.92 1144.57 1257.18Z" stroke="url(#paint17_linear_1869_6032)"/>
<path opacity="0.275362" d="M1102.46 1239.47L1415.17 1264.4C1421.8 1264.92 1428.36 1262.74 1433.34 1258.33L1754.1 974.999C1758.15 971.424 1760.9 966.613 1761.93 961.313L1834.53 587.957C1836.24 579.163 1833.01 570.136 1826.12 564.419L1609.93 385.215C1603.04 379.498 1593.57 378.001 1585.24 381.312L1231.82 521.88C1226.81 523.875 1222.59 527.472 1219.83 532.112L1000.88 899.854C997.483 905.566 996.55 912.415 998.297 918.829L1080.77 1221.49C1083.49 1231.46 1092.17 1238.65 1102.46 1239.47Z" stroke="url(#paint18_linear_1869_6032)"/>
<path opacity="0.289855" d="M1061.66 1221.02L1370.04 1262.58C1376.64 1263.47 1383.31 1261.63 1388.53 1257.49L1720.18 994.48C1724.43 991.112 1727.44 986.43 1728.74 981.168L1819.17 615.675C1821.32 606.994 1818.57 597.832 1811.99 591.773L1606.84 402.747C1600.26 396.687 1590.9 394.692 1582.43 397.542L1225.54 517.53C1220.41 519.257 1215.99 522.64 1212.98 527.148L977.938 879.179C974.24 884.718 972.956 891.523 974.382 898.029L1041 1201.98C1043.2 1212.04 1051.45 1219.64 1061.66 1221.02Z" stroke="url(#paint19_linear_1869_6032)"/>
<path opacity="0.304348" d="M1022.18 1201.9L1325.36 1259.71C1331.91 1260.96 1338.69 1259.48 1344.13 1255.62L1685.43 1013.28C1689.86 1010.13 1693.13 1005.59 1694.7 1000.38L1802.34 643.585C1804.92 635.04 1802.65 625.768 1796.41 619.384L1602.71 421.195C1596.47 414.811 1587.26 412.326 1578.66 414.708L1219.48 514.145C1214.24 515.597 1209.63 518.754 1206.38 523.118L956.278 858.77C952.291 864.12 950.659 870.864 951.758 877.444L1002.6 1181.87C1004.29 1191.98 1012.1 1199.98 1022.18 1201.9Z" stroke="url(#paint20_linear_1869_6032)"/>
<path opacity="0.318841" d="M984.053 1182.19L1281.18 1255.82C1287.67 1257.43 1294.53 1256.32 1300.18 1252.74L1649.87 1031.36C1654.49 1028.44 1658 1024.06 1659.84 1018.91L1784.04 671.604C1787.04 663.215 1785.25 653.859 1779.37 647.17L1597.52 440.494C1591.64 433.805 1582.59 430.839 1573.88 432.746L1213.59 511.727C1208.25 512.897 1203.46 515.818 1199.97 520.026L935.876 838.696C931.611 843.842 929.634 850.507 930.403 857.147L965.609 1161.23C966.784 1171.38 974.135 1179.73 984.053 1182.19Z" stroke="url(#paint21_linear_1869_6032)"/>
<path opacity="0.333333" d="M947.298 1161.98L1237.56 1250.96C1243.96 1252.92 1250.89 1252.18 1256.72 1248.9L1613.57 1048.69C1618.36 1046 1622.1 1041.79 1624.21 1036.72L1764.28 699.646C1767.69 691.435 1766.39 682.019 1760.87 675.045L1591.23 460.575C1585.72 453.601 1576.85 450.163 1568.08 451.593L1207.81 510.278C1202.39 511.16 1197.43 513.834 1193.71 517.873L916.704 819.024C912.171 823.953 909.853 830.522 910.288 837.204L930.03 1140.15C930.692 1150.31 937.566 1159 947.298 1161.98Z" stroke="url(#paint22_linear_1869_6032)"/>
<path opacity="0.347826" d="M911.926 1141.35L1194.53 1245.15C1200.83 1247.46 1207.8 1247.09 1213.82 1244.13L1576.57 1065.21C1581.51 1062.78 1585.49 1058.74 1587.85 1053.77L1743.07 727.629C1746.88 719.616 1746.07 710.167 1740.93 702.928L1583.81 481.369C1578.68 474.13 1570.03 470.234 1561.21 471.182L1202.08 509.795C1196.6 510.384 1191.49 512.802 1187.55 516.66L898.73 799.822C893.94 804.519 891.285 810.974 891.385 817.682L895.876 1118.72C896.027 1128.86 902.408 1137.85 911.926 1141.35Z" stroke="url(#paint23_linear_1869_6032)"/>
<path opacity="0.362319" d="M877.944 1120.38L1152.15 1238.45C1158.33 1241.11 1165.32 1241.11 1171.5 1238.46L1538.91 1080.91C1544 1078.73 1548.19 1074.89 1550.82 1070.02L1720.43 755.471C1724.63 747.675 1724.3 738.218 1719.56 730.736L1575.23 502.806C1570.49 495.324 1562.08 490.981 1553.24 491.448L1196.37 510.273C1190.84 510.564 1185.58 512.718 1181.43 516.382L881.916 781.153C876.88 785.604 873.894 791.929 873.658 798.646L863.149 1097.01C862.793 1107.1 868.668 1116.38 877.944 1120.38Z" stroke="url(#paint24_linear_1869_6032)"/>
<path opacity="0.376812" d="M845.358 1099.14L1110.46 1230.89C1116.49 1233.89 1123.48 1234.27 1129.81 1231.95L1500.65 1095.75C1505.87 1093.84 1510.28 1090.21 1513.16 1085.45L1696.37 783.092C1700.95 775.533 1701.11 766.093 1696.78 758.389L1565.47 524.815C1561.14 517.111 1552.99 512.337 1544.15 512.321L1190.62 511.704C1185.06 511.695 1179.66 513.575 1175.31 517.036L866.222 763.077C860.954 767.271 857.643 773.448 857.07 780.158L831.851 1075.11C830.994 1085.14 836.35 1094.66 845.358 1099.14Z" stroke="url(#paint25_linear_1869_6032)"/>
<path opacity="0.391304" d="M814.165 1077.73L1069.48 1222.53C1075.35 1225.85 1082.33 1226.62 1088.78 1224.63L1461.84 1109.71C1467.17 1108.07 1471.78 1104.65 1474.91 1100.03L1670.94 810.416C1675.88 803.112 1676.52 793.715 1672.6 785.811L1554.51 547.326C1550.6 539.422 1542.74 534.232 1533.93 533.736L1184.77 514.08C1179.2 513.767 1173.68 515.365 1169.14 518.612L851.607 745.654C846.118 749.578 842.491 755.592 841.58 762.277L801.975 1053.11C800.624 1063.04 805.451 1072.79 814.165 1077.73Z" stroke="url(#paint26_linear_1869_6032)"/>
<path opacity="0.405797" d="M784.36 1056.22L1029.26 1213.4C1034.95 1217.05 1041.9 1218.19 1048.45 1216.55L1422.52 1122.76C1427.96 1121.4 1432.77 1118.21 1436.14 1113.73L1644.15 837.367C1649.44 830.335 1650.55 821.006 1647.07 812.925L1542.34 570.266C1538.86 562.186 1531.3 556.596 1522.56 555.624L1178.78 517.388C1173.21 516.768 1167.59 518.078 1162.87 521.1L838.022 728.939C832.328 732.582 828.392 738.417 827.146 745.061L773.514 1031.08C771.675 1040.89 775.965 1050.83 784.36 1056.22Z" stroke="url(#paint27_linear_1869_6032)"/>
<path opacity="0.42029" d="M755.933 1034.68L989.833 1203.56C995.325 1207.53 1002.21 1209.04 1008.86 1207.75L1382.77 1134.88C1388.29 1133.8 1393.28 1130.85 1396.89 1126.53L1616.04 863.87C1621.66 857.128 1623.25 847.89 1620.2 839.657L1528.95 593.563C1525.9 585.329 1518.68 579.359 1510.02 577.914L1172.61 521.611C1167.05 520.684 1161.35 521.699 1156.45 524.486L825.42 712.984C819.534 716.336 815.298 721.975 813.718 728.562L746.45 1009.11C744.134 1018.77 747.88 1028.87 755.933 1034.68Z" stroke="url(#paint28_linear_1869_6032)"/>
<path opacity="0.434783" d="M728.869 1013.2L951.222 1193.06C956.499 1197.33 963.31 1199.22 970.032 1198.28L1342.62 1146.05C1348.22 1145.26 1353.38 1142.56 1357.22 1138.4L1586.65 889.857C1592.59 883.419 1594.65 874.298 1592.04 865.935L1514.34 617.146C1511.73 608.783 1504.85 602.451 1496.3 600.539L1166.2 526.731C1160.68 525.497 1154.9 526.212 1149.84 528.755L813.749 697.838C807.686 700.889 803.16 706.317 801.25 712.83L720.767 987.262C717.984 996.752 721.18 1006.98 728.869 1013.2Z" stroke="url(#paint29_linear_1869_6032)"/>
<path opacity="0.449275" d="M703.149 991.859L913.455 1181.95C918.501 1186.51 925.214 1188.77 931.99 1188.19L1302.13 1156.25C1307.8 1155.77 1313.12 1153.32 1317.18 1149.34L1556.03 915.258C1562.27 909.14 1564.78 900.159 1562.62 891.691L1498.5 640.944C1496.34 632.475 1489.82 625.802 1481.41 623.431L1159.51 532.73C1154.04 531.188 1148.2 531.597 1143 533.888L802.954 683.548C796.73 686.288 791.924 691.492 789.687 697.914L696.441 965.625C693.202 974.923 695.845 985.257 703.149 991.859Z" stroke="url(#paint30_linear_1869_6032)"/>
<path opacity="0.463768" d="M678.751 970.721L876.555 1170.28C881.353 1175.12 887.949 1177.75 894.76 1177.52L1261.37 1165.49C1267.08 1165.3 1272.54 1163.12 1276.82 1159.33L1524.22 940.011C1530.74 934.226 1533.7 925.409 1531.98 916.859L1481.44 664.887C1479.72 656.338 1473.59 649.344 1465.34 646.523L1152.5 539.585C1147.09 537.738 1141.21 537.837 1135.87 539.866L792.981 670.157C786.611 672.578 781.537 677.542 778.977 683.858L673.445 944.272C669.764 953.356 671.851 963.76 678.751 970.721Z" stroke="url(#paint31_linear_1869_6032)"/>
<path opacity="0.478261" d="M655.646 949.859L840.542 1158.11C845.076 1163.22 851.535 1166.2 858.362 1166.34L1220.38 1173.74C1226.12 1173.86 1231.72 1171.96 1236.2 1168.37L1491.26 964.051C1498.05 958.613 1501.45 949.982 1500.18 941.375L1463.16 688.906C1461.9 680.299 1456.16 673.006 1448.1 669.746L1145.11 547.27C1139.79 545.119 1133.88 544.905 1128.42 546.665L783.77 657.703C777.27 659.797 771.939 664.508 769.063 670.701L651.747 923.271C647.637 932.12 649.169 942.563 655.646 949.859Z" stroke="url(#paint32_linear_1869_6032)"/>
<path opacity="0.492754" d="M633.805 929.345L805.433 1145.48C809.688 1150.84 815.991 1154.17 822.815 1154.68L1179.22 1181C1184.98 1181.43 1190.7 1179.81 1195.37 1176.43L1457.22 987.324C1464.25 982.243 1468.07 973.821 1467.26 965.181L1443.67 712.932C1442.86 704.292 1437.55 696.724 1429.69 693.036L1137.32 555.761C1132.1 553.309 1126.18 552.778 1120.61 554.263L775.261 646.221C768.648 647.982 763.074 652.428 759.886 658.483L631.313 902.696C626.789 911.288 627.767 921.74 633.805 929.345Z" stroke="url(#paint33_linear_1869_6032)"/>
<path opacity="0.507246" d="M613.193 909.244L771.241 1132.45C775.204 1138.05 781.33 1141.73 788.132 1142.6L1137.96 1187.28C1143.71 1188.01 1149.53 1186.68 1154.4 1183.53L1422.14 1009.77C1429.4 1005.06 1433.63 996.868 1433.28 988.219L1423 736.898C1422.64 728.25 1417.75 720.43 1410.13 716.327L1129.09 565.027C1123.98 562.278 1118.07 561.43 1112.4 562.632L767.393 635.743C760.685 637.165 754.879 641.333 751.387 647.234L612.103 882.609C607.182 890.926 607.609 901.358 613.193 909.244Z" stroke="url(#paint34_linear_1869_6032)"/>
<path opacity="0.521739" d="M593.772 889.623L737.977 1119.08C741.634 1124.9 747.566 1128.91 754.326 1130.15L1096.63 1192.57C1102.36 1193.61 1108.28 1192.58 1113.32 1189.65L1386.08 1031.35C1393.55 1027.01 1398.18 1019.07 1398.28 1010.44L1401.15 760.739C1401.25 752.107 1396.79 744.06 1389.43 739.556L1120.37 575.039C1115.4 571.998 1109.5 570.83 1103.75 571.744L760.103 626.298C753.316 627.376 747.294 631.254 743.505 636.987L594.077 863.078C588.775 871.1 588.656 881.482 593.772 889.623Z" stroke="url(#paint35_linear_1869_6032)"/>
<path opacity="0.536232" d="M575.501 870.541L705.649 1105.42C708.986 1111.44 714.705 1115.78 721.404 1117.38L1055.3 1196.87C1061 1198.22 1067 1197.49 1072.21 1194.81L1349.11 1052C1356.77 1048.05 1361.79 1040.38 1362.34 1031.79L1378.15 784.391C1378.7 775.799 1374.69 767.549 1367.61 762.661L1111.13 585.763C1106.31 582.437 1100.45 580.949 1094.63 581.569L753.326 617.909C746.478 618.638 740.253 622.215 736.176 627.765L577.187 844.16C571.522 851.87 570.863 862.173 575.501 870.541Z" stroke="url(#paint36_linear_1869_6032)"/>
<path opacity="0.550725" d="M558.334 852.058L674.259 1091.51C677.267 1097.72 682.754 1102.38 689.373 1104.33L1014.03 1200.19C1019.68 1201.86 1025.74 1201.44 1031.1 1199L1311.29 1071.69C1319.11 1068.14 1324.5 1060.75 1325.49 1052.22L1354.02 807.794C1355.02 799.266 1351.47 790.838 1344.68 785.582L1101.34 597.168C1096.69 593.562 1090.88 591.754 1085 592.076L746.998 610.596C740.106 610.973 733.694 614.24 729.337 619.592L561.385 825.916C555.376 833.297 554.186 843.491 558.334 852.058Z" stroke="url(#paint37_linear_1869_6032)"/>
<path opacity="0.565217" d="M542.225 834.229L643.812 1077.42C646.477 1083.81 651.717 1088.76 658.236 1091.07L972.864 1202.55C978.446 1204.53 984.556 1204.42 990.063 1202.24L1272.68 1090.37C1280.65 1087.22 1286.38 1080.14 1287.82 1071.7L1328.8 830.886C1330.23 822.446 1327.16 813.867 1320.69 808.26L1090.97 609.216C1086.49 605.338 1080.77 603.212 1074.84 603.233L741.052 604.375C734.136 604.399 727.551 607.345 722.925 612.486L546.621 808.397C540.287 815.435 538.576 825.492 542.225 834.229Z" stroke="url(#paint38_linear_1869_6032)"/>
<path opacity="0.57971" d="M527.123 817.105L614.303 1063.2C616.618 1069.74 621.592 1074.99 627.993 1077.65L931.857 1203.96C937.356 1206.24 943.5 1206.45 949.139 1204.53L1233.35 1108.02C1241.44 1105.27 1247.51 1098.52 1249.38 1090.19L1302.51 853.612C1304.38 845.282 1301.78 836.579 1295.64 830.64L1079.99 621.872C1075.71 617.73 1070.07 615.288 1064.12 615.003L735.424 599.26C728.5 598.928 721.759 601.545 716.873 606.462L532.839 791.655C526.201 798.335 523.979 808.228 527.123 817.105Z" stroke="url(#paint39_linear_1869_6032)"/>
<path opacity="0.594203" d="M512.977 800.737L585.729 1048.9C587.684 1055.57 592.377 1061.1 598.64 1064.1L891.062 1204.42C896.462 1207.02 902.624 1207.54 908.383 1205.9L1193.37 1124.6C1201.56 1122.26 1207.94 1115.85 1210.24 1107.65L1275.19 875.917C1277.49 867.72 1275.36 858.919 1269.58 852.67L1068.36 635.099C1064.3 630.702 1058.76 627.947 1052.8 627.354L730.045 595.259C723.132 594.571 716.252 596.851 711.117 601.531L519.984 775.738C513.062 782.047 510.342 791.75 512.977 800.737Z" stroke="url(#paint40_linear_1869_6032)"/>
<path opacity="0.608696" d="M499.73 785.168L558.083 1034.58C559.669 1041.36 564.066 1047.14 570.173 1050.48L850.53 1203.97C855.814 1206.87 861.978 1207.71 867.845 1206.35L1152.8 1140.08C1161.07 1138.16 1167.75 1132.09 1170.46 1124.05L1246.87 897.747C1249.59 889.707 1247.95 880.834 1242.54 874.295L1056.08 648.855C1052.24 644.213 1046.82 641.149 1040.87 640.247L724.85 592.375C717.966 591.332 710.963 593.268 705.591 597.699L507.996 760.687C500.812 766.613 497.608 776.1 499.73 785.168Z" stroke="url(#paint41_linear_1869_6032)"/>
<path opacity="0.623188" d="M487.326 770.44L531.354 1020.27C532.565 1027.14 536.65 1033.17 542.584 1036.84L810.31 1202.63C815.461 1205.82 821.612 1206.98 827.574 1205.9L1111.72 1154.44C1120.04 1152.93 1127 1147.24 1130.12 1139.38L1217.61 919.054C1220.73 911.192 1219.57 902.274 1214.55 895.467L1043.11 663.102C1039.51 658.227 1034.23 654.857 1028.3 653.644L719.773 590.611C712.935 589.214 705.826 590.799 700.23 594.969L496.815 746.542C489.39 752.075 485.719 761.321 487.326 770.44Z" stroke="url(#paint42_linear_1869_6032)"/>
<path opacity="0.637681" d="M475.706 756.59L505.53 1006.03C506.36 1012.97 510.12 1019.23 515.862 1023.23L770.448 1200.41C775.452 1203.89 781.573 1205.38 787.617 1204.59L1070.19 1167.67C1078.55 1166.58 1085.76 1161.26 1089.28 1153.6L1187.43 939.792C1190.95 932.128 1190.27 923.194 1185.65 916.141L1029.43 677.8C1026.09 672.702 1020.97 669.032 1015.07 667.508L714.748 589.962C707.975 588.213 700.777 589.442 694.969 593.341L486.38 733.339C478.736 738.469 474.613 747.45 475.706 756.59Z" stroke="url(#paint43_linear_1869_6032)"/>
<path opacity="0.652174" d="M464.81 743.652L480.595 991.908C481.04 998.905 484.461 1005.38 489.994 1009.68L730.993 1197.34C735.832 1201.11 741.908 1202.92 748.021 1202.43L1028.29 1179.75C1036.67 1179.07 1044.11 1174.14 1048.02 1166.7L1156.38 959.916C1160.28 952.471 1160.09 943.546 1155.88 936.272L1015.04 692.905C1011.97 687.597 1007.01 683.634 1001.16 681.799L709.709 590.421C703.019 588.323 695.75 589.193 689.744 592.809L476.625 721.107C468.786 725.827 464.23 734.521 464.81 743.652Z" stroke="url(#paint44_linear_1869_6032)"/>
<path opacity="0.666667" d="M454.577 731.656L456.531 977.952C456.587 984.98 459.658 991.645 464.964 996.254L691.986 1193.45C696.645 1197.5 702.66 1199.64 708.828 1199.45L986.089 1190.67C994.461 1190.4 1002.12 1185.88 1006.39 1178.67L1124.51 979.387C1128.78 972.181 1129.08 963.293 1125.29 955.821L999.904 708.377C997.114 702.872 992.35 698.622 986.563 696.478L704.593 591.979C698.004 589.536 690.682 590.042 684.49 593.366L467.486 709.876C459.475 714.178 454.504 722.563 454.577 731.656Z" stroke="url(#paint45_linear_1869_6032)"/>
<path opacity="0.681159" d="M444.942 720.629L433.319 964.205C432.983 971.242 435.692 978.083 440.755 982.981L653.472 1188.78C657.936 1193.1 663.873 1195.57 670.082 1195.67L943.657 1200.42C952.003 1200.57 959.849 1196.45 964.475 1189.5L1091.87 998.168C1096.5 991.219 1097.27 982.394 1093.92 974.749L984.021 724.173C981.527 718.485 976.966 713.957 971.26 711.504L699.337 594.62C692.865 591.839 685.509 591.977 679.146 595.001L458.898 699.669C450.737 703.547 445.373 711.603 444.942 720.629Z" stroke="url(#paint46_linear_1869_6032)"/>
<path opacity="0.695652" d="M435.843 710.592L410.934 950.711C410.206 957.735 412.543 964.732 417.347 969.907L615.489 1183.36C619.742 1187.94 625.585 1190.73 631.823 1191.14L901.065 1209.01C909.365 1209.56 917.377 1205.87 922.343 1199.19L1058.51 1016.22C1063.48 1009.55 1064.72 1000.81 1061.81 993.023L967.379 740.25C965.192 734.394 960.849 729.596 955.239 726.837L693.879 598.328C687.542 595.213 680.169 594.983 673.65 597.697L450.794 690.503C442.506 693.954 436.77 701.662 435.843 710.592Z" stroke="url(#paint47_linear_1869_6032)"/>
<path opacity="0.710145" d="M427.216 701.562L389.354 937.51C388.232 944.499 390.189 951.632 394.719 957.071L578.077 1177.22C582.104 1182.06 587.838 1185.16 594.089 1185.88L858.385 1216.44C866.617 1217.39 874.772 1214.12 880.061 1207.74L1024.48 1033.52C1029.77 1027.14 1031.47 1018.52 1029.01 1010.61L949.97 756.564C948.101 750.555 943.991 745.496 938.493 742.435L688.158 603.08C681.973 599.637 674.602 599.037 667.942 601.435L443.106 682.393C434.715 685.414 428.629 692.757 427.216 701.562Z" stroke="url(#paint48_linear_1869_6032)"/>
<path opacity="0.724638" d="M418.995 693.555L368.55 924.643C367.037 931.576 368.604 938.824 372.845 944.513L541.271 1170.41C545.058 1175.49 550.665 1178.9 556.916 1179.93L815.684 1222.72C823.829 1224.07 832.105 1221.22 837.699 1215.15L989.826 1050.04C995.42 1043.97 997.58 1035.49 995.572 1027.48L931.788 773.073C930.248 766.928 926.386 761.619 921.015 758.259L682.116 608.852C676.1 605.089 668.748 604.12 661.962 606.195L435.768 675.351C427.297 677.941 420.884 684.901 418.995 693.555Z" stroke="url(#paint49_linear_1869_6032)"/>
<path opacity="0.73913" d="M411.116 686.579L348.495 912.146C346.592 919 347.762 926.343 351.701 932.266L505.104 1162.95C508.636 1168.26 514.102 1171.98 520.337 1173.33L773.032 1227.85C781.071 1229.59 789.443 1227.17 795.324 1221.43L954.609 1065.75C960.491 1060 963.096 1051.69 961.546 1043.61L912.831 789.734C911.629 783.469 908.031 777.92 902.801 774.267L675.697 615.615C669.865 611.541 662.551 610.203 655.655 611.948L428.713 669.382C420.185 671.54 413.469 678.104 411.116 686.579Z" stroke="url(#paint50_linear_1869_6032)"/>
<path opacity="0.753623" d="M403.515 680.642L329.157 900.055C326.869 906.809 327.636 914.225 331.259 920.367L469.608 1154.89C472.872 1160.42 478.179 1164.45 484.386 1166.11L730.497 1231.86C738.409 1233.98 746.855 1232 753.004 1226.59L918.883 1080.64C925.032 1075.23 928.071 1067.1 926.981 1058.98L893.098 806.505C892.244 800.138 888.922 794.361 883.849 790.418L668.845 623.34C663.214 618.964 655.956 617.259 648.966 618.67L421.873 664.49C413.312 666.217 406.318 672.371 403.515 680.642Z" stroke="url(#paint51_linear_1869_6032)"/>
<path opacity="0.768116" d="M396.126 675.745L310.506 888.403C307.836 895.035 308.195 902.502 311.491 908.846L434.81 1146.28C437.793 1152.02 442.927 1156.35 449.09 1158.32L688.142 1234.76C695.911 1237.25 704.406 1235.7 710.803 1230.64L882.7 1094.68C889.097 1089.62 892.557 1081.7 891.928 1073.57L872.591 823.342C872.092 816.89 869.061 810.897 864.16 806.672L661.509 631.991C656.094 627.323 648.91 625.253 641.842 626.324L415.182 660.672C406.611 661.971 399.364 667.703 396.126 675.745Z" stroke="url(#paint52_linear_1869_6032)"/>
<path opacity="0.782609" d="M388.886 671.887L292.506 877.222C289.461 883.71 289.409 891.206 292.365 897.735L400.738 1137.15C403.427 1143.09 408.371 1147.71 414.477 1149.99L646.033 1236.58C653.639 1239.42 662.162 1238.31 668.786 1233.62L846.117 1107.86C852.742 1103.16 856.608 1095.48 856.44 1087.36L851.313 840.204C851.178 833.686 848.45 827.491 843.735 822.99L653.637 641.531C648.453 636.583 641.362 634.152 634.232 634.88L408.576 657.923C400.016 658.797 392.542 664.098 388.886 671.887Z" stroke="url(#paint53_linear_1869_6032)"/>
<path opacity="0.797101" d="M381.732 669.061L275.124 866.54C271.711 872.863 271.245 880.365 273.85 887.062L367.414 1127.55C369.796 1133.68 374.536 1138.58 380.57 1141.18L604.23 1237.34C611.658 1240.53 620.183 1239.86 627.014 1235.53L809.19 1120.17C816.021 1115.85 820.278 1108.43 820.567 1100.35L829.271 857.05C829.505 850.485 827.095 844.102 822.579 839.332L645.184 651.923C640.244 646.704 633.263 643.917 626.088 644.3L401.988 656.235C393.463 656.689 385.788 661.548 381.732 669.061Z" stroke="url(#paint54_linear_1869_6032)"/>
<path opacity="0.811594" d="M374.603 667.259L258.323 856.382C254.55 862.519 253.669 870.005 255.914 876.85L334.86 1117.54C336.923 1123.83 341.443 1129.01 347.391 1131.92L562.794 1237.07C570.027 1240.6 578.533 1240.36 585.548 1236.41L771.972 1131.61C778.988 1127.67 783.619 1120.53 784.362 1112.52L806.473 873.838C807.083 867.246 805.001 860.689 800.7 855.657L636.104 663.121C631.423 657.646 624.569 654.508 617.365 654.542L395.358 655.592C386.888 655.632 379.039 660.044 374.603 667.259Z" stroke="url(#paint55_linear_1869_6032)"/>
<path opacity="0.826087" d="M367.436 666.469L242.066 846.775C237.943 852.705 236.646 860.152 238.523 867.126L303.092 1107.14C304.825 1113.59 309.111 1119.04 314.959 1122.25L521.783 1235.82C528.804 1239.67 537.267 1239.85 544.446 1236.3L734.52 1142.18C741.699 1138.62 746.686 1131.78 747.876 1123.86L782.93 890.529C783.921 883.932 782.179 877.215 778.105 871.931L626.354 675.085C621.945 669.365 615.236 665.882 608.02 665.567L388.621 655.979C380.228 655.613 372.232 659.572 367.436 666.469Z" stroke="url(#paint56_linear_1869_6032)"/>
<path opacity="0.84058" d="M360.174 666.674L226.315 837.738C221.853 843.441 220.142 850.826 221.641 857.91L272.126 1096.42C273.519 1103 277.556 1108.72 283.29 1112.23L481.25 1233.6C488.046 1237.77 496.444 1238.37 503.763 1235.21L696.888 1151.86C704.207 1148.7 709.532 1142.18 711.162 1134.38L758.654 907.085C760.03 900.501 758.638 893.642 754.806 888.114L615.897 687.765C611.771 681.814 605.224 677.993 598.013 677.328L381.719 657.376C373.423 656.61 365.308 660.113 360.174 666.674Z" stroke="url(#paint57_linear_1869_6032)"/>
<path opacity="0.855072" d="M352.757 667.854L211.031 829.292C206.242 834.748 204.118 842.047 205.234 849.221L241.975 1085.42C243.017 1092.12 246.791 1098.09 252.397 1101.9L441.248 1230.47C447.805 1234.93 456.116 1235.95 463.553 1233.19L659.129 1160.68C666.566 1157.92 672.208 1151.73 674.27 1144.07L733.66 923.467C735.423 916.919 734.393 909.933 730.815 904.172L604.695 701.114C600.864 694.947 594.496 690.796 587.307 689.782L374.593 659.757C366.415 658.603 358.206 661.647 352.757 667.854Z" stroke="url(#paint58_linear_1869_6032)"/>
<path opacity="0.869565" d="M345.131 669.986L196.175 821.453C191.071 826.643 188.54 833.834 189.266 841.077L212.648 1074.18C213.331 1080.99 216.827 1087.2 222.291 1091.31L401.827 1226.47C408.13 1231.21 416.334 1232.63 423.865 1230.28L621.298 1168.62C628.829 1166.27 634.767 1160.43 637.25 1152.94L707.965 939.64C710.117 933.148 709.458 926.052 706.146 920.068L592.717 715.083C589.192 708.713 583.018 704.241 575.867 702.878L367.187 663.098C359.146 661.565 350.871 664.149 345.131 669.986Z" stroke="url(#paint59_linear_1869_6032)"/>
<path opacity="0.884058" d="M337.241 673.044L181.708 814.234C176.304 819.14 173.368 826.199 173.7 833.49L184.153 1062.77C184.467 1069.66 187.672 1076.1 192.981 1080.5L363.032 1221.63C369.071 1226.64 377.145 1228.46 384.748 1226.52L583.445 1175.71C591.048 1173.76 597.259 1168.3 600.151 1161L681.587 955.566C684.129 949.153 683.849 941.965 680.817 935.769L579.932 729.618C576.723 723.062 570.76 718.278 563.664 716.568L359.447 667.366C351.562 665.466 343.247 667.592 337.241 673.044Z" stroke="url(#paint60_linear_1869_6032)"/>
<path opacity="0.898551" d="M329.036 676.999L167.587 807.647C161.898 812.251 158.565 819.156 158.5 826.474L156.492 1051.21C156.43 1058.17 159.331 1064.83 164.471 1069.52L324.907 1216.02C330.67 1221.28 338.595 1223.48 346.246 1221.95L545.621 1181.95C553.273 1180.42 559.735 1175.33 563.022 1168.25L654.545 971.213C657.477 964.9 657.586 957.638 654.844 951.241L566.313 744.665C563.431 737.939 557.692 732.854 550.668 730.8L351.322 672.528C343.609 670.273 335.282 671.944 329.036 676.999Z" stroke="url(#paint61_linear_1869_6032)"/>
<path opacity="0.913043" d="M320.465 681.819L153.774 801.703C147.817 805.987 144.094 812.716 143.629 820.038L129.668 1039.57C129.222 1046.58 131.806 1053.45 136.764 1058.42L287.491 1209.67C292.968 1215.17 300.724 1217.75 308.4 1216.62L507.877 1187.37C515.553 1186.24 522.243 1181.55 525.911 1174.71L626.862 986.547C630.183 980.358 630.687 973.041 628.247 966.454L551.839 760.173C549.291 753.292 543.792 747.916 536.856 745.523L342.762 678.549C335.24 675.954 326.925 677.173 320.465 681.819Z" stroke="url(#paint62_linear_1869_6032)"/>
<path opacity="0.927536" d="M311.483 687.469L140.229 796.407C134.021 800.355 129.917 806.884 129.049 814.19L103.678 1027.89C102.842 1034.93 105.097 1041.99 109.86 1047.24L250.822 1202.65C256.003 1208.36 263.571 1211.3 271.25 1210.58L470.259 1191.97C477.937 1191.25 484.829 1186.96 488.862 1180.39L598.561 1001.54C602.268 995.493 603.175 988.141 601.048 981.377L536.49 776.084C534.283 769.066 529.039 763.411 522.207 760.681L333.722 685.389C326.406 682.467 318.131 683.241 311.483 687.469Z" stroke="url(#paint63_linear_1869_6032)"/>
<path opacity="0.942029" d="M302.045 693.913L126.91 791.763C120.47 795.361 115.994 801.669 114.725 808.936L78.5189 1016.23C77.2874 1023.28 79.2009 1030.52 83.7566 1036.04L214.931 1195C219.809 1200.91 227.172 1204.2 234.829 1203.89L432.813 1195.78C440.47 1195.47 447.54 1191.59 451.919 1185.3L569.667 1016.15C573.757 1010.28 575.072 1002.91 573.269 995.983L520.248 792.342C518.39 785.204 513.413 779.282 506.701 776.223L324.157 693.008C317.062 689.774 308.852 690.11 302.045 693.913Z" stroke="url(#paint64_linear_1869_6032)"/>
<path opacity="0.956522" d="M292.109 701.112L113.778 787.775C107.126 791.007 102.29 797.073 100.619 804.278L54.1834 1004.62C52.5513 1011.66 54.1119 1019.06 58.4478 1024.85L179.848 1186.78C184.415 1192.87 191.556 1196.49 199.17 1196.58L395.584 1198.83C403.197 1198.92 410.419 1195.46 415.125 1189.48L540.206 1030.37C544.673 1024.69 546.403 1017.32 544.933 1010.24L503.103 808.893C501.598 801.651 496.902 795.476 490.326 792.092L314.029 701.363C307.169 697.833 299.048 697.74 292.109 701.112Z" stroke="url(#paint65_linear_1869_6032)"/>
<path opacity="0.971014" d="M281.637 709.023L100.794 784.439C93.9494 787.294 88.7659 793.095 86.697 800.217L30.6624 993.111C28.6256 1000.12 29.8222 1007.68 33.9261 1013.72L145.599 1178.05C149.851 1184.3 156.753 1188.24 164.3 1188.72L358.613 1201.14C366.161 1201.63 373.509 1198.6 378.522 1192.93L510.206 1044.16C515.045 1038.69 517.194 1031.35 516.066 1024.13L485.043 825.676C483.898 818.349 479.495 811.935 473.069 808.232L303.299 710.407C296.688 706.598 288.679 706.086 281.637 709.023Z" stroke="url(#paint66_linear_1869_6032)"/>
<path opacity="0.985507" d="M270.592 717.603L87.9193 781.756C80.9032 784.22 75.386 789.737 72.9218 796.753L7.94329 981.755C5.49857 988.715 6.32043 996.407 10.1806 1002.69L112.207 1168.85C116.137 1175.25 122.785 1179.5 130.245 1180.37L321.941 1202.74C329.401 1203.61 336.848 1201.01 342.147 1195.69L479.695 1057.49C484.899 1052.26 487.47 1044.97 486.694 1037.63L466.065 842.636C465.282 835.241 461.184 828.602 454.924 824.589L291.934 720.093C285.583 716.022 277.71 715.103 270.592 717.603Z" stroke="url(#paint67_linear_1869_6032)"/>
<path d="M258.943 726.806L75.1147 779.718C67.9497 781.78 62.1136 786.993 59.2587 793.881L-13.9886 970.593C-16.8436 977.481 -16.4067 985.294 -12.8018 991.82L79.6886 1159.27C83.2936 1165.79 89.6743 1170.32 97.0246 1171.57L285.606 1203.66C292.956 1204.91 300.476 1202.75 306.036 1197.78L448.703 1070.35C454.263 1065.38 457.26 1058.15 456.843 1050.71L446.164 859.716C445.748 852.272 441.965 845.422 435.885 841.106L279.902 730.373C273.822 726.057 266.108 724.744 258.943 726.806Z" stroke="url(#paint68_linear_1869_6032)"/>
</g>
</g>
<g opacity="0.2" filter="url(#filter0_f_1869_6032)">
<ellipse cx="470" cy="799" rx="187" ry="186" fill="#8593E8"/>
</g>
<g opacity="0.2" filter="url(#filter1_f_1869_6032)">
<path d="M1450 927.5C1450 1026.08 1370.08 1106 1271.5 1106C1172.92 1106 1093 1026.08 1093 927.5C1093 828.917 1172.92 749 1271.5 749C1370.08 749 1450 828.917 1450 927.5Z" fill="#AA48FE"/>
</g>
<g opacity="0.2" filter="url(#filter2_f_1869_6032)">
<circle cx="1633.5" cy="391.5" r="141.5" fill="#5D6EF3"/>
</g>
<defs>
<filter id="filter0_f_1869_6032" x="83" y="413" width="774" height="772" filterUnits="userSpaceOnUse" color-interpolation-filters="sRGB">
<feFlood flood-opacity="0" result="BackgroundImageFix"/>
<feBlend mode="normal" in="SourceGraphic" in2="BackgroundImageFix" result="shape"/>
<feGaussianBlur stdDeviation="100" result="effect1_foregroundBlur_1869_6032"/>
</filter>
<filter id="filter1_f_1869_6032" x="893" y="549" width="757" height="757" filterUnits="userSpaceOnUse" color-interpolation-filters="sRGB">
<feFlood flood-opacity="0" result="BackgroundImageFix"/>
<feBlend mode="normal" in="SourceGraphic" in2="BackgroundImageFix" result="shape"/>
<feGaussianBlur stdDeviation="100" result="effect1_foregroundBlur_1869_6032"/>
</filter>
<filter id="filter2_f_1869_6032" x="1242" y="0" width="783" height="783" filterUnits="userSpaceOnUse" color-interpolation-filters="sRGB">
<feFlood flood-opacity="0" result="BackgroundImageFix"/>
<feBlend mode="normal" in="SourceGraphic" in2="BackgroundImageFix" result="shape"/>
<feGaussianBlur stdDeviation="125" result="effect1_foregroundBlur_1869_6032"/>
</filter>
<linearGradient id="paint0_linear_1869_6032" x1="2000.08" y1="1390.81" x2="1680.99" y2="142.913" gradientUnits="userSpaceOnUse">
<stop stop-color="#4B0082"/>
<stop offset="1" stop-color="#EAD2FF"/>
</linearGradient>
<linearGradient id="paint1_linear_1869_6032" x1="1943.53" y1="1395.29" x2="1692.43" y2="143.544" gradientUnits="userSpaceOnUse">
<stop stop-color="#4B0082"/>
<stop offset="1" stop-color="#EAD2FF"/>
</linearGradient>
<linearGradient id="paint2_linear_1869_6032" x1="1887.21" y1="1397.99" x2="1703.61" y2="146.073" gradientUnits="userSpaceOnUse">
<stop stop-color="#4B0082"/>
<stop offset="1" stop-color="#EAD2FF"/>
</linearGradient>
<linearGradient id="paint3_linear_1869_6032" x1="1831.21" y1="1398.96" x2="1714.45" y2="150.469" gradientUnits="userSpaceOnUse">
<stop stop-color="#4B0082"/>
<stop offset="1" stop-color="#EAD2FF"/>
</linearGradient>
<linearGradient id="paint4_linear_1869_6032" x1="1775.64" y1="1398.23" x2="1724.83" y2="156.696" gradientUnits="userSpaceOnUse">
<stop stop-color="#4B0082"/>
<stop offset="1" stop-color="#EAD2FF"/>
</linearGradient>
<linearGradient id="paint5_linear_1869_6032" x1="1720.56" y1="1395.84" x2="1734.68" y2="164.71" gradientUnits="userSpaceOnUse">
<stop stop-color="#4B0082"/>
<stop offset="1" stop-color="#EAD2FF"/>
</linearGradient>
<linearGradient id="paint6_linear_1869_6032" x1="1666.08" y1="1391.82" x2="1743.89" y2="174.466" gradientUnits="userSpaceOnUse">
<stop stop-color="#4B0082"/>
<stop offset="1" stop-color="#EAD2FF"/>
</linearGradient>
<linearGradient id="paint7_linear_1869_6032" x1="1612.28" y1="1386.23" x2="1752.37" y2="185.912" gradientUnits="userSpaceOnUse">
<stop stop-color="#4B0082"/>
<stop offset="1" stop-color="#EAD2FF"/>
</linearGradient>
<linearGradient id="paint8_linear_1869_6032" x1="1559.23" y1="1379.13" x2="1760.04" y2="198.99" gradientUnits="userSpaceOnUse">
<stop stop-color="#4B0082"/>
<stop offset="1" stop-color="#EAD2FF"/>
</linearGradient>
<linearGradient id="paint9_linear_1869_6032" x1="1507.01" y1="1370.56" x2="1766.81" y2="213.641" gradientUnits="userSpaceOnUse">
<stop stop-color="#4B0082"/>
<stop offset="1" stop-color="#EAD2FF"/>
</linearGradient>
<linearGradient id="paint10_linear_1869_6032" x1="1455.69" y1="1360.59" x2="1772.62" y2="229.799" gradientUnits="userSpaceOnUse">
<stop stop-color="#4B0082"/>
<stop offset="1" stop-color="#EAD2FF"/>
</linearGradient>
<linearGradient id="paint11_linear_1869_6032" x1="1405.34" y1="1349.28" x2="1777.38" y2="247.396" gradientUnits="userSpaceOnUse">
<stop stop-color="#4B0082"/>
<stop offset="1" stop-color="#EAD2FF"/>
</linearGradient>
<linearGradient id="paint12_linear_1869_6032" x1="1356.03" y1="1336.7" x2="1781.04" y2="266.361" gradientUnits="userSpaceOnUse">
<stop stop-color="#4B0082"/>
<stop offset="1" stop-color="#EAD2FF"/>
</linearGradient>
<linearGradient id="paint13_linear_1869_6032" x1="1307.81" y1="1322.91" x2="1783.51" y2="286.619" gradientUnits="userSpaceOnUse">
<stop stop-color="#4B0082"/>
<stop offset="1" stop-color="#EAD2FF"/>
</linearGradient>
<linearGradient id="paint14_linear_1869_6032" x1="1260.74" y1="1308" x2="1784.75" y2="308.09" gradientUnits="userSpaceOnUse">
<stop stop-color="#4B0082"/>
<stop offset="1" stop-color="#EAD2FF"/>
</linearGradient>
<linearGradient id="paint15_linear_1869_6032" x1="1214.88" y1="1292.03" x2="1784.7" y2="330.697" gradientUnits="userSpaceOnUse">
<stop stop-color="#4B0082"/>
<stop offset="1" stop-color="#EAD2FF"/>
</linearGradient>
<linearGradient id="paint16_linear_1869_6032" x1="1170.26" y1="1275.08" x2="1783.31" y2="354.353" gradientUnits="userSpaceOnUse">
<stop stop-color="#4B0082"/>
<stop offset="1" stop-color="#EAD2FF"/>
</linearGradient>
<linearGradient id="paint17_linear_1869_6032" x1="1126.92" y1="1257.24" x2="1780.53" y2="378.975" gradientUnits="userSpaceOnUse">
<stop stop-color="#4B0082"/>
<stop offset="1" stop-color="#EAD2FF"/>
</linearGradient>
<linearGradient id="paint18_linear_1869_6032" x1="1084.91" y1="1238.58" x2="1776.33" y2="404.476" gradientUnits="userSpaceOnUse">
<stop stop-color="#4B0082"/>
<stop offset="1" stop-color="#EAD2FF"/>
</linearGradient>
<linearGradient id="paint19_linear_1869_6032" x1="1044.25" y1="1219.18" x2="1770.68" y2="430.768" gradientUnits="userSpaceOnUse">
<stop stop-color="#4B0082"/>
<stop offset="1" stop-color="#EAD2FF"/>
</linearGradient>
<linearGradient id="paint20_linear_1869_6032" x1="1004.98" y1="1199.13" x2="1763.54" y2="457.762" gradientUnits="userSpaceOnUse">
<stop stop-color="#4B0082"/>
<stop offset="1" stop-color="#EAD2FF"/>
</linearGradient>
<linearGradient id="paint21_linear_1869_6032" x1="967.106" y1="1178.51" x2="1754.89" y2="485.368" gradientUnits="userSpaceOnUse">
<stop stop-color="#4B0082"/>
<stop offset="1" stop-color="#EAD2FF"/>
</linearGradient>
<linearGradient id="paint22_linear_1869_6032" x1="930.653" y1="1157.4" x2="1744.72" y2="513.495" gradientUnits="userSpaceOnUse">
<stop stop-color="#4B0082"/>
<stop offset="1" stop-color="#EAD2FF"/>
</linearGradient>
<linearGradient id="paint23_linear_1869_6032" x1="895.632" y1="1135.9" x2="1733.01" y2="542.053" gradientUnits="userSpaceOnUse">
<stop stop-color="#4B0082"/>
<stop offset="1" stop-color="#EAD2FF"/>
</linearGradient>
<linearGradient id="paint24_linear_1869_6032" x1="862.048" y1="1114.07" x2="1719.75" y2="570.952" gradientUnits="userSpaceOnUse">
<stop stop-color="#4B0082"/>
<stop offset="1" stop-color="#EAD2FF"/>
</linearGradient>
<linearGradient id="paint25_linear_1869_6032" x1="829.903" y1="1092.02" x2="1704.95" y2="600.1" gradientUnits="userSpaceOnUse">
<stop stop-color="#4B0082"/>
<stop offset="1" stop-color="#EAD2FF"/>
</linearGradient>
<linearGradient id="paint26_linear_1869_6032" x1="799.196" y1="1069.81" x2="1688.6" y2="629.41" gradientUnits="userSpaceOnUse">
<stop stop-color="#4B0082"/>
<stop offset="1" stop-color="#EAD2FF"/>
</linearGradient>
<linearGradient id="paint27_linear_1869_6032" x1="769.919" y1="1047.54" x2="1670.71" y2="658.793" gradientUnits="userSpaceOnUse">
<stop stop-color="#4B0082"/>
<stop offset="1" stop-color="#EAD2FF"/>
</linearGradient>
<linearGradient id="paint28_linear_1869_6032" x1="742.058" y1="1025.28" x2="1651.3" y2="688.162" gradientUnits="userSpaceOnUse">
<stop stop-color="#4B0082"/>
<stop offset="1" stop-color="#EAD2FF"/>
</linearGradient>
<linearGradient id="paint29_linear_1869_6032" x1="715.597" y1="1003.11" x2="1630.39" y2="717.431" gradientUnits="userSpaceOnUse">
<stop stop-color="#4B0082"/>
<stop offset="1" stop-color="#EAD2FF"/>
</linearGradient>
<linearGradient id="paint30_linear_1869_6032" x1="690.516" y1="981.115" x2="1607.99" y2="746.518" gradientUnits="userSpaceOnUse">
<stop stop-color="#4B0082"/>
<stop offset="1" stop-color="#EAD2FF"/>
</linearGradient>
<linearGradient id="paint31_linear_1869_6032" x1="666.79" y1="959.364" x2="1584.14" y2="775.341" gradientUnits="userSpaceOnUse">
<stop stop-color="#4B0082"/>
<stop offset="1" stop-color="#EAD2FF"/>
</linearGradient>
<linearGradient id="paint32_linear_1869_6032" x1="644.387" y1="937.93" x2="1558.86" y2="803.82" gradientUnits="userSpaceOnUse">
<stop stop-color="#4B0082"/>
<stop offset="1" stop-color="#EAD2FF"/>
</linearGradient>
<linearGradient id="paint33_linear_1869_6032" x1="623.276" y1="916.888" x2="1532.2" y2="831.88" gradientUnits="userSpaceOnUse">
<stop stop-color="#4B0082"/>
<stop offset="1" stop-color="#EAD2FF"/>
</linearGradient>
<linearGradient id="paint34_linear_1869_6032" x1="603.418" y1="896.305" x2="1504.18" y2="859.447" gradientUnits="userSpaceOnUse">
<stop stop-color="#4B0082"/>
<stop offset="1" stop-color="#EAD2FF"/>
</linearGradient>
<linearGradient id="paint35_linear_1869_6032" x1="584.775" y1="876.246" x2="1474.87" y2="886.451" gradientUnits="userSpaceOnUse">
<stop stop-color="#4B0082"/>
<stop offset="1" stop-color="#EAD2FF"/>
</linearGradient>
<linearGradient id="paint36_linear_1869_6032" x1="567.3" y1="856.773" x2="1444.29" y2="912.823" gradientUnits="userSpaceOnUse">
<stop stop-color="#4B0082"/>
<stop offset="1" stop-color="#EAD2FF"/>
</linearGradient>
<linearGradient id="paint37_linear_1869_6032" x1="550.947" y1="837.947" x2="1412.51" y2="938.5" gradientUnits="userSpaceOnUse">
<stop stop-color="#4B0082"/>
<stop offset="1" stop-color="#EAD2FF"/>
</linearGradient>
<linearGradient id="paint38_linear_1869_6032" x1="535.666" y1="819.823" x2="1379.58" y2="963.422" gradientUnits="userSpaceOnUse">
<stop stop-color="#4B0082"/>
<stop offset="1" stop-color="#EAD2FF"/>
</linearGradient>
<linearGradient id="paint39_linear_1869_6032" x1="521.403" y1="802.453" x2="1345.55" y2="987.532" gradientUnits="userSpaceOnUse">
<stop stop-color="#4B0082"/>
<stop offset="1" stop-color="#EAD2FF"/>
</linearGradient>
<linearGradient id="paint40_linear_1869_6032" x1="508.103" y1="785.89" x2="1310.49" y2="1010.78" gradientUnits="userSpaceOnUse">
<stop stop-color="#4B0082"/>
<stop offset="1" stop-color="#EAD2FF"/>
</linearGradient>
<linearGradient id="paint41_linear_1869_6032" x1="495.708" y1="770.174" x2="1274.46" y2="1033.11" gradientUnits="userSpaceOnUse">
<stop stop-color="#4B0082"/>
<stop offset="1" stop-color="#EAD2FF"/>
</linearGradient>
<linearGradient id="paint42_linear_1869_6032" x1="484.159" y1="755.349" x2="1237.51" y2="1054.49" gradientUnits="userSpaceOnUse">
<stop stop-color="#4B0082"/>
<stop offset="1" stop-color="#EAD2FF"/>
</linearGradient>
<linearGradient id="paint43_linear_1869_6032" x1="473.393" y1="741.453" x2="1199.73" y2="1074.87" gradientUnits="userSpaceOnUse">
<stop stop-color="#4B0082"/>
<stop offset="1" stop-color="#EAD2FF"/>
</linearGradient>
<linearGradient id="paint44_linear_1869_6032" x1="463.347" y1="728.517" x2="1161.17" y2="1094.21" gradientUnits="userSpaceOnUse">
<stop stop-color="#4B0082"/>
<stop offset="1" stop-color="#EAD2FF"/>
</linearGradient>
<linearGradient id="paint45_linear_1869_6032" x1="453.957" y1="716.573" x2="1121.9" y2="1112.49" gradientUnits="userSpaceOnUse">
<stop stop-color="#4B0082"/>
<stop offset="1" stop-color="#EAD2FF"/>
</linearGradient>
<linearGradient id="paint46_linear_1869_6032" x1="445.157" y1="705.645" x2="1082" y2="1129.68" gradientUnits="userSpaceOnUse">
<stop stop-color="#4B0082"/>
<stop offset="1" stop-color="#EAD2FF"/>
</linearGradient>
<linearGradient id="paint47_linear_1869_6032" x1="436.88" y1="695.756" x2="1041.54" y2="1145.75" gradientUnits="userSpaceOnUse">
<stop stop-color="#4B0082"/>
<stop offset="1" stop-color="#EAD2FF"/>
</linearGradient>
<linearGradient id="paint48_linear_1869_6032" x1="429.059" y1="686.919" x2="1000.59" y2="1160.69" gradientUnits="userSpaceOnUse">
<stop stop-color="#4B0082"/>
<stop offset="1" stop-color="#EAD2FF"/>
</linearGradient>
<linearGradient id="paint49_linear_1869_6032" x1="421.628" y1="679.151" x2="959.218" y2="1174.48" gradientUnits="userSpaceOnUse">
<stop stop-color="#4B0082"/>
<stop offset="1" stop-color="#EAD2FF"/>
</linearGradient>
<linearGradient id="paint50_linear_1869_6032" x1="414.518" y1="672.458" x2="917.502" y2="1187.11" gradientUnits="userSpaceOnUse">
<stop stop-color="#4B0082"/>
<stop offset="1" stop-color="#EAD2FF"/>
</linearGradient>
<linearGradient id="paint51_linear_1869_6032" x1="407.662" y1="666.847" x2="875.512" y2="1198.58" gradientUnits="userSpaceOnUse">
<stop stop-color="#4B0082"/>
<stop offset="1" stop-color="#EAD2FF"/>
</linearGradient>
<linearGradient id="paint52_linear_1869_6032" x1="400.994" y1="662.316" x2="833.321" y2="1208.89" gradientUnits="userSpaceOnUse">
<stop stop-color="#4B0082"/>
<stop offset="1" stop-color="#EAD2FF"/>
</linearGradient>
<linearGradient id="paint53_linear_1869_6032" x1="394.447" y1="658.864" x2="791" y2="1218.04" gradientUnits="userSpaceOnUse">
<stop stop-color="#4B0082"/>
<stop offset="1" stop-color="#EAD2FF"/>
</linearGradient>
<linearGradient id="paint54_linear_1869_6032" x1="387.956" y1="656.481" x2="748.618" y2="1226.04" gradientUnits="userSpaceOnUse">
<stop stop-color="#4B0082"/>
<stop offset="1" stop-color="#EAD2FF"/>
</linearGradient>
<linearGradient id="paint55_linear_1869_6032" x1="381.457" y1="655.157" x2="706.245" y2="1232.91" gradientUnits="userSpaceOnUse">
<stop stop-color="#4B0082"/>
<stop offset="1" stop-color="#EAD2FF"/>
</linearGradient>
<linearGradient id="paint56_linear_1869_6032" x1="374.887" y1="654.879" x2="663.949" y2="1238.64" gradientUnits="userSpaceOnUse">
<stop stop-color="#4B0082"/>
<stop offset="1" stop-color="#EAD2FF"/>
</linearGradient>
<linearGradient id="paint57_linear_1869_6032" x1="368.184" y1="655.625" x2="621.794" y2="1243.28" gradientUnits="userSpaceOnUse">
<stop stop-color="#4B0082"/>
<stop offset="1" stop-color="#EAD2FF"/>
</linearGradient>
<linearGradient id="paint58_linear_1869_6032" x1="361.291" y1="657.375" x2="579.845" y2="1246.84" gradientUnits="userSpaceOnUse">
<stop stop-color="#4B0082"/>
<stop offset="1" stop-color="#EAD2FF"/>
</linearGradient>
<linearGradient id="paint59_linear_1869_6032" x1="354.148" y1="660.103" x2="538.164" y2="1249.35" gradientUnits="userSpaceOnUse">
<stop stop-color="#4B0082"/>
<stop offset="1" stop-color="#EAD2FF"/>
</linearGradient>
<linearGradient id="paint60_linear_1869_6032" x1="346.702" y1="663.781" x2="496.81" y2="1250.83" gradientUnits="userSpaceOnUse">
<stop stop-color="#4B0082"/>
<stop offset="1" stop-color="#EAD2FF"/>
</linearGradient>
<linearGradient id="paint61_linear_1869_6032" x1="338.897" y1="668.375" x2="455.84" y2="1251.33" gradientUnits="userSpaceOnUse">
<stop stop-color="#4B0082"/>
<stop offset="1" stop-color="#EAD2FF"/>
</linearGradient>
<linearGradient id="paint62_linear_1869_6032" x1="330.685" y1="673.853" x2="415.308" y2="1250.88" gradientUnits="userSpaceOnUse">
<stop stop-color="#4B0082"/>
<stop offset="1" stop-color="#EAD2FF"/>
</linearGradient>
<linearGradient id="paint63_linear_1869_6032" x1="322.018" y1="680.176" x2="375.267" y2="1249.53" gradientUnits="userSpaceOnUse">
<stop stop-color="#4B0082"/>
<stop offset="1" stop-color="#EAD2FF"/>
</linearGradient>
<linearGradient id="paint64_linear_1869_6032" x1="312.849" y1="687.304" x2="335.763" y2="1247.3" gradientUnits="userSpaceOnUse">
<stop stop-color="#4B0082"/>
<stop offset="1" stop-color="#EAD2FF"/>
</linearGradient>
<linearGradient id="paint65_linear_1869_6032" x1="303.138" y1="695.196" x2="296.843" y2="1244.26" gradientUnits="userSpaceOnUse">
<stop stop-color="#4B0082"/>
<stop offset="1" stop-color="#EAD2FF"/>
</linearGradient>
<linearGradient id="paint66_linear_1869_6032" x1="292.845" y1="703.807" x2="258.548" y2="1240.44" gradientUnits="userSpaceOnUse">
<stop stop-color="#4B0082"/>
<stop offset="1" stop-color="#EAD2FF"/>
</linearGradient>
<linearGradient id="paint67_linear_1869_6032" x1="281.935" y1="713.089" x2="220.918" y2="1235.9" gradientUnits="userSpaceOnUse">
<stop stop-color="#4B0082"/>
<stop offset="1" stop-color="#EAD2FF"/>
</linearGradient>
<linearGradient id="paint68_linear_1869_6032" x1="270.374" y1="722.996" x2="183.986" y2="1230.69" gradientUnits="userSpaceOnUse">
<stop stop-color="#4B0082"/>
<stop offset="1" stop-color="#EAD2FF"/>
</linearGradient>
<clipPath id="clip0_1869_6032">
<rect width="1922" height="1107" fill="white" transform="translate(0 175)"/>
</clipPath>
<clipPath id="clip1_1869_6032">
<rect width="2476.11" height="1562.96" fill="white" transform="translate(184.182 -250) rotate(9.65687)"/>
</clipPath>
</defs>
</svg>
