<svg width="1920" height="1466" viewBox="0 0 1920 1466" fill="none" xmlns="http://www.w3.org/2000/svg">
<g clip-path="url(#clip0_716_656)">
<rect width="1922" height="1107" transform="translate(2 87)" />
<g clip-path="url(#clip1_716_656)">
<path opacity="0.0144928" d="M2013.45 1287.82L2238.23 1007.16C2242.27 1002.12 2244.16 995.693 2243.48 989.272L2189.61 479.632C2189.07 474.582 2186.98 469.823 2183.63 466.012L1886.47 128.699C1880.39 121.79 1870.94 118.877 1862.02 121.158L1557.74 198.962C1548.82 201.243 1541.93 208.333 1539.91 217.315L1441.14 655.865C1440.03 660.819 1440.48 665.997 1442.43 670.684L1639.81 1143.63C1642.3 1149.59 1647.04 1154.32 1653 1156.81L1984.91 1295.11C1994.98 1299.31 2006.63 1296.34 2013.45 1287.82Z" stroke="url(#paint0_linear_716_656)"/>
<path opacity="0.0289855" d="M1957.65 1292.97L2195.54 1026.76C2199.85 1021.94 2202.07 1015.61 2201.73 1009.15L2175.1 502.061C2174.83 496.974 2172.99 492.097 2169.82 488.109L1892.65 139.099C1886.93 131.898 1877.66 128.506 1868.64 130.314L1562.53 191.722C1553.51 193.531 1546.27 200.235 1543.77 209.085L1422.65 637.994C1421.26 642.896 1421.44 648.107 1423.16 652.903L1594.16 1131.03C1596.34 1137.12 1600.84 1142.1 1606.67 1144.89L1928.82 1298.75C1938.65 1303.45 1950.4 1301.09 1957.65 1292.97Z" stroke="url(#paint1_linear_716_656)"/>
<path opacity="0.0434783" d="M1902.04 1296.4L2152.14 1045.23C2156.71 1040.64 2159.27 1034.42 2159.27 1027.95L2159.46 524.848C2159.47 519.74 2157.87 514.758 2154.9 510.6L1898.11 151.052C1892.77 143.578 1883.71 139.718 1874.62 141.05L1567.55 186.083C1558.46 187.416 1550.88 193.718 1547.91 202.409L1405.18 620.55C1403.53 625.385 1403.43 630.615 1404.9 635.508L1549.53 1117.37C1551.39 1123.57 1555.64 1128.79 1561.33 1131.87L1873.01 1300.65C1882.56 1305.83 1894.38 1304.09 1902.04 1296.4Z" stroke="url(#paint2_linear_716_656)"/>
<path opacity="0.057971" d="M1846.71 1298.12L2108.1 1062.53C2112.92 1058.19 2115.82 1052.11 2116.16 1045.64L2142.68 547.932C2142.95 542.815 2141.61 537.74 2138.85 533.424L1902.79 164.503C1897.84 156.778 1889 152.461 1879.87 153.315L1572.7 182.043C1563.57 182.897 1555.68 188.779 1552.26 197.287L1388.7 603.583C1386.78 608.337 1386.41 613.571 1387.63 618.55L1505.97 1102.71C1507.51 1109.01 1511.49 1114.44 1517.03 1117.81L1817.57 1300.85C1826.82 1306.48 1838.67 1305.37 1846.71 1298.12Z" stroke="url(#paint3_linear_716_656)"/>
<path opacity="0.0724638" d="M1791.76 1298.18L2063.5 1078.65C2068.55 1074.57 2071.77 1068.65 2072.46 1062.19L2124.74 571.247C2125.29 566.135 2124.21 560.981 2121.66 556.516L1906.6 179.397C1902.06 171.442 1893.46 166.681 1884.31 167.055L1577.92 179.592C1568.77 179.967 1560.59 185.414 1556.72 193.714L1373.18 587.142C1371.01 591.801 1370.35 597.026 1371.31 602.076L1463.53 1087.11C1464.74 1093.49 1468.44 1099.13 1473.81 1102.78L1762.58 1299.37C1771.5 1305.45 1783.36 1304.97 1791.76 1298.18Z" stroke="url(#paint4_linear_716_656)"/>
<path opacity="0.0869565" d="M1737.26 1296.6L2018.39 1093.57C2023.67 1089.77 2027.21 1084.02 2028.24 1077.59L2105.65 594.729C2106.47 589.637 2105.65 584.417 2103.33 579.813L1909.47 195.673C1905.35 187.508 1897.02 182.318 1887.88 182.213L1583.1 178.718C1573.95 178.614 1565.51 183.611 1561.2 191.68L1358.59 571.274C1356.16 575.824 1355.23 581.024 1355.93 586.134L1422.25 1070.64C1423.13 1077.09 1426.54 1082.92 1431.73 1086.85L1708.12 1296.27C1716.71 1302.77 1728.53 1302.91 1737.26 1296.6Z" stroke="url(#paint5_linear_716_656)"/>
<path opacity="0.101449" d="M1683.31 1293.43L1972.85 1107.28C1978.33 1103.76 1982.19 1098.19 1983.56 1091.82L2085.4 618.314C2086.48 613.256 2085.94 607.983 2083.85 603.251L1911.34 213.265C1907.64 204.913 1899.61 199.309 1890.49 198.727L1588.16 179.404C1579.05 178.822 1570.37 183.357 1565.64 191.171L1344.88 556.023C1342.2 560.45 1341 565.611 1341.43 570.766L1382.16 1053.39C1382.71 1059.88 1385.82 1065.89 1390.81 1070.08L1654.3 1291.58C1662.52 1298.49 1674.28 1299.24 1683.31 1293.43Z" stroke="url(#paint6_linear_716_656)"/>
<path opacity="0.115942" d="M1629.99 1288.72L1926.95 1119.75C1932.62 1116.53 1936.77 1111.17 1938.48 1104.87L2063.98 641.938C2065.34 636.928 2065.07 631.616 2063.22 626.768L1912.13 232.107C1908.87 223.59 1901.15 217.589 1892.09 216.532L1593.03 181.628C1583.97 180.571 1575.07 184.632 1569.94 192.17L1332.03 541.431C1329.11 545.721 1327.62 550.828 1327.79 556.017L1343.31 1035.41C1343.52 1041.93 1346.33 1048.1 1351.11 1052.55L1601.18 1285.36C1609.02 1292.65 1620.68 1294.01 1629.99 1288.72Z" stroke="url(#paint7_linear_716_656)"/>
<path opacity="0.130435" d="M1577.37 1282.51L1880.75 1130.99C1886.6 1128.07 1891.04 1122.94 1893.08 1116.73L2041.42 665.537C2043.05 660.59 2043.06 655.252 2041.44 650.3L1911.8 252.128C1908.98 243.469 1901.59 237.088 1892.61 235.56L1597.61 185.362C1588.63 183.835 1579.55 187.412 1574.02 194.652L1319.98 527.537C1316.82 531.677 1315.06 536.717 1314.96 541.924L1305.73 1016.78C1305.6 1023.32 1308.09 1029.64 1312.64 1034.33L1548.84 1277.65C1556.28 1285.31 1567.82 1287.28 1577.37 1282.51Z" stroke="url(#paint8_linear_716_656)"/>
<path opacity="0.144928" d="M1525.53 1274.85L1834.33 1141C1840.34 1138.39 1845.05 1133.49 1847.42 1127.39L2017.72 689.05C2019.61 684.179 2019.9 678.83 2018.53 673.785L1910.28 273.254C1907.91 264.476 1900.87 257.734 1892 255.741L1601.83 190.578C1592.96 188.585 1583.71 191.671 1577.81 198.591L1308.7 514.379C1305.31 518.357 1303.28 523.314 1302.91 528.526L1269.43 997.59C1268.96 1004.12 1271.13 1010.57 1275.45 1015.49L1497.37 1268.53C1504.38 1276.53 1515.76 1279.08 1525.53 1274.85Z" stroke="url(#paint9_linear_716_656)"/>
<path opacity="0.15942" d="M1474.54 1265.81L1787.75 1149.76C1793.9 1147.48 1798.88 1142.83 1801.57 1136.85L1992.88 712.414C1995.04 707.633 1995.6 702.288 1994.49 697.163L1907.53 295.409C1905.61 286.535 1898.94 279.451 1890.2 277.001L1605.61 197.239C1596.87 194.789 1587.49 197.374 1581.24 203.957L1298.14 501.992C1294.53 505.794 1292.23 510.654 1291.59 515.858L1234.44 977.9C1233.64 984.409 1235.48 990.968 1239.55 996.11L1446.81 1258.04C1453.4 1266.36 1464.59 1269.5 1474.54 1265.81Z" stroke="url(#paint10_linear_716_656)"/>
<path opacity="0.173913" d="M1424.47 1255.44L1741.07 1157.28C1747.34 1155.34 1752.58 1150.95 1755.59 1145.12L1966.94 735.568C1969.35 730.892 1970.19 725.563 1969.34 720.371L1903.5 318.514C1902.03 309.568 1895.74 302.163 1887.16 299.263L1608.89 205.307C1600.3 202.407 1590.81 204.487 1584.22 210.713L1288.25 490.406C1284.43 494.02 1281.87 498.77 1280.96 503.951L1200.79 957.793C1199.65 964.261 1201.15 970.918 1204.96 976.268L1397.26 1246.26C1403.39 1254.87 1414.37 1258.58 1424.47 1255.44Z" stroke="url(#paint11_linear_716_656)"/>
<path opacity="0.188406" d="M1375.38 1243.82L1694.37 1163.58C1700.75 1161.97 1706.22 1157.87 1709.54 1152.19L1939.89 758.454C1942.56 753.896 1943.68 748.599 1943.09 743.351L1898.14 342.49C1897.13 333.496 1891.24 325.79 1882.83 322.45L1611.58 214.741C1603.17 211.401 1593.6 212.97 1586.69 218.823L1278.99 479.653C1274.97 483.067 1272.15 487.691 1270.96 492.837L1168.47 937.346C1166.99 943.757 1168.16 950.494 1171.7 956.039L1348.75 1233.24C1354.43 1242.13 1365.15 1246.39 1375.38 1243.82Z" stroke="url(#paint12_linear_716_656)"/>
<path opacity="0.202899" d="M1327.33 1230.99L1647.7 1168.66C1654.17 1167.4 1659.86 1163.59 1663.49 1158.08L1911.78 781.013C1914.69 776.587 1916.09 771.335 1915.77 766.046L1891.42 367.255C1890.87 358.235 1885.4 350.251 1877.19 346.482L1613.62 225.494C1605.41 221.724 1595.79 222.781 1588.59 228.243L1270.31 469.757C1266.09 472.96 1263.02 477.446 1261.57 482.542L1137.5 916.637C1135.69 922.974 1136.51 929.773 1139.77 935.499L1301.36 1219.07C1306.57 1228.21 1317.01 1233 1327.33 1230.99Z" stroke="url(#paint13_linear_716_656)"/>
<path opacity="0.217391" d="M1280.38 1217.05L1601.15 1172.53C1607.68 1171.63 1613.58 1168.12 1617.5 1162.8L1882.62 803.189C1885.77 798.908 1887.45 793.716 1887.4 788.398L1883.31 392.724C1883.22 383.704 1878.18 375.464 1870.19 371.276L1614.95 237.516C1606.96 233.329 1597.31 233.871 1589.84 238.928L1262.16 460.743C1257.76 463.725 1254.44 468.058 1252.72 473.09L1107.89 895.743C1105.75 901.988 1106.22 908.833 1109.2 914.726L1255.14 1203.82C1259.86 1213.17 1270 1218.49 1280.38 1217.05Z" stroke="url(#paint14_linear_716_656)"/>
<path opacity="0.231884" d="M1234.57 1202.04L1554.75 1175.22C1561.34 1174.67 1567.43 1171.48 1571.63 1166.37L1852.44 824.927C1855.83 820.804 1857.78 815.686 1857.99 810.352L1873.79 418.815C1874.15 409.816 1869.55 401.344 1861.8 396.751L1615.5 250.756C1607.75 246.164 1598.11 246.193 1590.39 250.831L1254.49 452.632C1249.91 455.381 1246.36 459.549 1244.37 464.503L1079.63 874.742C1077.16 880.878 1077.28 887.751 1079.96 893.797L1210.12 1187.56C1214.35 1197.1 1224.17 1202.92 1234.57 1202.04Z" stroke="url(#paint15_linear_716_656)"/>
<path opacity="0.246377" d="M1189.96 1186.06L1508.59 1176.75C1515.21 1176.55 1521.47 1173.68 1525.94 1168.8L1821.27 846.175C1824.89 842.222 1827.11 837.193 1827.6 831.857L1862.83 445.441C1863.65 436.487 1859.49 427.806 1852.01 422.823L1615.21 265.158C1607.73 260.175 1598.12 259.692 1590.17 263.898L1247.24 445.441C1242.51 447.948 1238.72 451.938 1236.47 456.801L1052.71 853.709C1049.93 859.721 1049.7 866.603 1052.08 872.787L1166.37 1170.36C1170.1 1180.07 1179.56 1186.37 1189.96 1186.06Z" stroke="url(#paint16_linear_716_656)"/>
<path opacity="0.26087" d="M1146.57 1169.18L1462.71 1177.13C1469.34 1177.29 1475.76 1174.76 1480.49 1170.11L1789.15 866.882C1792.98 863.112 1795.47 858.185 1796.23 852.86L1850.41 472.517C1851.68 463.632 1847.98 454.766 1840.78 449.407L1614.04 280.665C1606.84 275.307 1597.29 274.314 1589.14 278.078L1240.37 439.187C1235.49 441.442 1231.48 445.242 1228.98 449.999L1027.14 832.722C1024.04 838.592 1023.46 845.466 1025.52 851.773L1123.91 1152.31C1127.13 1162.17 1136.21 1168.92 1146.57 1169.18Z" stroke="url(#paint17_linear_716_656)"/>
<path opacity="0.275362" d="M1104.46 1151.47L1417.17 1176.4C1423.8 1176.92 1430.36 1174.74 1435.34 1170.33L1756.1 886.999C1760.15 883.424 1762.9 878.613 1763.93 873.313L1836.53 499.957C1838.24 491.163 1835.01 482.136 1828.12 476.419L1611.93 297.215C1605.04 291.498 1595.57 290.001 1587.24 293.312L1233.82 433.88C1228.81 435.875 1224.59 439.472 1221.83 444.112L1002.88 811.854C999.483 817.566 998.55 824.415 1000.3 830.829L1082.77 1133.49C1085.49 1143.46 1094.17 1150.65 1104.46 1151.47Z" stroke="url(#paint18_linear_716_656)"/>
<path opacity="0.289855" d="M1063.66 1133.02L1372.04 1174.58C1378.64 1175.47 1385.31 1173.63 1390.53 1169.49L1722.18 906.48C1726.43 903.112 1729.44 898.43 1730.74 893.168L1821.17 527.675C1823.32 518.994 1820.57 509.832 1813.99 503.773L1608.84 314.747C1602.26 308.687 1592.9 306.692 1584.43 309.542L1227.54 429.53C1222.41 431.258 1217.99 434.64 1214.98 439.149L979.938 791.18C976.24 796.718 974.956 803.524 976.382 810.029L1043 1113.98C1045.2 1124.04 1053.45 1131.64 1063.66 1133.02Z" stroke="url(#paint19_linear_716_656)"/>
<path opacity="0.304348" d="M1024.18 1113.9L1327.36 1171.71C1333.91 1172.96 1340.69 1171.48 1346.13 1167.62L1687.43 925.283C1691.87 922.132 1695.13 917.593 1696.7 912.383L1804.34 555.586C1806.92 547.04 1804.65 537.768 1798.41 531.385L1604.71 333.195C1598.48 326.812 1589.26 324.326 1580.66 326.708L1221.48 426.145C1216.24 427.597 1211.63 430.754 1208.38 435.118L958.278 770.77C954.292 776.12 952.66 782.864 953.759 789.445L1004.6 1093.87C1006.29 1103.98 1014.1 1111.98 1024.18 1113.9Z" stroke="url(#paint20_linear_716_656)"/>
<path opacity="0.318841" d="M986.053 1094.19L1283.18 1167.82C1289.67 1169.43 1296.53 1168.32 1302.18 1164.74L1651.87 943.364C1656.49 940.441 1660 936.059 1661.84 930.913L1786.04 583.604C1789.04 575.215 1787.25 565.859 1781.37 559.17L1599.52 352.494C1593.64 345.805 1584.59 342.838 1575.88 344.746L1215.59 423.727C1210.25 424.897 1205.46 427.818 1201.97 432.025L937.876 750.695C933.611 755.842 931.633 762.507 932.402 769.146L967.608 1073.23C968.784 1083.38 976.135 1091.73 986.053 1094.19Z" stroke="url(#paint21_linear_716_656)"/>
<path opacity="0.333333" d="M949.298 1073.98L1239.56 1162.96C1245.96 1164.92 1252.89 1164.18 1258.73 1160.9L1615.57 960.686C1620.36 958.001 1624.1 953.788 1626.21 948.721L1766.28 611.646C1769.69 603.434 1768.39 594.019 1762.87 587.045L1593.23 372.575C1587.72 365.601 1578.85 362.163 1570.08 363.593L1209.81 422.278C1204.39 423.16 1199.43 425.834 1195.71 429.873L918.705 731.024C914.172 735.952 911.853 742.521 912.289 749.203L932.03 1052.15C932.692 1062.31 939.566 1071 949.298 1073.98Z" stroke="url(#paint22_linear_716_656)"/>
<path opacity="0.347826" d="M913.926 1053.35L1196.53 1157.15C1202.83 1159.46 1209.8 1159.09 1215.82 1156.13L1578.57 977.214C1583.51 974.776 1587.49 970.745 1589.85 965.769L1745.07 639.628C1748.88 631.615 1748.07 622.166 1742.93 614.927L1585.81 393.369C1580.68 386.13 1572.03 382.233 1563.21 383.182L1204.08 421.794C1198.6 422.383 1193.49 424.802 1189.55 428.659L900.73 711.822C895.94 716.518 893.285 722.974 893.385 729.682L897.876 1030.72C898.027 1040.86 904.408 1049.85 913.926 1053.35Z" stroke="url(#paint23_linear_716_656)"/>
<path opacity="0.362319" d="M879.945 1032.37L1154.15 1150.45C1160.33 1153.11 1167.32 1153.11 1173.5 1150.46L1540.91 992.913C1546 990.732 1550.19 986.894 1552.82 982.024L1722.43 667.47C1726.63 659.675 1726.3 650.218 1721.56 642.735L1577.23 414.806C1572.49 407.324 1564.08 402.981 1555.24 403.447L1198.37 422.272C1192.84 422.564 1187.58 424.717 1183.43 428.382L883.916 693.152C878.88 697.604 875.895 703.929 875.658 710.646L865.149 1009.01C864.794 1019.1 870.668 1028.38 879.945 1032.37Z" stroke="url(#paint24_linear_716_656)"/>
<path opacity="0.376812" d="M847.358 1011.14L1112.46 1142.89C1118.49 1145.89 1125.48 1146.27 1131.81 1143.95L1502.65 1007.75C1507.87 1005.84 1512.28 1002.21 1515.16 997.453L1698.37 695.092C1702.95 687.533 1703.11 678.094 1698.78 670.389L1567.47 436.815C1563.14 429.111 1554.99 424.337 1546.15 424.322L1192.62 423.705C1187.06 423.695 1181.66 425.575 1177.31 429.036L868.223 675.077C862.954 679.271 859.644 685.449 859.07 692.158L833.851 987.114C832.994 997.136 838.35 1006.66 847.358 1011.14Z" stroke="url(#paint25_linear_716_656)"/>
<path opacity="0.391304" d="M816.165 989.728L1071.48 1134.53C1077.35 1137.85 1084.33 1138.62 1090.78 1136.63L1463.84 1021.71C1469.17 1020.07 1473.78 1016.65 1476.91 1012.03L1672.94 722.416C1677.88 715.112 1678.52 705.715 1674.6 697.812L1556.51 459.326C1552.6 451.422 1544.74 446.232 1535.93 445.736L1186.77 426.081C1181.2 425.767 1175.68 427.366 1171.14 430.612L853.607 657.654C848.118 661.578 844.491 667.592 843.581 674.278L803.976 965.111C802.624 975.037 807.451 984.786 816.165 989.728Z" stroke="url(#paint26_linear_716_656)"/>
<path opacity="0.405797" d="M786.361 968.215L1031.26 1125.4C1036.95 1129.05 1043.9 1130.19 1050.45 1128.55L1424.52 1034.76C1429.96 1033.4 1434.77 1030.21 1438.14 1025.73L1646.15 749.366C1651.44 742.335 1652.55 733.005 1649.07 724.925L1544.34 482.266C1540.86 474.185 1533.3 468.596 1524.56 467.624L1180.78 429.388C1175.21 428.768 1169.6 430.078 1164.87 433.1L840.022 640.939C834.328 644.582 830.392 650.416 829.146 657.061L775.514 943.082C773.675 952.887 777.965 962.827 786.361 968.215Z" stroke="url(#paint27_linear_716_656)"/>
<path opacity="0.42029" d="M757.933 946.682L991.834 1115.56C997.325 1119.53 1004.21 1121.04 1010.86 1119.75L1384.77 1046.88C1390.3 1045.8 1395.28 1042.85 1398.89 1038.52L1618.04 775.87C1623.66 769.128 1625.25 759.89 1622.2 751.657L1530.95 505.563C1527.9 497.329 1520.68 491.359 1512.02 489.914L1174.61 433.611C1169.05 432.683 1163.35 433.699 1158.45 436.486L827.42 624.984C821.534 628.336 817.298 633.975 815.719 640.561L748.45 921.106C746.134 930.765 749.88 940.867 757.933 946.682Z" stroke="url(#paint28_linear_716_656)"/>
<path opacity="0.434783" d="M730.87 925.205L953.223 1105.06C958.5 1109.33 965.311 1111.22 972.032 1110.28L1344.62 1058.05C1350.22 1057.26 1355.38 1054.56 1359.22 1050.4L1588.65 801.857C1594.6 795.419 1596.65 786.298 1594.04 777.935L1516.34 529.146C1513.73 520.783 1506.85 514.451 1498.3 512.54L1168.2 438.732C1162.68 437.497 1156.9 438.212 1151.84 440.755L815.749 609.839C809.686 612.889 805.16 618.317 803.25 624.83L722.768 899.262C719.984 908.752 723.18 918.985 730.87 925.205Z" stroke="url(#paint29_linear_716_656)"/>
<path opacity="0.449275" d="M705.149 903.86L915.455 1093.95C920.5 1098.51 927.214 1100.77 933.989 1100.19L1304.13 1068.25C1309.8 1067.77 1315.12 1065.32 1319.18 1061.34L1558.03 827.258C1564.27 821.14 1566.78 812.16 1564.62 803.691L1500.5 552.944C1498.34 544.476 1491.82 537.802 1483.41 535.432L1161.51 444.73C1156.04 443.189 1150.2 443.598 1145 445.888L804.954 595.549C798.729 598.288 793.924 603.492 791.687 609.914L698.441 877.626C695.202 886.924 697.844 897.257 705.149 903.86Z" stroke="url(#paint30_linear_716_656)"/>
<path opacity="0.463768" d="M680.751 882.721L878.555 1082.28C883.353 1087.12 889.949 1089.75 896.76 1089.52L1263.37 1077.49C1269.08 1077.3 1274.54 1075.12 1278.82 1071.33L1526.22 852.011C1532.74 846.226 1535.7 837.409 1533.98 828.859L1483.44 576.887C1481.72 568.337 1475.59 561.344 1467.34 558.523L1154.5 451.585C1149.09 449.737 1143.21 449.837 1137.87 451.866L794.981 582.157C788.611 584.578 783.537 589.542 780.977 595.858L675.445 856.272C671.764 865.356 673.851 875.759 680.751 882.721Z" stroke="url(#paint31_linear_716_656)"/>
<path opacity="0.478261" d="M657.646 861.859L842.542 1070.11C847.076 1075.22 853.535 1078.2 860.362 1078.34L1222.38 1085.74C1228.12 1085.86 1233.72 1083.96 1238.2 1080.37L1493.26 876.052C1500.05 870.613 1503.45 861.982 1502.18 853.375L1465.16 600.906C1463.9 592.299 1458.16 585.007 1450.1 581.746L1147.11 459.271C1141.79 457.119 1135.88 456.905 1130.42 458.665L785.77 569.703C779.27 571.797 773.939 576.508 771.063 582.702L653.747 835.272C649.637 844.12 651.169 854.564 657.646 861.859Z" stroke="url(#paint32_linear_716_656)"/>
<path opacity="0.492754" d="M635.805 841.345L807.433 1057.48C811.688 1062.84 817.991 1066.17 824.815 1066.68L1181.22 1093C1186.98 1093.43 1192.7 1091.81 1197.37 1088.43L1459.21 899.324C1466.25 894.243 1470.07 885.821 1469.26 877.181L1445.67 624.932C1444.86 616.292 1439.55 608.724 1431.69 605.036L1139.32 467.761C1134.1 465.309 1128.18 464.778 1122.61 466.263L777.261 558.221C770.648 559.982 765.074 564.428 761.886 570.483L633.313 814.696C628.789 823.288 629.767 833.74 635.805 841.345Z" stroke="url(#paint33_linear_716_656)"/>
<path opacity="0.507246" d="M615.194 821.244L773.242 1044.45C777.204 1050.05 783.331 1053.73 790.133 1054.6L1139.96 1099.28C1145.71 1100.01 1151.53 1098.68 1156.4 1095.53L1424.14 921.773C1431.4 917.061 1435.63 908.868 1435.28 900.219L1425 648.898C1424.64 640.25 1419.75 632.43 1412.13 628.327L1131.09 477.027C1125.98 474.278 1120.07 473.43 1114.4 474.632L769.393 547.743C762.685 549.165 756.88 553.333 753.387 559.234L614.104 794.609C609.183 802.926 609.61 813.358 615.194 821.244Z" stroke="url(#paint34_linear_716_656)"/>
<path opacity="0.521739" d="M595.773 801.623L739.978 1031.08C743.634 1036.9 749.566 1040.91 756.326 1042.15L1098.63 1104.57C1104.36 1105.61 1110.28 1104.58 1115.32 1101.65L1388.08 943.347C1395.55 939.014 1400.19 931.07 1400.28 922.438L1403.15 672.739C1403.25 664.107 1398.79 656.059 1391.43 651.556L1122.37 487.038C1117.4 483.998 1111.5 482.83 1105.75 483.744L762.103 538.298C755.316 539.375 749.294 543.253 745.505 548.986L596.077 775.077C590.775 783.099 590.656 793.481 595.773 801.623Z" stroke="url(#paint35_linear_716_656)"/>
<path opacity="0.536232" d="M577.501 782.541L707.649 1017.42C710.987 1023.44 716.705 1027.78 723.404 1029.38L1057.3 1108.87C1063 1110.22 1069 1109.49 1074.21 1106.81L1351.11 964C1358.77 960.054 1363.79 952.38 1364.34 943.788L1380.15 696.391C1380.7 687.799 1376.69 679.549 1369.61 674.661L1113.13 497.763C1108.31 494.437 1102.45 492.949 1096.63 493.569L755.326 529.909C748.478 530.638 742.253 534.215 738.176 539.765L579.187 756.16C573.522 763.87 572.864 774.173 577.501 782.541Z" stroke="url(#paint36_linear_716_656)"/>
<path opacity="0.550725" d="M560.334 764.058L676.259 1003.51C679.266 1009.72 684.754 1014.38 691.373 1016.33L1016.03 1112.19C1021.68 1113.86 1027.74 1113.44 1033.1 1111L1313.29 983.688C1321.11 980.136 1326.5 972.752 1327.49 964.223L1356.02 719.794C1357.02 711.265 1353.47 702.838 1346.68 697.582L1103.34 509.168C1098.69 505.561 1092.88 503.754 1087 504.076L748.997 522.595C742.106 522.973 735.694 526.24 731.337 531.592L563.385 737.915C557.376 745.297 556.186 755.491 560.334 764.058Z" stroke="url(#paint37_linear_716_656)"/>
<path opacity="0.565217" d="M544.225 746.229L645.812 989.425C648.477 995.807 653.717 1000.76 660.236 1003.07L974.864 1114.55C980.446 1116.53 986.556 1116.42 992.063 1114.24L1274.68 1002.37C1282.65 999.222 1288.38 992.143 1289.82 983.703L1330.8 742.886C1332.23 734.445 1329.16 725.867 1322.69 720.26L1092.97 521.216C1088.49 517.338 1082.77 515.212 1076.84 515.232L743.052 516.375C736.136 516.399 729.551 519.345 724.925 524.486L548.621 720.397C542.287 727.435 540.576 737.492 544.225 746.229Z" stroke="url(#paint38_linear_716_656)"/>
<path opacity="0.57971" d="M529.123 729.106L616.303 975.205C618.617 981.739 623.591 986.986 629.992 989.647L933.857 1115.96C939.356 1118.24 945.5 1118.45 951.139 1116.53L1235.35 1020.02C1243.44 1017.27 1249.51 1010.52 1251.38 1002.19L1304.51 765.612C1306.38 757.282 1303.78 748.579 1297.64 742.641L1081.99 533.872C1077.71 529.73 1072.07 527.288 1066.12 527.003L737.423 511.26C730.499 510.928 723.759 513.545 718.873 518.462L534.839 703.655C528.2 710.335 525.979 720.229 529.123 729.106Z" stroke="url(#paint39_linear_716_656)"/>
<path opacity="0.594203" d="M514.977 712.737L587.729 960.904C589.684 967.571 594.377 973.095 600.64 976.1L893.063 1116.42C898.462 1119.02 904.624 1119.54 910.383 1117.9L1195.37 1036.6C1203.56 1034.26 1209.94 1027.85 1212.24 1019.65L1277.19 787.916C1279.49 779.72 1277.36 770.919 1271.58 764.669L1070.36 547.098C1066.3 542.701 1060.76 539.946 1054.8 539.354L732.045 507.258C725.132 506.571 718.252 508.851 713.117 513.531L521.984 687.737C515.062 694.046 512.342 703.75 514.977 712.737Z" stroke="url(#paint40_linear_716_656)"/>
<path opacity="0.608696" d="M501.73 697.168L560.083 946.575C561.669 953.355 566.065 959.14 572.173 962.483L852.53 1115.97C857.813 1118.87 863.978 1119.71 869.845 1118.35L1154.8 1052.08C1163.07 1050.16 1169.75 1044.09 1172.46 1036.05L1248.87 809.747C1251.59 801.706 1249.95 792.834 1244.54 786.294L1058.08 560.855C1054.24 556.213 1048.82 553.148 1042.87 552.246L726.85 504.375C719.965 503.332 712.962 505.268 707.591 509.699L509.995 672.687C502.811 678.613 499.608 688.1 501.73 697.168Z" stroke="url(#paint41_linear_716_656)"/>
<path opacity="0.623188" d="M489.326 682.44L533.354 932.266C534.565 939.14 538.65 945.17 544.584 948.844L812.31 1114.63C817.461 1117.82 823.612 1118.98 829.574 1117.9L1113.72 1066.44C1122.04 1064.93 1129 1059.24 1132.12 1051.38L1219.61 831.054C1222.73 823.191 1221.57 814.274 1216.55 807.467L1045.11 575.102C1041.51 570.227 1036.23 566.857 1030.3 565.644L721.773 502.61C714.935 501.213 707.826 502.799 702.23 506.969L498.815 658.542C491.39 664.074 487.719 673.321 489.326 682.44Z" stroke="url(#paint42_linear_716_656)"/>
<path opacity="0.637681" d="M477.707 668.59L507.53 918.028C508.361 924.974 512.121 931.233 517.862 935.229L772.449 1112.41C777.452 1115.89 783.574 1117.38 789.618 1116.59L1072.19 1079.67C1080.55 1078.58 1087.76 1073.26 1091.28 1065.6L1189.43 851.792C1192.95 844.128 1192.27 835.193 1187.65 828.141L1031.43 589.8C1028.09 584.701 1022.97 581.032 1017.07 579.508L716.748 501.962C709.975 500.213 702.778 501.442 696.969 505.341L488.38 645.338C480.737 650.468 476.614 659.45 477.707 668.59Z" stroke="url(#paint43_linear_716_656)"/>
<path opacity="0.652174" d="M466.81 655.652L482.595 903.908C483.04 910.905 486.461 917.377 491.993 921.684L732.992 1109.34C737.831 1113.11 743.908 1114.92 750.021 1114.43L1030.29 1091.75C1038.67 1091.07 1046.11 1086.14 1050.01 1078.7L1158.38 871.917C1162.28 864.472 1162.09 855.547 1157.88 848.272L1017.04 604.905C1013.96 599.597 1009.01 595.634 1003.16 593.799L711.709 502.421C705.019 500.324 697.75 501.193 691.743 504.809L478.625 633.108C470.786 637.827 466.229 646.521 466.81 655.652Z" stroke="url(#paint44_linear_716_656)"/>
<path opacity="0.666667" d="M456.577 643.657L458.532 889.952C458.588 896.98 461.659 903.645 466.964 908.254L693.987 1105.45C698.646 1109.5 704.661 1111.64 710.829 1111.45L988.089 1102.67C996.462 1102.4 1004.12 1097.88 1008.39 1090.67L1126.51 891.388C1130.78 884.182 1131.08 875.293 1127.29 867.821L1001.9 620.377C999.115 614.872 994.351 610.623 988.564 608.478L706.594 503.979C700.004 501.537 692.683 502.042 686.491 505.367L469.487 621.877C461.475 626.178 456.505 634.564 456.577 643.657Z" stroke="url(#paint45_linear_716_656)"/>
<path opacity="0.681159" d="M446.942 632.63L435.318 876.206C434.983 883.242 437.692 890.083 442.755 894.981L655.472 1100.78C659.935 1105.1 665.872 1107.57 672.082 1107.67L945.656 1112.42C954.003 1112.57 961.848 1108.45 966.475 1101.5L1093.87 910.168C1098.5 903.22 1099.27 894.394 1095.92 886.749L986.021 636.173C983.527 630.485 978.965 625.957 973.259 623.504L701.337 506.621C694.865 503.839 687.509 503.977 681.146 507.001L460.898 611.669C452.737 615.548 447.373 623.604 446.942 632.63Z" stroke="url(#paint46_linear_716_656)"/>
<path opacity="0.695652" d="M437.843 622.592L412.934 862.711C412.205 869.735 414.543 876.732 419.347 881.907L617.489 1095.36C621.742 1099.94 627.585 1102.73 633.822 1103.14L903.065 1121.01C911.364 1121.56 919.376 1117.87 924.342 1111.19L1060.51 928.223C1065.48 921.551 1066.72 912.815 1063.81 905.023L969.379 652.25C967.191 646.394 962.848 641.595 957.238 638.837L695.878 510.328C689.542 507.212 682.168 506.982 675.649 509.697L452.793 602.503C444.506 605.954 438.769 613.662 437.843 622.592Z" stroke="url(#paint47_linear_716_656)"/>
<path opacity="0.710145" d="M429.216 613.563L391.354 849.511C390.233 856.5 392.189 863.633 396.719 869.072L580.077 1089.22C584.105 1094.06 589.838 1097.16 596.089 1097.88L860.385 1128.44C868.617 1129.39 876.773 1126.12 882.061 1119.74L1026.48 945.524C1031.77 939.144 1033.47 930.522 1031.01 922.61L951.971 668.564C950.101 662.555 945.991 657.496 940.493 654.436L690.159 515.08C683.974 511.637 676.602 511.038 669.942 513.436L445.107 594.393C436.716 597.415 430.629 604.757 429.216 613.563Z" stroke="url(#paint48_linear_716_656)"/>
<path opacity="0.724638" d="M420.995 605.555L370.55 836.643C369.037 843.576 370.604 850.824 374.845 856.513L543.271 1082.41C547.058 1087.49 552.665 1090.9 558.916 1091.93L817.684 1134.72C825.829 1136.07 834.105 1133.22 839.699 1127.15L991.826 962.041C997.42 955.969 999.58 947.489 997.572 939.481L933.788 685.073C932.248 678.928 928.386 673.618 923.015 670.259L684.116 520.852C678.1 517.089 670.748 516.12 663.962 518.195L437.768 587.351C429.297 589.941 422.884 596.901 420.995 605.555Z" stroke="url(#paint49_linear_716_656)"/>
<path opacity="0.73913" d="M413.116 598.58L350.495 824.146C348.592 831 349.762 838.343 353.701 844.266L507.104 1074.95C510.637 1080.26 516.102 1083.99 522.338 1085.33L775.033 1139.85C783.071 1141.59 791.443 1139.17 797.324 1133.43L956.61 977.752C962.491 972.004 965.096 963.689 963.546 955.613L914.832 701.735C913.629 695.469 910.031 689.92 904.801 686.267L677.697 527.615C671.866 523.542 664.552 522.204 657.656 523.949L430.713 581.382C422.185 583.54 415.469 590.104 413.116 598.58Z" stroke="url(#paint50_linear_716_656)"/>
<path opacity="0.753623" d="M405.514 592.642L331.157 812.055C328.868 818.809 329.636 826.225 333.259 832.367L471.607 1066.89C474.872 1072.42 480.179 1076.45 486.386 1078.11L732.496 1143.86C740.409 1145.97 748.855 1144 755.003 1138.58L920.882 992.635C927.031 987.225 930.07 979.1 928.981 970.983L895.098 718.505C894.243 712.137 890.922 706.36 885.849 702.418L670.845 535.34C665.214 530.964 657.956 529.259 650.966 530.669L423.872 576.49C415.311 578.217 408.317 584.371 405.514 592.642Z" stroke="url(#paint51_linear_716_656)"/>
<path opacity="0.768116" d="M398.126 587.745L312.505 800.403C309.835 807.035 310.195 814.502 313.49 820.846L436.81 1058.28C439.793 1064.02 444.926 1068.35 451.09 1070.32L690.142 1146.76C697.91 1149.25 706.406 1147.7 712.803 1142.64L884.7 1006.68C891.097 1001.62 894.556 993.704 893.928 985.572L874.59 735.342C874.092 728.89 871.061 722.897 866.159 718.672L663.508 543.991C658.093 539.323 650.91 537.253 643.841 538.325L417.182 572.672C408.61 573.971 401.364 579.703 398.126 587.745Z" stroke="url(#paint52_linear_716_656)"/>
<path opacity="0.782609" d="M390.886 583.887L294.506 789.222C291.461 795.71 291.409 803.206 294.365 809.735L402.738 1049.15C405.426 1055.09 410.371 1059.71 416.477 1061.99L648.032 1148.58C655.639 1151.42 664.161 1150.31 670.786 1145.62L848.117 1019.86C854.742 1015.16 858.608 1007.48 858.439 999.365L853.313 752.204C853.177 745.686 850.45 739.491 845.735 734.99L655.637 553.531C650.453 548.583 643.362 546.152 636.232 546.88L410.575 569.923C402.016 570.797 394.542 576.098 390.886 583.887Z" stroke="url(#paint53_linear_716_656)"/>
<path opacity="0.797101" d="M383.732 581.061L277.124 778.54C273.711 784.862 273.245 792.365 275.85 799.061L369.414 1039.55C371.796 1045.68 376.536 1050.58 382.57 1053.18L606.23 1149.34C613.658 1152.53 622.183 1151.86 629.014 1147.53L811.19 1032.17C818.021 1027.85 822.278 1020.43 822.567 1012.35L831.271 769.049C831.505 762.485 829.095 756.102 824.579 751.331L647.184 563.922C642.244 558.704 635.263 555.917 628.088 556.299L403.988 568.234C395.463 568.688 387.788 573.548 383.732 581.061Z" stroke="url(#paint54_linear_716_656)"/>
<path opacity="0.811594" d="M376.603 579.26L260.323 768.383C256.55 774.519 255.669 782.005 257.914 788.85L336.86 1029.54C338.923 1035.83 343.443 1041.01 349.391 1043.92L564.795 1149.07C572.027 1152.6 580.533 1152.36 587.549 1148.41L773.972 1043.61C780.988 1039.67 785.62 1032.53 786.362 1024.52L808.473 785.838C809.084 779.247 807.001 772.689 802.7 767.658L638.104 575.122C633.423 569.646 626.569 566.508 619.365 566.542L397.358 567.592C388.888 567.632 381.039 572.044 376.603 579.26Z" stroke="url(#paint55_linear_716_656)"/>
<path opacity="0.826087" d="M369.437 578.469L244.066 758.775C239.943 764.705 238.647 772.152 240.523 779.126L305.092 1019.14C306.825 1025.59 311.111 1031.04 316.959 1034.25L523.783 1147.82C530.805 1151.67 539.268 1151.85 546.446 1148.3L736.52 1054.18C743.699 1050.62 748.686 1043.78 749.877 1035.86L784.93 802.529C785.921 795.932 784.179 789.215 780.105 783.931L628.354 587.085C623.945 581.365 617.236 577.882 610.02 577.567L390.621 567.979C382.228 567.613 374.233 571.572 369.437 578.469Z" stroke="url(#paint56_linear_716_656)"/>
<path opacity="0.84058" d="M362.174 578.674L228.315 749.739C223.853 755.441 222.142 762.826 223.641 769.91L274.126 1008.42C275.519 1015 279.556 1020.72 285.29 1024.23L483.25 1145.6C490.046 1149.77 498.444 1150.37 505.763 1147.21L698.888 1063.86C706.207 1060.7 711.532 1054.18 713.162 1046.38L760.654 819.085C762.03 812.502 760.638 805.642 756.806 800.115L617.897 599.765C613.771 593.814 607.224 589.994 600.013 589.328L383.719 569.376C375.424 568.611 367.308 572.113 362.174 578.674Z" stroke="url(#paint57_linear_716_656)"/>
<path opacity="0.855072" d="M354.757 579.854L213.031 741.292C208.242 746.748 206.118 754.048 207.234 761.222L243.975 997.418C245.017 1004.12 248.791 1010.09 254.397 1013.9L443.248 1142.47C449.805 1146.93 458.116 1147.95 465.553 1145.19L661.129 1072.68C668.566 1069.92 674.208 1063.73 676.27 1056.07L735.66 835.468C737.423 828.919 736.393 821.933 732.815 816.172L606.695 613.115C602.864 606.947 596.496 602.796 589.307 601.782L376.593 571.758C368.415 570.603 360.206 573.647 354.757 579.854Z" stroke="url(#paint58_linear_716_656)"/>
<path opacity="0.869565" d="M347.131 581.986L198.176 733.453C193.072 738.643 190.54 745.834 191.266 753.077L214.649 986.183C215.331 992.988 218.827 999.198 224.291 1003.31L403.827 1138.47C410.131 1143.21 418.334 1144.63 425.865 1142.28L623.298 1080.62C630.829 1078.27 636.767 1072.43 639.25 1064.94L709.965 851.64C712.117 845.148 711.458 838.052 708.147 832.068L594.717 627.083C591.192 620.713 585.018 616.241 577.868 614.878L369.187 575.098C361.146 573.565 352.871 576.149 347.131 581.986Z" stroke="url(#paint59_linear_716_656)"/>
<path opacity="0.884058" d="M339.241 585.044L183.707 726.234C178.303 731.14 175.368 738.199 175.7 745.49L186.153 974.765C186.467 981.656 189.672 988.096 194.981 992.502L365.032 1133.63C371.071 1138.64 379.145 1140.46 386.748 1138.52L585.445 1087.71C593.048 1085.76 599.259 1080.3 602.151 1073L683.586 867.566C686.129 861.153 685.849 853.965 682.817 847.768L581.931 641.617C578.723 635.062 572.759 630.278 565.664 628.568L361.447 579.366C353.561 577.466 345.247 579.592 339.241 585.044Z" stroke="url(#paint60_linear_716_656)"/>
<path opacity="0.898551" d="M331.036 588.999L169.587 719.648C163.899 724.251 160.566 731.156 160.5 738.474L158.492 963.212C158.43 970.172 161.331 976.83 166.471 981.523L326.907 1128.02C332.67 1133.28 340.595 1135.48 348.246 1133.95L547.621 1093.95C555.273 1092.42 561.735 1087.33 565.023 1080.25L656.545 883.213C659.477 876.9 659.586 869.639 656.844 863.241L568.314 656.666C565.431 649.939 559.693 644.854 552.669 642.801L353.322 584.528C345.61 582.274 337.282 583.944 331.036 588.999Z" stroke="url(#paint61_linear_716_656)"/>
<path opacity="0.913043" d="M322.466 593.819L155.775 713.703C149.818 717.987 146.095 724.716 145.629 732.038L131.668 951.572C131.222 958.582 133.806 965.446 138.764 970.421L289.492 1121.67C294.968 1127.17 302.724 1129.75 310.401 1128.62L509.877 1099.37C517.554 1098.24 524.243 1093.55 527.911 1086.71L628.862 898.547C632.183 892.357 632.688 885.041 630.248 878.454L553.84 672.173C551.291 665.292 545.793 659.916 538.857 657.523L344.762 590.549C337.24 587.953 328.926 589.173 322.466 593.819Z" stroke="url(#paint62_linear_716_656)"/>
<path opacity="0.927536" d="M313.483 599.469L142.229 708.407C136.021 712.355 131.917 718.885 131.049 726.19L105.678 939.895C104.842 946.935 107.097 953.992 111.86 959.244L252.822 1114.65C258.003 1120.36 265.571 1123.3 273.25 1122.58L472.259 1103.97C479.937 1103.25 486.829 1098.96 490.862 1092.39L600.561 913.537C604.268 907.494 605.175 900.141 603.048 893.378L538.49 688.084C536.283 681.066 531.039 675.411 524.207 672.682L335.722 597.39C328.406 594.467 320.131 595.241 313.483 599.469Z" stroke="url(#paint63_linear_716_656)"/>
<path opacity="0.942029" d="M304.045 605.914L128.909 703.763C122.47 707.361 117.994 713.669 116.724 720.936L80.5184 928.227C79.2869 935.279 81.2004 942.516 85.7561 948.036L216.93 1107C221.808 1112.91 229.171 1116.2 236.829 1115.89L434.812 1107.78C442.47 1107.47 449.54 1103.59 453.918 1097.3L571.667 928.154C575.756 922.279 577.072 914.91 575.268 907.983L522.248 704.343C520.389 697.204 515.413 691.283 508.701 688.223L326.157 605.009C319.062 601.775 310.851 602.111 304.045 605.914Z" stroke="url(#paint64_linear_716_656)"/>
<path opacity="0.956522" d="M294.109 613.112L115.778 699.774C109.126 703.007 104.29 709.073 102.619 716.278L56.1834 916.617C54.5513 923.659 56.1119 931.062 60.4478 936.846L181.848 1098.78C186.415 1104.87 193.556 1108.49 201.17 1108.58L397.584 1110.83C405.197 1110.92 412.419 1107.46 417.125 1101.48L542.206 942.369C546.673 936.686 548.403 929.321 546.933 922.244L505.103 720.893C503.598 713.651 498.902 707.476 492.326 704.091L316.029 613.363C309.169 609.833 301.048 609.74 294.109 613.112Z" stroke="url(#paint65_linear_716_656)"/>
<path opacity="0.971014" d="M283.637 621.023L102.795 696.439C95.9496 699.294 90.7661 705.095 88.6972 712.217L32.6627 905.111C30.6258 912.123 31.8224 919.677 35.9263 925.716L147.6 1090.05C151.851 1096.3 158.753 1100.24 166.301 1100.72L360.613 1113.14C368.161 1113.63 375.509 1110.59 380.522 1104.93L512.206 956.156C517.045 950.689 519.194 943.348 518.066 936.134L487.044 737.676C485.898 730.349 481.495 723.935 475.069 720.232L305.299 622.407C298.688 618.598 290.679 618.086 283.637 621.023Z" stroke="url(#paint66_linear_716_656)"/>
<path opacity="0.985507" d="M272.592 629.603L89.9188 693.756C82.9027 696.22 77.3855 701.737 74.9213 708.753L9.9428 893.755C7.49808 900.715 8.31995 908.407 12.1801 914.694L114.206 1080.85C118.136 1087.25 124.785 1091.5 132.245 1092.37L323.941 1114.74C331.401 1115.61 338.848 1113.01 344.146 1107.69L481.694 969.491C486.898 964.262 489.469 956.966 488.693 949.63L468.064 754.636C467.282 747.241 463.183 740.602 456.923 736.589L293.933 632.093C287.582 628.022 279.71 627.103 272.592 629.603Z" stroke="url(#paint67_linear_716_656)"/>
<path d="M260.943 638.807L77.1152 691.718C69.9502 693.78 64.1141 698.993 61.2591 705.881L-11.9882 882.593C-14.8431 889.481 -14.4063 897.294 -10.8013 903.821L81.6891 1071.27C85.2941 1077.79 91.6748 1082.32 99.0251 1083.57L287.606 1115.66C294.956 1116.91 302.476 1114.75 308.037 1109.78L450.703 982.349C456.264 977.383 459.26 970.154 458.844 962.709L448.165 771.716C447.749 764.272 443.965 757.422 437.885 753.106L281.903 642.373C275.823 638.057 268.109 636.744 260.943 638.807Z" stroke="url(#paint68_linear_716_656)"/>
</g>
</g>
<g opacity="0.2" filter="url(#filter0_f_716_656)">
<ellipse cx="399" cy="1035" rx="232" ry="231" fill="#8593E8"/>
</g>
<g opacity="0.2" filter="url(#filter1_f_716_656)">
<circle cx="1161" cy="775" r="223" fill="#AA48FE"/>
</g>
<g opacity="0.2" filter="url(#filter2_f_716_656)">
<circle cx="1796.5" cy="359.5" r="233.5" fill="#5D6EF3"/>
</g>
<defs>
<filter id="filter0_f_716_656" x="-33" y="604" width="864" height="862" filterUnits="userSpaceOnUse" color-interpolation-filters="sRGB">
<feFlood flood-opacity="0" result="BackgroundImageFix"/>
<feBlend mode="normal" in="SourceGraphic" in2="BackgroundImageFix" result="shape"/>
<feGaussianBlur stdDeviation="100" result="effect1_foregroundBlur_716_656"/>
</filter>
<filter id="filter1_f_716_656" x="738" y="352" width="846" height="846" filterUnits="userSpaceOnUse" color-interpolation-filters="sRGB">
<feFlood flood-opacity="0" result="BackgroundImageFix"/>
<feBlend mode="normal" in="SourceGraphic" in2="BackgroundImageFix" result="shape"/>
<feGaussianBlur stdDeviation="100" result="effect1_foregroundBlur_716_656"/>
</filter>
<filter id="filter2_f_716_656" x="1313" y="-124" width="967" height="967" filterUnits="userSpaceOnUse" color-interpolation-filters="sRGB">
<feFlood flood-opacity="0" result="BackgroundImageFix"/>
<feBlend mode="normal" in="SourceGraphic" in2="BackgroundImageFix" result="shape"/>
<feGaussianBlur stdDeviation="125" result="effect1_foregroundBlur_716_656"/>
</filter>
<linearGradient id="paint0_linear_716_656" x1="2002.08" y1="1302.81" x2="1682.99" y2="54.9135" gradientUnits="userSpaceOnUse">
<stop stop-color="#4B0082"/>
<stop offset="1" stop-color="#EAD2FF"/>
</linearGradient>
<linearGradient id="paint1_linear_716_656" x1="1945.53" y1="1307.29" x2="1694.43" y2="55.5439" gradientUnits="userSpaceOnUse">
<stop stop-color="#4B0082"/>
<stop offset="1" stop-color="#EAD2FF"/>
</linearGradient>
<linearGradient id="paint2_linear_716_656" x1="1889.21" y1="1309.99" x2="1705.61" y2="58.0729" gradientUnits="userSpaceOnUse">
<stop stop-color="#4B0082"/>
<stop offset="1" stop-color="#EAD2FF"/>
</linearGradient>
<linearGradient id="paint3_linear_716_656" x1="1833.21" y1="1310.96" x2="1716.45" y2="62.4692" gradientUnits="userSpaceOnUse">
<stop stop-color="#4B0082"/>
<stop offset="1" stop-color="#EAD2FF"/>
</linearGradient>
<linearGradient id="paint4_linear_716_656" x1="1777.64" y1="1310.23" x2="1726.83" y2="68.6959" gradientUnits="userSpaceOnUse">
<stop stop-color="#4B0082"/>
<stop offset="1" stop-color="#EAD2FF"/>
</linearGradient>
<linearGradient id="paint5_linear_716_656" x1="1722.56" y1="1307.84" x2="1736.68" y2="76.7106" gradientUnits="userSpaceOnUse">
<stop stop-color="#4B0082"/>
<stop offset="1" stop-color="#EAD2FF"/>
</linearGradient>
<linearGradient id="paint6_linear_716_656" x1="1668.08" y1="1303.82" x2="1745.89" y2="86.4665" gradientUnits="userSpaceOnUse">
<stop stop-color="#4B0082"/>
<stop offset="1" stop-color="#EAD2FF"/>
</linearGradient>
<linearGradient id="paint7_linear_716_656" x1="1614.28" y1="1298.23" x2="1754.37" y2="97.9117" gradientUnits="userSpaceOnUse">
<stop stop-color="#4B0082"/>
<stop offset="1" stop-color="#EAD2FF"/>
</linearGradient>
<linearGradient id="paint8_linear_716_656" x1="1561.23" y1="1291.13" x2="1762.04" y2="110.99" gradientUnits="userSpaceOnUse">
<stop stop-color="#4B0082"/>
<stop offset="1" stop-color="#EAD2FF"/>
</linearGradient>
<linearGradient id="paint9_linear_716_656" x1="1509.01" y1="1282.56" x2="1768.81" y2="125.64" gradientUnits="userSpaceOnUse">
<stop stop-color="#4B0082"/>
<stop offset="1" stop-color="#EAD2FF"/>
</linearGradient>
<linearGradient id="paint10_linear_716_656" x1="1457.69" y1="1272.59" x2="1774.62" y2="141.799" gradientUnits="userSpaceOnUse">
<stop stop-color="#4B0082"/>
<stop offset="1" stop-color="#EAD2FF"/>
</linearGradient>
<linearGradient id="paint11_linear_716_656" x1="1407.34" y1="1261.28" x2="1779.38" y2="159.396" gradientUnits="userSpaceOnUse">
<stop stop-color="#4B0082"/>
<stop offset="1" stop-color="#EAD2FF"/>
</linearGradient>
<linearGradient id="paint12_linear_716_656" x1="1358.03" y1="1248.7" x2="1783.03" y2="178.361" gradientUnits="userSpaceOnUse">
<stop stop-color="#4B0082"/>
<stop offset="1" stop-color="#EAD2FF"/>
</linearGradient>
<linearGradient id="paint13_linear_716_656" x1="1309.81" y1="1234.91" x2="1785.51" y2="198.619" gradientUnits="userSpaceOnUse">
<stop stop-color="#4B0082"/>
<stop offset="1" stop-color="#EAD2FF"/>
</linearGradient>
<linearGradient id="paint14_linear_716_656" x1="1262.74" y1="1220" x2="1786.75" y2="220.091" gradientUnits="userSpaceOnUse">
<stop stop-color="#4B0082"/>
<stop offset="1" stop-color="#EAD2FF"/>
</linearGradient>
<linearGradient id="paint15_linear_716_656" x1="1216.88" y1="1204.03" x2="1786.7" y2="242.696" gradientUnits="userSpaceOnUse">
<stop stop-color="#4B0082"/>
<stop offset="1" stop-color="#EAD2FF"/>
</linearGradient>
<linearGradient id="paint16_linear_716_656" x1="1172.26" y1="1187.08" x2="1785.31" y2="266.353" gradientUnits="userSpaceOnUse">
<stop stop-color="#4B0082"/>
<stop offset="1" stop-color="#EAD2FF"/>
</linearGradient>
<linearGradient id="paint17_linear_716_656" x1="1128.92" y1="1169.24" x2="1782.53" y2="290.975" gradientUnits="userSpaceOnUse">
<stop stop-color="#4B0082"/>
<stop offset="1" stop-color="#EAD2FF"/>
</linearGradient>
<linearGradient id="paint18_linear_716_656" x1="1086.91" y1="1150.58" x2="1778.33" y2="316.476" gradientUnits="userSpaceOnUse">
<stop stop-color="#4B0082"/>
<stop offset="1" stop-color="#EAD2FF"/>
</linearGradient>
<linearGradient id="paint19_linear_716_656" x1="1046.25" y1="1131.18" x2="1772.68" y2="342.768" gradientUnits="userSpaceOnUse">
<stop stop-color="#4B0082"/>
<stop offset="1" stop-color="#EAD2FF"/>
</linearGradient>
<linearGradient id="paint20_linear_716_656" x1="1006.98" y1="1111.13" x2="1765.54" y2="369.762" gradientUnits="userSpaceOnUse">
<stop stop-color="#4B0082"/>
<stop offset="1" stop-color="#EAD2FF"/>
</linearGradient>
<linearGradient id="paint21_linear_716_656" x1="969.106" y1="1090.51" x2="1756.89" y2="397.368" gradientUnits="userSpaceOnUse">
<stop stop-color="#4B0082"/>
<stop offset="1" stop-color="#EAD2FF"/>
</linearGradient>
<linearGradient id="paint22_linear_716_656" x1="932.654" y1="1069.4" x2="1746.72" y2="425.495" gradientUnits="userSpaceOnUse">
<stop stop-color="#4B0082"/>
<stop offset="1" stop-color="#EAD2FF"/>
</linearGradient>
<linearGradient id="paint23_linear_716_656" x1="897.632" y1="1047.9" x2="1735.01" y2="454.053" gradientUnits="userSpaceOnUse">
<stop stop-color="#4B0082"/>
<stop offset="1" stop-color="#EAD2FF"/>
</linearGradient>
<linearGradient id="paint24_linear_716_656" x1="864.048" y1="1026.07" x2="1721.75" y2="482.951" gradientUnits="userSpaceOnUse">
<stop stop-color="#4B0082"/>
<stop offset="1" stop-color="#EAD2FF"/>
</linearGradient>
<linearGradient id="paint25_linear_716_656" x1="831.904" y1="1004.02" x2="1706.95" y2="512.1" gradientUnits="userSpaceOnUse">
<stop stop-color="#4B0082"/>
<stop offset="1" stop-color="#EAD2FF"/>
</linearGradient>
<linearGradient id="paint26_linear_716_656" x1="801.196" y1="981.814" x2="1690.6" y2="541.41" gradientUnits="userSpaceOnUse">
<stop stop-color="#4B0082"/>
<stop offset="1" stop-color="#EAD2FF"/>
</linearGradient>
<linearGradient id="paint27_linear_716_656" x1="771.919" y1="959.541" x2="1672.71" y2="570.793" gradientUnits="userSpaceOnUse">
<stop stop-color="#4B0082"/>
<stop offset="1" stop-color="#EAD2FF"/>
</linearGradient>
<linearGradient id="paint28_linear_716_656" x1="744.058" y1="937.28" x2="1653.3" y2="600.162" gradientUnits="userSpaceOnUse">
<stop stop-color="#4B0082"/>
<stop offset="1" stop-color="#EAD2FF"/>
</linearGradient>
<linearGradient id="paint29_linear_716_656" x1="717.598" y1="915.113" x2="1632.39" y2="629.431" gradientUnits="userSpaceOnUse">
<stop stop-color="#4B0082"/>
<stop offset="1" stop-color="#EAD2FF"/>
</linearGradient>
<linearGradient id="paint30_linear_716_656" x1="692.516" y1="893.115" x2="1609.99" y2="658.518" gradientUnits="userSpaceOnUse">
<stop stop-color="#4B0082"/>
<stop offset="1" stop-color="#EAD2FF"/>
</linearGradient>
<linearGradient id="paint31_linear_716_656" x1="668.79" y1="871.364" x2="1586.14" y2="687.341" gradientUnits="userSpaceOnUse">
<stop stop-color="#4B0082"/>
<stop offset="1" stop-color="#EAD2FF"/>
</linearGradient>
<linearGradient id="paint32_linear_716_656" x1="646.387" y1="849.931" x2="1560.86" y2="715.82" gradientUnits="userSpaceOnUse">
<stop stop-color="#4B0082"/>
<stop offset="1" stop-color="#EAD2FF"/>
</linearGradient>
<linearGradient id="paint33_linear_716_656" x1="625.275" y1="828.888" x2="1534.2" y2="743.88" gradientUnits="userSpaceOnUse">
<stop stop-color="#4B0082"/>
<stop offset="1" stop-color="#EAD2FF"/>
</linearGradient>
<linearGradient id="paint34_linear_716_656" x1="605.419" y1="808.305" x2="1506.19" y2="771.447" gradientUnits="userSpaceOnUse">
<stop stop-color="#4B0082"/>
<stop offset="1" stop-color="#EAD2FF"/>
</linearGradient>
<linearGradient id="paint35_linear_716_656" x1="586.775" y1="788.245" x2="1476.87" y2="798.45" gradientUnits="userSpaceOnUse">
<stop stop-color="#4B0082"/>
<stop offset="1" stop-color="#EAD2FF"/>
</linearGradient>
<linearGradient id="paint36_linear_716_656" x1="569.3" y1="768.773" x2="1446.29" y2="824.823" gradientUnits="userSpaceOnUse">
<stop stop-color="#4B0082"/>
<stop offset="1" stop-color="#EAD2FF"/>
</linearGradient>
<linearGradient id="paint37_linear_716_656" x1="552.946" y1="749.946" x2="1414.51" y2="850.5" gradientUnits="userSpaceOnUse">
<stop stop-color="#4B0082"/>
<stop offset="1" stop-color="#EAD2FF"/>
</linearGradient>
<linearGradient id="paint38_linear_716_656" x1="537.666" y1="731.823" x2="1381.58" y2="875.422" gradientUnits="userSpaceOnUse">
<stop stop-color="#4B0082"/>
<stop offset="1" stop-color="#EAD2FF"/>
</linearGradient>
<linearGradient id="paint39_linear_716_656" x1="523.402" y1="714.454" x2="1347.55" y2="899.533" gradientUnits="userSpaceOnUse">
<stop stop-color="#4B0082"/>
<stop offset="1" stop-color="#EAD2FF"/>
</linearGradient>
<linearGradient id="paint40_linear_716_656" x1="510.103" y1="697.889" x2="1312.49" y2="922.779" gradientUnits="userSpaceOnUse">
<stop stop-color="#4B0082"/>
<stop offset="1" stop-color="#EAD2FF"/>
</linearGradient>
<linearGradient id="paint41_linear_716_656" x1="497.708" y1="682.174" x2="1276.46" y2="945.113" gradientUnits="userSpaceOnUse">
<stop stop-color="#4B0082"/>
<stop offset="1" stop-color="#EAD2FF"/>
</linearGradient>
<linearGradient id="paint42_linear_716_656" x1="486.159" y1="667.349" x2="1239.51" y2="966.489" gradientUnits="userSpaceOnUse">
<stop stop-color="#4B0082"/>
<stop offset="1" stop-color="#EAD2FF"/>
</linearGradient>
<linearGradient id="paint43_linear_716_656" x1="475.393" y1="653.453" x2="1201.73" y2="986.867" gradientUnits="userSpaceOnUse">
<stop stop-color="#4B0082"/>
<stop offset="1" stop-color="#EAD2FF"/>
</linearGradient>
<linearGradient id="paint44_linear_716_656" x1="465.347" y1="640.517" x2="1163.17" y2="1006.21" gradientUnits="userSpaceOnUse">
<stop stop-color="#4B0082"/>
<stop offset="1" stop-color="#EAD2FF"/>
</linearGradient>
<linearGradient id="paint45_linear_716_656" x1="455.957" y1="628.573" x2="1123.9" y2="1024.49" gradientUnits="userSpaceOnUse">
<stop stop-color="#4B0082"/>
<stop offset="1" stop-color="#EAD2FF"/>
</linearGradient>
<linearGradient id="paint46_linear_716_656" x1="447.156" y1="617.646" x2="1084" y2="1041.68" gradientUnits="userSpaceOnUse">
<stop stop-color="#4B0082"/>
<stop offset="1" stop-color="#EAD2FF"/>
</linearGradient>
<linearGradient id="paint47_linear_716_656" x1="438.879" y1="607.756" x2="1043.54" y2="1057.75" gradientUnits="userSpaceOnUse">
<stop stop-color="#4B0082"/>
<stop offset="1" stop-color="#EAD2FF"/>
</linearGradient>
<linearGradient id="paint48_linear_716_656" x1="431.06" y1="598.92" x2="1002.59" y2="1072.69" gradientUnits="userSpaceOnUse">
<stop stop-color="#4B0082"/>
<stop offset="1" stop-color="#EAD2FF"/>
</linearGradient>
<linearGradient id="paint49_linear_716_656" x1="423.628" y1="591.151" x2="961.218" y2="1086.48" gradientUnits="userSpaceOnUse">
<stop stop-color="#4B0082"/>
<stop offset="1" stop-color="#EAD2FF"/>
</linearGradient>
<linearGradient id="paint50_linear_716_656" x1="416.518" y1="584.459" x2="919.502" y2="1099.11" gradientUnits="userSpaceOnUse">
<stop stop-color="#4B0082"/>
<stop offset="1" stop-color="#EAD2FF"/>
</linearGradient>
<linearGradient id="paint51_linear_716_656" x1="409.661" y1="578.847" x2="877.512" y2="1110.58" gradientUnits="userSpaceOnUse">
<stop stop-color="#4B0082"/>
<stop offset="1" stop-color="#EAD2FF"/>
</linearGradient>
<linearGradient id="paint52_linear_716_656" x1="402.993" y1="574.316" x2="835.321" y2="1120.89" gradientUnits="userSpaceOnUse">
<stop stop-color="#4B0082"/>
<stop offset="1" stop-color="#EAD2FF"/>
</linearGradient>
<linearGradient id="paint53_linear_716_656" x1="396.446" y1="570.864" x2="793" y2="1130.04" gradientUnits="userSpaceOnUse">
<stop stop-color="#4B0082"/>
<stop offset="1" stop-color="#EAD2FF"/>
</linearGradient>
<linearGradient id="paint54_linear_716_656" x1="389.956" y1="568.481" x2="750.618" y2="1138.04" gradientUnits="userSpaceOnUse">
<stop stop-color="#4B0082"/>
<stop offset="1" stop-color="#EAD2FF"/>
</linearGradient>
<linearGradient id="paint55_linear_716_656" x1="383.457" y1="567.158" x2="708.246" y2="1144.91" gradientUnits="userSpaceOnUse">
<stop stop-color="#4B0082"/>
<stop offset="1" stop-color="#EAD2FF"/>
</linearGradient>
<linearGradient id="paint56_linear_716_656" x1="376.887" y1="566.879" x2="665.949" y2="1150.64" gradientUnits="userSpaceOnUse">
<stop stop-color="#4B0082"/>
<stop offset="1" stop-color="#EAD2FF"/>
</linearGradient>
<linearGradient id="paint57_linear_716_656" x1="370.185" y1="567.625" x2="623.794" y2="1155.28" gradientUnits="userSpaceOnUse">
<stop stop-color="#4B0082"/>
<stop offset="1" stop-color="#EAD2FF"/>
</linearGradient>
<linearGradient id="paint58_linear_716_656" x1="363.291" y1="569.375" x2="581.845" y2="1158.84" gradientUnits="userSpaceOnUse">
<stop stop-color="#4B0082"/>
<stop offset="1" stop-color="#EAD2FF"/>
</linearGradient>
<linearGradient id="paint59_linear_716_656" x1="356.149" y1="572.103" x2="540.164" y2="1161.35" gradientUnits="userSpaceOnUse">
<stop stop-color="#4B0082"/>
<stop offset="1" stop-color="#EAD2FF"/>
</linearGradient>
<linearGradient id="paint60_linear_716_656" x1="348.701" y1="575.78" x2="498.81" y2="1162.83" gradientUnits="userSpaceOnUse">
<stop stop-color="#4B0082"/>
<stop offset="1" stop-color="#EAD2FF"/>
</linearGradient>
<linearGradient id="paint61_linear_716_656" x1="340.897" y1="580.375" x2="457.84" y2="1163.33" gradientUnits="userSpaceOnUse">
<stop stop-color="#4B0082"/>
<stop offset="1" stop-color="#EAD2FF"/>
</linearGradient>
<linearGradient id="paint62_linear_716_656" x1="332.686" y1="585.853" x2="417.309" y2="1162.88" gradientUnits="userSpaceOnUse">
<stop stop-color="#4B0082"/>
<stop offset="1" stop-color="#EAD2FF"/>
</linearGradient>
<linearGradient id="paint63_linear_716_656" x1="324.018" y1="592.176" x2="377.267" y2="1161.53" gradientUnits="userSpaceOnUse">
<stop stop-color="#4B0082"/>
<stop offset="1" stop-color="#EAD2FF"/>
</linearGradient>
<linearGradient id="paint64_linear_716_656" x1="314.849" y1="599.305" x2="337.763" y2="1159.3" gradientUnits="userSpaceOnUse">
<stop stop-color="#4B0082"/>
<stop offset="1" stop-color="#EAD2FF"/>
</linearGradient>
<linearGradient id="paint65_linear_716_656" x1="305.138" y1="607.196" x2="298.843" y2="1156.26" gradientUnits="userSpaceOnUse">
<stop stop-color="#4B0082"/>
<stop offset="1" stop-color="#EAD2FF"/>
</linearGradient>
<linearGradient id="paint66_linear_716_656" x1="294.846" y1="615.807" x2="260.549" y2="1152.44" gradientUnits="userSpaceOnUse">
<stop stop-color="#4B0082"/>
<stop offset="1" stop-color="#EAD2FF"/>
</linearGradient>
<linearGradient id="paint67_linear_716_656" x1="283.935" y1="625.089" x2="222.917" y2="1147.9" gradientUnits="userSpaceOnUse">
<stop stop-color="#4B0082"/>
<stop offset="1" stop-color="#EAD2FF"/>
</linearGradient>
<linearGradient id="paint68_linear_716_656" x1="272.375" y1="634.996" x2="185.986" y2="1142.69" gradientUnits="userSpaceOnUse">
<stop stop-color="#4B0082"/>
<stop offset="1" stop-color="#EAD2FF"/>
</linearGradient>
<clipPath id="clip0_716_656">
<rect width="1922" height="1107" fill="white" transform="translate(2 87)"/>
</clipPath>
<clipPath id="clip1_716_656">
<rect width="2476.11" height="1562.96" fill="white" transform="translate(186.182 -338) rotate(9.65687)"/>
</clipPath>
</defs>
</svg>
